Agbalumo (Autosaved).glyphspackage
{
glyphname = numbersign;
layers = (
{
layerId = "CDFC0212-EC7A-4000-86F8-EA19B9E6D7F9";
shapes = (
{
closed = 1;
nodes = (
(463,-46,o),
(478,-41,o),
(490,-32,c),
(492,20,o),
(496,79,o),
(501,139,c),
(530,141,o),
(557,144,o),
(568,146,cs),
(632,155,o),
(657,192,o),
(657,227,cs),
(657,242,o),
(652,257,o),
(641,269,c),
(603,264,o),
(559,260,o),
(513,257,c),
(525,359,l),
(555,361,o),
(582,364,o),
(593,366,cs),
(657,375,o),
(682,412,o),
(682,447,cs),
(682,462,o),
(677,477,o),
(666,489,c),
(629,484,o),
(587,480,o),
(543,477,c),
(556,556,o),
(569,617,o),
(579,641,c),
(571,658,o),
(548,668,o),
(522,668,cs),
(484,668,o),
(441,646,o),
(430,583,cs),
(428,574,o),
(421,531,o),
(413,473,c),
(376,473,o),
(340,473,o),
(305,474,c),
(316,534,o),
(327,580,o),
(336,602,c),
(333,623,o),
(312,634,o),
(287,634,cs),
(248,634,o),
(199,608,o),
(188,546,cs),
(187,539,o),
(182,514,o),
(177,481,c),
(126,486,o),
(87,492,o),
(68,500,c),
(49,495,o),
(40,479,o),
(40,461,cs),
(40,428,o),
(69,384,o),
(121,368,cs),
(134,364,o),
(144,363,o),
(158,361,c),
(153,329,o),
(148,295,o),
(144,262,c),
(97,266,o),
(61,272,o),
(43,280,c),
(24,275,o),
(15,259,o),
(15,241,cs),
(15,208,o),
(44,164,o),
(96,148,cs),
(109,144,o),
(119,143,o),
(133,141,c),
(131,118,o),
(131,96,o),
(131,90,cs),
(132,23,o),
(172,-4,o),
(210,-4,cs),
(226,-4,o),
(241,1,o),
(253,10,c),
(254,47,o),
(257,90,o),
(260,134,c),
(284,134,o),
(309,134,o),
(335,134,cs),
(348,134,o),
(360,134,o),
(373,134,c),
(371,99,o),
(370,65,o),
(370,36,cs),
(370,-19,o),
(410,-46,o),
(447,-46,cs)
);
},
{
closed = 1;
nodes = (
(346,253,o),
(308,253,o),
(273,254,c),
(277,288,o),
(281,322,o),
(286,354,c),
(309,354,o),
(333,354,o),
(358,354,cs),
(371,354,o),
(383,354,o),
(396,354,c),
(392,321,o),
(387,287,o),
(384,253,c)
);
}
);
width = 697;
},
{
associatedMasterId = "CDFC0212-EC7A-4000-86F8-EA19B9E6D7F9";
layerId = "319BDF15-A432-4647-8C85-ABBBE6953784";
name = "Jul 12, 23, 15:40";
shapes = (
{
closed = 1;
nodes = (
(171,215,o),
(197,543,o),
(213,602,c),
(202,654,o),
(76,646,o),
(66,550,cs),
(61,503,o),
(29,213,o),
(42,78,cs),
(49,1,o),
(132,-22,o),
(171,10,c)
);
},
{
closed = 1;
nodes = (
(471,215,o),
(497,582,o),
(513,641,c),
(502,693,o),
(376,685,o),
(366,589,cs),
(361,542,o),
(329,213,o),
(343,36,cs),
(349,-41,o),
(432,-64,o),
(471,-32,c)
);
}
);
width = 600;
},
{
associatedMasterId = "CDFC0212-EC7A-4000-86F8-EA19B9E6D7F9";
layerId = "085F5240-8A1D-4FC0-931A-B30A917B8B11";
name = "Jul 12, 23, 15:47";
shapes = (
{
closed = 1;
nodes = (
(241,215,o),
(267,543,o),
(283,602,c),
(272,654,o),
(149,646,o),
(139,550,cs),
(134,503,o),
(102,213,o),
(115,78,cs),
(122,1,o),
(202,-22,o),
(241,10,c)
);
},
{
closed = 1;
nodes = (
(481,215,o),
(507,582,o),
(523,641,c),
(512,693,o),
(389,685,o),
(379,589,cs),
(374,542,o),
(342,213,o),
(356,36,cs),
(362,-41,o),
(442,-64,o),
(481,-32,c)
);
},
{
closed = 1;
nodes = (
(428,478,o),
(99,487,o),
(39,500,c),
(-12,486,o),
(2,371,o),
(99,366,cs),
(146,364,o),
(437,347,o),
(571,367,cs),
(648,378,o),
(667,452,o),
(633,489,c)
);
},
{
closed = 1;
nodes = (
(408,258,o),
(79,267,o),
(19,280,c),
(-32,266,o),
(-18,151,o),
(79,146,cs),
(126,144,o),
(417,127,o),
(551,147,cs),
(628,158,o),
(647,232,o),
(613,269,c)
);
}
);
width = 669;
},
{
associatedMasterId = "CDFC0212-EC7A-4000-86F8-EA19B9E6D7F9";
layerId = "41B588D0-6648-4376-A323-7A2BA5259866";
name = "Sep 30, 23, 19:08";
shapes = (
{
closed = 1;
nodes = (
(498,205,o),
(550,572,o),
(579,641,c),
(559,683,o),
(448,685,o),
(431,589,cs),
(423,542,o),
(368,213,o),
(370,36,cs),
(370,-41,o),
(449,-64,o),
(490,-32,c)
);
},
{
closed = 1;
nodes = (
(150,132,o),
(445,127,o),
(579,147,cs),
(656,158,o),
(675,232,o),
(641,269,c),
(446,242,o),
(113,251,o),
(43,280,c),
(-8,266,o),
(10,174,o),
(103,146,cs)
);
},
{
closed = 1;
nodes = (
(258,205,o),
(307,533,o),
(336,602,c),
(329,654,o),
(205,646,o),
(189,550,cs),
(180,503,o),
(128,213,o),
(131,78,cs),
(133,1,o),
(212,-22,o),
(253,10,c)
);
},
{
closed = 1;
nodes = (
(175,352,o),
(470,347,o),
(604,367,cs),
(681,378,o),
(700,452,o),
(666,489,c),
(471,462,o),
(138,471,o),
(68,500,c),
(17,486,o),
(35,394,o),
(128,366,cs)
);
}
);
width = 697;
}
);
unicode = 35;
}
{
glyphname = parenleft;
lastChange = "2024-12-05 18:06:48 +0000";
layers = (
{
layerId = "CDFC0212-EC7A-4000-86F8-EA19B9E6D7F9";
shapes = (
{
closed = 1;
nodes = (
(234,-111,o),
(248,-106,o),
(261,-95,c),
(243,-21,o),
(235,57,o),
(235,132,cs),
(235,382,o),
(323,622,o),
(463,731,c),
(468,776,o),
(420,807,o),
(371,807,cs),
(348,807,o),
(323,800,o),
(290,768,cs),
(179,660,o),
(90,371,o),
(90,157,cs),
(90,93,o),
(98,36,o),
(115,-9,cs),
(138,-72,o),
(179,-111,o),
(219,-111,cs)
);
}
);
width = 363;
},
{
associatedMasterId = "CDFC0212-EC7A-4000-86F8-EA19B9E6D7F9";
layerId = "6A1DFE29-C1FF-4653-A0E6-C684E26F51E9";
name = "Sep 30, 23, 19:08";
shapes = (
{
closed = 1;
nodes = (
(186,222,o),
(280,588,o),
(463,731,c),
(471,798,o),
(360,835,o),
(305,782,cs),
(143,625,o),
(42,190,o),
(114,-8,cs),
(146,-95,o),
(212,-136,o),
(261,-95,c)
);
}
);
width = 363;
}
);
unicode = 40;
userData = {
KernOnName = parenleft;
KernOnSpecialSpacing = {
R = parenthesis;
};
};
}
{
glyphname = plus;
layers = (
{
layerId = "CDFC0212-EC7A-4000-86F8-EA19B9E6D7F9";
shapes = (
{
closed = 1;
nodes = (
(304,12,o),
(321,17,o),
(334,27,c),
(329,81,o),
(325,138,o),
(324,192,c),
(363,193,o),
(402,196,o),
(415,198,cs),
(482,205,o),
(504,242,o),
(504,277,cs),
(504,293,o),
(499,308,o),
(490,320,c),
(437,313,o),
(380,309,o),
(326,307,c),
(329,375,o),
(338,430,o),
(351,459,c),
(337,476,o),
(316,485,o),
(295,485,cs),
(262,485,o),
(226,461,o),
(215,410,cs),
(210,389,o),
(207,352,o),
(205,307,c),
(148,309,o),
(101,316,o),
(75,327,c),
(59,311,o),
(50,291,o),
(50,272,cs),
(50,240,o),
(74,209,o),
(122,198,cs),
(142,194,o),
(170,192,o),
(205,191,c),
(206,154,o),
(208,118,o),
(209,104,cs),
(216,33,o),
(252,12,o),
(287,12,cs)
);
}
);
width = 554;
},
{
associatedMasterId = "CDFC0212-EC7A-4000-86F8-EA19B9E6D7F9";
layerId = "A8128A88-84B2-4777-8A29-8C9FC60AAAB0";
name = "Sep 30, 23, 18:55";
shapes = (
{
closed = 1;
nodes = (
(170,188,o),
(329,187,o),
(435,200,cs),
(503,208,o),
(520,283,o),
(490,320,c),
(330,300,o),
(139,299,o),
(75,327,c),
(31,283,o),
(42,216,o),
(128,197,cs)
);
},
{
closed = 1;
nodes = (
(204,363,o),
(200,201,o),
(211,85,cs),
(219,6,o),
(297,-2,o),
(334,27,c),
(317,198,o),
(321,395,o),
(351,459,c),
(313,504,o),
(234,494,o),
(214,406,cs)
);
}
);
width = 554;
}
);
unicode = 43;
userData = {
KernOnSpecialSpacing = {
L = math;
R = math;
};
};
}
{
glyphname = hyphen;
lastChange = "2024-12-05 18:06:48 +0000";
layers = (
{
background = {
shapes = (
{
closed = 1;
nodes = (
(48,297,o),
(40,261,o),
(48,216,c),
(177,235,o),
(256,236,o),
(389,226,c),
(416,263,o),
(424,299,o),
(411,336,c),
(277,346,o),
(198,345,o),
(70,326,c)
);
}
);
};
layerId = "CDFC0212-EC7A-4000-86F8-EA19B9E6D7F9";
shapes = (
{
closed = 1;
nodes = (
(79,223,o),
(107,225,o),
(143,225,cs),
(187,225,o),
(241,222,o),
(315,222,c),
(385,222,o),
(418,255,o),
(418,300,cs),
(418,319,o),
(412,340,o),
(400,362,c),
(381,349,o),
(350,345,o),
(313,345,cs),
(264,345,o),
(204,352,o),
(145,352,c),
(83,352,o),
(45,314,o),
(45,262,cs),
(45,247,o),
(48,230,o),
(56,213,c)
);
}
);
width = 453;
},
{
associatedMasterId = "CDFC0212-EC7A-4000-86F8-EA19B9E6D7F9";
layerId = "EF5BB8A9-55D4-4A02-A15F-9D3E7876B894";
name = "Jul 24, 23, 19:16";
shapes = (
{
closed = 1;
nodes = (
(48,297,o),
(40,261,o),
(48,216,c),
(177,235,o),
(256,236,o),
(389,226,c),
(416,263,o),
(424,299,o),
(411,336,c),
(277,346,o),
(198,345,o),
(70,326,c)
);
}
);
width = 452;
},
{
associatedMasterId = "CDFC0212-EC7A-4000-86F8-EA19B9E6D7F9";
background = {
shapes = (
{
closed = 1;
nodes = (
(48,297,o),
(40,261,o),
(48,216,c),
(177,235,o),
(256,236,o),
(389,226,c),
(416,263,o),
(424,299,o),
(411,336,c),
(277,346,o),
(198,345,o),
(70,326,c)
);
}
);
};
layerId = "9C503DE5-EC47-45DE-995F-88C2C494BE9B";
name = "Sep 30, 23, 19:08";
shapes = (
{
closed = 1;
nodes = (
(104,233,o),
(174,222,o),
(315,222,cs),
(414,222,o),
(439,289,o),
(400,362,c),
(355,331,o),
(247,352,o),
(145,352,cs),
(64,352,o),
(23,287,o),
(56,213,c)
);
}
);
width = 453;
}
);
unicode = 45;
userData = {
KernOnName = hyphen;
KernOnSpecialSpacing = {
L = hyphen;
R = hyphen;
};
};
}
{
glyphname = period;
lastChange = "2024-12-05 18:06:48 +0000";
layers = (
{
layerId = "CDFC0212-EC7A-4000-86F8-EA19B9E6D7F9";
shapes = (
{
closed = 1;
nodes = (
(162,-6,o),
(211,40,o),
(211,98,cs),
(211,148,o),
(170,188,o),
(115,188,cs),
(54,188,o),
(6,141,o),
(6,84,cs),
(6,33,o),
(46,-6,o),
(101,-6,cs)
);
}
);
width = 235;
},
{
associatedMasterId = "CDFC0212-EC7A-4000-86F8-EA19B9E6D7F9";
layerId = "F04C40E3-D7F5-4353-B7C6-F38E7C25A0A2";
name = "Sep 7, 23, 17:24";
shapes = (
{
closed = 1;
nodes = (
(221,-6,o),
(270,40,o),
(270,98,cs),
(270,148,o),
(229,188,o),
(174,188,cs),
(113,188,o),
(65,141,o),
(65,84,cs),
(65,33,o),
(105,-6,o),
(160,-6,cs)
);
}
);
width = 314;
},
{
associatedMasterId = "CDFC0212-EC7A-4000-86F8-EA19B9E6D7F9";
layerId = "F5C93929-1ACC-4C02-B774-F18FCB2E3738";
name = "Sep 30, 23, 19:08";
shapes = (
{
closed = 1;
nodes = (
(162,-6,o),
(211,40,o),
(211,98,cs),
(211,148,o),
(170,188,o),
(115,188,cs),
(54,188,o),
(6,141,o),
(6,84,cs),
(6,33,o),
(46,-6,o),
(101,-6,cs)
);
}
);
width = 235;
}
);
unicode = 46;
userData = {
KernOnName = period;
KernOnSpecialSpacing = {
L = period;
R = period;
};
};
}
{
glyphname = eight;
layers = (
{
layerId = "CDFC0212-EC7A-4000-86F8-EA19B9E6D7F9";
shapes = (
{
closed = 1;
nodes = (
(386,-7,o),
(531,68,o),
(531,199,cs),
(531,267,o),
(459,317,o),
(383,362,c),
(468,398,o),
(509,462,o),
(509,523,cs),
(509,622,o),
(403,674,o),
(294,674,cs),
(181,674,o),
(65,617,o),
(65,495,cs),
(65,429,o),
(119,382,o),
(180,341,c),
(99,315,o),
(40,241,o),
(40,165,cs),
(40,46,o),
(143,-7,o),
(254,-7,cs)
);
},
{
closed = 1;
nodes = (
(237,91,o),
(192,125,o),
(192,196,cs),
(192,223,o),
(205,268,o),
(243,302,c),
(306,264,o),
(361,227,o),
(361,179,cs),
(361,122,o),
(321,91,o),
(280,91,cs)
);
},
{
closed = 1;
nodes = (
(252,442,o),
(210,477,o),
(210,517,cs),
(210,570,o),
(250,597,o),
(289,597,cs),
(329,597,o),
(368,570,o),
(368,517,cs),
(368,485,o),
(352,446,o),
(306,408,c)
);
}
);
width = 576;
},
{
associatedMasterId = "CDFC0212-EC7A-4000-86F8-EA19B9E6D7F9";
layerId = "AFA932C8-9738-42BC-A6C1-1A8F53850E6A";
name = "Jun 26, 23, 12:31";
shapes = (
{
closed = 1;
nodes = (
(272,335,l),
(391,346,o),
(503,439,o),
(502,524,cs),
(502,736,o),
(62,724,o),
(62,484,cs),
(62,329,o),
(361,290,o),
(361,179,cs),
(361,61,o),
(192,58,o),
(192,196,cs),
(192,230,o),
(214,284,o),
(280,316,c),
(232,340,l),
(121,340,o),
(40,259,o),
(40,165,cs),
(40,-95,o),
(531,-42,o),
(531,199,cs),
(531,342,o),
(204,395,o),
(204,517,cs),
(204,601,o),
(362,624,o),
(362,495,cs),
(362,459,o),
(331,415,o),
(253,372,c)
);
}
);
width = 576;
},
{
associatedMasterId = "CDFC0212-EC7A-4000-86F8-EA19B9E6D7F9";
layerId = "5244E984-6BF6-44C0-BBA1-1DBFA3FDCB73";
name = "Sep 30, 23, 18:40";
shapes = (
{
closed = 1;
nodes = (
(40,-95,o),
(531,-42,o),
(531,199,cs),
(531,342,o),
(210,406,o),
(210,517,cs),
(210,623,o),
(368,623,o),
(368,517,cs),
(368,475,o),
(341,421,o),
(253,373,c),
(272,336,l),
(432,350,o),
(509,440,o),
(509,523,cs),
(509,725,o),
(65,734,o),
(65,495,cs),
(65,340,o),
(361,290,o),
(361,179,cs),
(361,61,o),
(192,58,o),
(192,196,cs),
(192,230,o),
(214,295,o),
(280,327,c),
(242,351,l),
(131,351,o),
(40,259,o),
(40,165,cs)
);
}
);
width = 576;
}
);
unicode = 56;
userData = {
KernOnSpecialSpacing = {
};
};
}
{
glyphname = question;
layers = (
{
layerId = "CDFC0212-EC7A-4000-86F8-EA19B9E6D7F9";
shapes = (
{
closed = 1;
nodes = (
(251,228,o),
(277,235,o),
(292,249,c),
(286,266,o),
(284,281,o),
(284,293,cs),
(284,347,o),
(328,370,o),
(377,396,cs),
(441,429,o),
(514,467,o),
(514,583,cs),
(514,708,o),
(411,767,o),
(308,767,cs),
(165,767,o),
(85,679,o),
(85,605,cs),
(85,549,o),
(129,501,o),
(223,502,c),
(217,523,o),
(214,542,o),
(214,559,cs),
(214,625,o),
(258,658,o),
(299,658,cs),
(333,658,o),
(365,635,o),
(365,587,cs),
(365,541,o),
(336,505,o),
(275,471,cs),
(220,440,o),
(149,403,o),
(145,281,c),
(144,245,o),
(184,228,o),
(225,228,cs)
);
},
{
closed = 1;
nodes = (
(259,-6,o),
(308,40,o),
(308,98,cs),
(308,148,o),
(267,188,o),
(212,188,cs),
(151,188,o),
(103,141,o),
(103,84,cs),
(103,33,o),
(143,-6,o),
(198,-6,cs)
);
}
);
width = 534;
},
{
associatedMasterId = "CDFC0212-EC7A-4000-86F8-EA19B9E6D7F9";
layerId = "2FE46C1E-D2ED-4353-9008-FDC6ED82812E";
name = "Jun 21, 23, 15:03";
shapes = (
{
closed = 1;
nodes = (
(130,403,o),
(200.545,439.514,o),
(256,470.582,cs),
(317.256,504.899,o),
(338,541,o),
(338,572,cs),
(338,618,o),
(306,649,o),
(272,649,cs),
(225,649,o),
(173,596,o),
(203.318,513.756,c),
(-7.123,513.756,o),
(39.097,766.542,o),
(288.871,766.542,cs),
(395.303,766.542,o),
(502.193,703.67,o),
(495.086,571.006,cs),
(483.651,357.569,o),
(215,414,o),
(273,249,c),
(235,213,o),
(124,222,o),
(126,281,c)
);
},
{
pos = (18,0);
ref = period;
}
);
width = 505.42;
},
{
associatedMasterId = "CDFC0212-EC7A-4000-86F8-EA19B9E6D7F9";
layerId = "134F6E5D-B9C3-4A61-87F6-40592ABE9E4D";
name = "Sep 13, 23, 12:31";
shapes = (
{
closed = 1;
nodes = (
(234,424,o),
(503,358,o),
(514,571,cs),
(521,704,o),
(414,767,o),
(308,767,cs),
(58,767,o),
(2,500,o),
(223,502,c),
(169,675,o),
(365,706,o),
(365,587,cs),
(365,541,o),
(336,505,o),
(275,471,c),
(220,440,o),
(149,403,o),
(145,281,c),
(143,222,o),
(254,213,o),
(292,249,c)
);
},
{
pos = (97,0);
ref = period;
}
);
width = 534;
},
{
associatedMasterId = "CDFC0212-EC7A-4000-86F8-EA19B9E6D7F9";
layerId = "B4B4F5FD-F307-49EC-BC1F-44E2FDCA9F56";
name = "Sep 30, 23, 19:08";
shapes = (
{
closed = 1;
nodes = (
(234,424,o),
(503,358,o),
(514,571,cs),
(521,704,o),
(414,767,o),
(308,767,cs),
(58,767,o),
(2,500,o),
(223,502,c),
(169,675,o),
(365,706,o),
(365,587,cs),
(365,541,o),
(336,505,o),
(275,471,c),
(220,440,o),
(149,403,o),
(145,281,c),
(143,222,o),
(254,213,o),
(292,249,c)
);
},
{
closed = 1;
nodes = (
(259,-6,o),
(308,40,o),
(308,98,cs),
(308,148,o),
(267,188,o),
(212,188,cs),
(151,188,o),
(103,141,o),
(103,84,cs),
(103,33,o),
(143,-6,o),
(198,-6,cs)
);
}
);
width = 534;
}
);
unicode = 63;
userData = {
KernOnSpecialSpacing = {
L = "spaced-off";
};
};
}
{
glyphname = C;
lastChange = "2024-12-05 18:06:48 +0000";
layers = (
{
associatedMasterId = "CDFC0212-EC7A-4000-86F8-EA19B9E6D7F9";
layerId = "F7C9CAA9-9311-4D4C-9208-5B20728C26C0";
name = "May 29, 23, 14:09";
shapes = (
{
closed = 1;
nodes = (
(356,-4,o),
(521,75,o),
(521,272,c),
(509,278,l),
(483,204,o),
(417,163,o),
(354,163,cs),
(280,163,o),
(212,219,o),
(212,348,cs),
(212,523,o),
(280,608,o),
(330,608,cs),
(366,608,o),
(378,575,o),
(378,536,cs),
(378,509,o),
(373,480,o),
(367,451,c),
(477,451,o),
(535,522,o),
(535,592,cs),
(535,659,o),
(479,724,o),
(366,724,cs),
(136,724,o),
(6,500,o),
(6,297,cs),
(6,139,o),
(87,-5,o),
(265,-4,cs)
);
}
);
width = 600;
},
{
anchors = (
{
name = bottom;
pos = (282,0);
},
{
name = top;
pos = (344,710);
}
);
associatedMasterId = "CDFC0212-EC7A-4000-86F8-EA19B9E6D7F9";
layerId = "B09A6429-C210-48E2-BCEA-AD63309DA322";
name = "Aug 29, 23, 12:45";
shapes = (
{
closed = 1;
nodes = (
(398,-6,o),
(529,91,o),
(556,272,c),
(543,278,l),
(473,181,o),
(399,133,o),
(340,133,cs),
(264,133,o),
(210,210,o),
(215,358,cs),
(219,475,o),
(285,601,o),
(363,601,cs),
(396,601,o),
(421,586,o),
(419,536,cs),
(418,513,o),
(412,483,o),
(398,444,c),
(523,444,o),
(585,510,o),
(587,579,cs),
(591,672,o),
(509,725,o),
(408,725,cs),
(251,725,o),
(46,599,o),
(36,308,cs),
(31,144,o),
(107,-6,o),
(274,-6,cs)
);
}
);
width = 607;
},
{
anchors = (
{
name = bottom;
pos = (285,0);
},
{
name = top;
pos = (388,710);
}
);
layerId = "CDFC0212-EC7A-4000-86F8-EA19B9E6D7F9";
name = Regular;
shapes = (
{
closed = 1;
nodes = (
(401,-6,o),
(532,91,o),
(559,272,c),
(546,278,l),
(476,181,o),
(402,133,o),
(343,133,cs),
(267,133,o),
(213,210,o),
(218,358,cs),
(222,475,o),
(288,601,o),
(366,601,cs),
(398,601,o),
(422,587,o),
(422,541,cs),
(422,518,o),
(416,486,o),
(401,444,c),
(530,444,o),
(590,514,o),
(590,585,cs),
(590,675,o),
(510,726,o),
(411,726,cs),
(254,726,o),
(49,599,o),
(39,308,cs),
(34,144,o),
(110,-6,o),
(277,-6,cs)
);
}
);
width = 599;
},
{
anchors = (
{
name = bottom;
pos = (284,0);
},
{
name = top;
pos = (387,710);
}
);
associatedMasterId = "CDFC0212-EC7A-4000-86F8-EA19B9E6D7F9";
layerId = "CDA9BAE7-0631-4C4C-B3FE-1005E21EB2C4";
name = "Oct 1, 23, 18:37";
shapes = (
{
closed = 1;
nodes = (
(400,-6,o),
(531,91,o),
(558,272,c),
(545,278,l),
(475,181,o),
(401,133,o),
(342,133,cs),
(266,133,o),
(212,210,o),
(217,358,cs),
(221,475,o),
(287,601,o),
(365,601,cs),
(397,601,o),
(421,587,o),
(421,541,cs),
(421,518,o),
(415,486,o),
(400,444,c),
(529,444,o),
(589,514,o),
(589,585,cs),
(589,675,o),
(509,726,o),
(410,726,cs),
(253,726,o),
(48,599,o),
(38,308,cs),
(33,144,o),
(109,-6,o),
(276,-6,cs)
);
}
);
width = 598;
}
);
metricLeft = "=O";
unicode = 67;
userData = {
KernOnName = C;
};
}
{
glyphname = I;
lastChange = "2024-12-05 18:06:48 +0000";
layers = (
{
associatedMasterId = "CDFC0212-EC7A-4000-86F8-EA19B9E6D7F9";
background = {
shapes = (
{
closed = 1;
nodes = (
(68.01,546,l),
(141.01,628,o),
(261.01,607,o),
(261.01,495,cs),
(261.01,373.833,o),
(159.157,89.764,o),
(238.868,89.764,c),
(238.928,9.794,o),
(39.691,-81.335,o),
(40.002,128.791,cs),
(40.166,239.741,o),
(116.907,458.504,o),
(68.01,540,c)
);
}
);
};
layerId = "4E7B714F-ED6E-4DEB-BADC-14CE4F521997";
name = "May 29, 23, 14:22";
shapes = (
{
closed = 1;
nodes = (
(68.01,551,l),
(141.01,633,o),
(261.01,612,o),
(261.01,500,cs),
(261.01,378.833,o),
(159.157,89.764,o),
(238.868,89.764,c),
(259.403,9.794,o),
(39.691,-81.335,o),
(40.002,128.791,cs),
(40.166,239.741,o),
(116.907,463.504,o),
(68.01,545,c)
);
}
);
width = 281.01;
},
{
anchors = (
{
name = bottom;
pos = (118,0);
},
{
name = ogonek;
pos = (236,10);
},
{
name = top;
pos = (220,710);
},
{
name = topleft;
pos = (53,710);
}
);
background = {
shapes = (
{
closed = 1;
nodes = (
(85,546,l),
(158,628,o),
(278,607,o),
(278,495,cs),
(278,374,o),
(177,90,o),
(256,90,c),
(256,10,o),
(57,-81,o),
(57,129,cs),
(58,240,o),
(134,459,o),
(85,540,c)
);
}
);
};
layerId = "CDFC0212-EC7A-4000-86F8-EA19B9E6D7F9";
name = Regular;
shapes = (
{
closed = 1;
nodes = (
(135,-5,o),
(171,16,o),
(187,33,c),
(188,64,o),
(191,95,o),
(193,118,cs),
(215,373,o),
(273,604,o),
(290,657,c),
(279,705,o),
(247,723,o),
(213,723,cs),
(173,723,o),
(130,698,o),
(115,658,cs),
(95,601,o),
(43,272,o),
(31,138,cs),
(31,133,o),
(30,121,o),
(30,106,cs),
(30,21,o),
(64,-5,o),
(101,-5,cs)
);
}
);
width = 315;
},
{
associatedMasterId = "CDFC0212-EC7A-4000-86F8-EA19B9E6D7F9";
background = {
shapes = (
{
closed = 1;
nodes = (
(66.01,546,l),
(139.01,628,o),
(259.01,607,o),
(259.01,495,cs),
(259.01,373.833,o),
(157.157,89.764,o),
(236.868,89.764,c),
(236.928,9.794,o),
(37.691,-81.335,o),
(38.002,128.791,cs),
(38.166,239.741,o),
(114.907,458.504,o),
(66.01,540,c)
);
}
);
};
layerId = "82A91246-D292-4D28-9573-3E96B2000F77";
name = "May 31, 23, 14:55";
shapes = (
{
closed = 1;
nodes = (
(241,-30.07,o),
(241,106,c),
(183.498,237.641,o),
(276,470.588,o),
(276,602,cs),
(276,733.113,o),
(148.802,762.366,o),
(66,662,c),
(66,655,l),
(114.907,458.504,o),
(25,264.391,o),
(25,127.013,cs),
(25,-46.521,o)
);
}
);
width = 296;
},
{
associatedMasterId = "CDFC0212-EC7A-4000-86F8-EA19B9E6D7F9";
background = {
shapes = (
{
closed = 1;
nodes = (
(40.89,546,l),
(113.89,628,o),
(233.89,607,o),
(233.89,495,cs),
(233.89,373.833,o),
(132.037,89.764,o),
(211.748,89.764,c),
(211.808,9.794,o),
(12.571,-81.335,o),
(12.882,128.791,cs),
(13.046,239.741,o),
(89.787,458.504,o),
(40.89,540,c)
);
}
);
};
layerId = "07F70BDE-7513-4F9F-A52F-BB183CC55F75";
name = "May 31, 23, 15:17";
shapes = (
{
closed = 1;
nodes = (
(248.449,712.834,o),
(201.6,733,o),
(117.804,713,c),
(50.329,614.682,o),
(-92.66,-1.23,o),
(104.512,-1.23,cs),
(154.496,-1.23,o),
(205.176,33.467,o),
(205.176,63.039,c),
(156.241,209.555,o),
(225.297,560.344,o),
(277.34,676.672,c)
);
}
);
width = 268.34;
},
{
associatedMasterId = "CDFC0212-EC7A-4000-86F8-EA19B9E6D7F9";
background = {
shapes = (
{
closed = 1;
nodes = (
(80.41,546,l),
(153.41,628,o),
(273.41,607,o),
(273.41,495,cs),
(273.41,373.833,o),
(171.557,89.764,o),
(251.268,89.764,c),
(251.328,9.794,o),
(52.091,-81.335,o),
(52.402,128.791,cs),
(52.566,239.741,o),
(129.307,458.504,o),
(80.41,540,c)
);
}
);
};
layerId = "9F07A3BE-763F-475A-84BA-BD3D12677F35";
name = "Jun 7, 23, 12:22";
shapes = (
{
closed = 1;
nodes = (
(217,317,o),
(269,593,o),
(295.696,653.424,c),
(263.131,761.87,o),
(118.011,714.891,o),
(110.409,671.227,cs),
(99.912,610.929,o),
(36.742,265.34,o),
(30.051,73.687,cs),
(27.054,-12.164,o),
(155.208,-21.544,o),
(213.847,36.417,c)
);
}
);
width = 295.7;
},
{
associatedMasterId = "CDFC0212-EC7A-4000-86F8-EA19B9E6D7F9";
background = {
shapes = (
{
closed = 1;
nodes = (
(80,546,l),
(153,628,o),
(273,607,o),
(273,495,cs),
(273,374,o),
(172,90,o),
(251,90,c),
(251,10,o),
(52,-81,o),
(52,129,cs),
(53,240,o),
(129,459,o),
(80,540,c)
);
}
);
};
layerId = "6FA43021-4809-43F6-AA1D-D833D2B25E56";
name = "Jul 5, 23, 17:52";
shapes = (
{
closed = 1;
nodes = (
(200,317,o),
(252,593,o),
(279,653,c),
(246,762,o),
(118,715,o),
(110,671,cs),
(100,611,o),
(37,265,o),
(30,74,cs),
(27,-12,o),
(138,-22,o),
(197,36,c)
);
}
);
width = 289;
},
{
anchors = (
{
name = bottom;
pos = (110,0);
},
{
name = ogonek;
pos = (243,10);
},
{
name = top;
pos = (243,720);
},
{
name = topleft;
pos = (61,720);
}
);
associatedMasterId = "CDFC0212-EC7A-4000-86F8-EA19B9E6D7F9";
background = {
shapes = (
{
closed = 1;
nodes = (
(97,546,l),
(170,628,o),
(290,607,o),
(290,495,cs),
(290,374,o),
(189,90,o),
(268,90,c),
(268,10,o),
(69,-81,o),
(69,129,cs),
(70,240,o),
(146,459,o),
(97,540,c)
);
}
);
};
layerId = "72A5379A-F6A6-4F6C-BEAE-2B0294075F3D";
name = "Aug 14, 23, 12:12";
shapes = (
{
closed = 1;
nodes = (
(215,314,o),
(291,597,o),
(311,657,c),
(299,706,o),
(266,723,o),
(232,723,cs),
(191,723,o),
(148,698,o),
(139,675,cs),
(116,615,o),
(49,262,o),
(32,71,cs),
(28,21,o),
(64,-4,o),
(107,-4,cs),
(137,-4,o),
(171,9,o),
(197,33,c)
);
}
);
width = 323;
},
{
anchors = (
{
name = bottom;
pos = (115,0);
},
{
name = ogonek;
pos = (257,10);
},
{
name = top;
pos = (227,710);
},
{
name = topleft;
pos = (60,710);
}
);
associatedMasterId = "CDFC0212-EC7A-4000-86F8-EA19B9E6D7F9";
background = {
shapes = (
{
closed = 1;
nodes = (
(92,546,l),
(165,628,o),
(285,607,o),
(285,495,cs),
(285,374,o),
(184,90,o),
(263,90,c),
(263,10,o),
(64,-81,o),
(64,129,cs),
(65,240,o),
(141,459,o),
(92,540,c)
);
}
);
};
layerId = "4C12A505-10E4-479C-9E51-E12F21897976";
name = "Aug 29, 23, 12:45";
shapes = (
{
closed = 1;
nodes = (
(142,-5,o),
(178,16,o),
(194,33,c),
(207,314,o),
(278,597,o),
(297,657,c),
(286,705,o),
(254,723,o),
(220,723,cs),
(180,723,o),
(137,698,o),
(125,664,cs),
(103,605,o),
(37,203,o),
(37,113,cs),
(37,21,o),
(71,-5,o),
(108,-5,cs)
);
}
);
width = 309;
},
{
anchors = (
{
name = bottom;
pos = (107,0);
},
{
name = ogonek;
pos = (225,10);
},
{
name = top;
pos = (209,710);
},
{
name = topleft;
pos = (42,710);
}
);
associatedMasterId = "CDFC0212-EC7A-4000-86F8-EA19B9E6D7F9";
background = {
shapes = (
{
closed = 1;
nodes = (
(74,546,l),
(147,628,o),
(267,607,o),
(267,495,cs),
(267,374,o),
(166,90,o),
(245,90,c),
(245,10,o),
(46,-81,o),
(46,129,cs),
(47,240,o),
(123,459,o),
(74,540,c)
);
}
);
};
layerId = "D2D56249-0A73-4306-B552-CD94CB83B995";
name = "Oct 1, 23, 18:38";
shapes = (
{
closed = 1;
nodes = (
(124,-5,o),
(160,16,o),
(176,33,c),
(189,314,o),
(260,597,o),
(279,657,c),
(268,705,o),
(236,723,o),
(202,723,cs),
(162,723,o),
(119,698,o),
(107,664,cs),
(85,605,o),
(19,203,o),
(19,113,cs),
(19,21,o),
(53,-5,o),
(90,-5,cs)
);
}
);
width = 268;
}
);
metricLeft = "=30";
metricRight = "=25";
unicode = 73;
userData = {
KernOnName = I;
};
}
{
glyphname = J;
lastChange = "2024-12-05 18:06:48 +0000";
layers = (
{
anchors = (
{
name = bottom;
pos = (253,0);
},
{
name = top;
pos = (315,710);
}
);
layerId = "CDFC0212-EC7A-4000-86F8-EA19B9E6D7F9";
name = Regular;
shapes = (
{
closed = 1;
nodes = (
(297,-139,o),
(416,-46,o),
(416,204,cs),
(416,284,o),
(404,370,o),
(404,444,cs),
(404,481,o),
(407,514,o),
(417,538,c),
(436,531,o),
(451,529,o),
(464,529,cs),
(528,529,o),
(555,582,o),
(555,633,cs),
(555,683,o),
(530,726,o),
(476,726,cs),
(454,726,o),
(415,719,o),
(369,665,c),
(293,713,o),
(229,732,o),
(177,732,cs),
(76,732,o),
(22,662,o),
(22,591,cs),
(22,519,o),
(79,446,o),
(200,446,c),
(181,474,o),
(173,503,o),
(173,528,cs),
(173,576,o),
(203,611,o),
(246,611,cs),
(271,611,o),
(296,599,o),
(313,587,c),
(265,522,o),
(254,450,o),
(254,331,cs),
(254,52,o),
(193,-14,o),
(121,-14,cs),
(90,-14,o),
(58,-2,o),
(27,21,c),
(15,15,l),
(15,-74,o),
(98,-139,o),
(189,-139,cs)
);
}
);
width = 532;
},
{
associatedMasterId = "CDFC0212-EC7A-4000-86F8-EA19B9E6D7F9";
layerId = "5F7887A7-0944-4B5F-B72C-0609E905FA7D";
name = "May 25, 23, 12:33";
shapes = (
{
closed = 1;
nodes = (
(167.615,-114.383,o),
(51.984,346.836,o),
(246.661,483.448,c),
(220.581,481.419,o),
(185.904,493.1,o),
(162.025,493.1,cs),
(114.14,493.1,o),
(82.646,439.505,o),
(134.558,374.369,c),
(43.957,324.64,o),
(-30.003,409.248,o),
(-30.003,486.683,cs),
(-30.003,547.893,o),
(13.133,606.619,o),
(111.363,606.619,cs),
(207.727,606.619,o),
(238.478,556.859,o),
(305.158,556.859,cs),
(325.484,556.859,o),
(345.234,607.954,o),
(362.223,619.59,c),
(399.404,610.417,o),
(434.677,538.853,o),
(423.344,507.191,c),
(287.625,485.375,o),
(285.093,307.198,o),
(285.093,185.133,cs),
(285.093,-78.102,o),
(193.606,-171.104,o),
(70.483,-171.104,cs),
(-147.935,-171.104,o),
(-153.042,49.183,o),
(34.363,49.183,c),
(4.881,-13.286,o),
(3.957,-114.383,o),
(62.217,-114.383,cs)
);
}
);
width = 392.71;
},
{
associatedMasterId = "CDFC0212-EC7A-4000-86F8-EA19B9E6D7F9";
layerId = "14930F0A-615D-4253-8021-1889562487D2";
name = "May 25, 23, 12:38";
shapes = (
{
closed = 1;
nodes = (
(150.615,-114.383,o),
(106.371,390.371,o),
(212.462,489.191,c),
(163.278,539.002,o),
(110.812,473.408,o),
(110.812,391,c),
(-116.153,391,o),
(-15.661,737.512,o),
(264.227,548.859,c),
(429.415,728.956,o),
(480.916,359.616,o),
(305.158,454.883,c),
(259.763,391,o),
(285.093,266.248,o),
(285.093,167.133,cs),
(285.093,-96.102,o),
(193.606,-171.104,o),
(70.483,-171.104,cs),
(-147.935,-171.104,o),
(-153.042,49.183,o),
(34.363,49.183,c),
(4.881,-13.286,o),
(3.957,-114.383,o),
(45.217,-114.383,cs)
);
}
);
width = 392.71;
},
{
associatedMasterId = "CDFC0212-EC7A-4000-86F8-EA19B9E6D7F9";
layerId = "1AE9A47C-68F4-4352-BF4E-9C87C8EA9C25";
name = "Jun 7, 23, 12:16";
shapes = (
{
closed = 1;
nodes = (
(406,-256,o),
(406,206,cs),
(406,284,o),
(394,370,o),
(394,443,cs),
(394,493,o),
(399,534,o),
(418,558,c),
(368,556,l),
(409,534,o),
(432,529,o),
(457,529,cs),
(518,529,o),
(545,582,o),
(545,633,cs),
(545,683,o),
(520,726,o),
(473,726,cs),
(438,726,o),
(387,716,o),
(327,621,c),
(393,642,l),
(309,703,o),
(220,727,o),
(163,727,cs),
(69,727,o),
(17,658,o),
(17,589,cs),
(17,523,o),
(68,446,o),
(170,446,c),
(161,470,o),
(157,493,o),
(157,513,cs),
(157,573,o),
(191,609,o),
(234,609,cs),
(258,609,o),
(307,599,o),
(325,566,c),
(313,609,l),
(250,536,o),
(238,480,o),
(238,227,cs),
(238,55,o),
(161,-17,o),
(83,-17,cs),
(59,-17,o),
(35,-3,o),
(17,21,c),
(5,15,l),
(5,-182,o)
);
}
);
width = 515;
},
{
anchors = (
{
name = bottom;
pos = (253,0);
},
{
name = top;
pos = (315,710);
}
);
associatedMasterId = "CDFC0212-EC7A-4000-86F8-EA19B9E6D7F9";
layerId = "CEA67429-5693-47FF-BF08-1F665464E746";
name = "Aug 29, 23, 12:45";
shapes = (
{
closed = 1;
nodes = (
(90,-14,o),
(58,-2,o),
(27,21,c),
(15,15,l),
(15,-182,o),
(416,-256,o),
(416,206,cs),
(416,284,o),
(404,370,o),
(404,443,cs),
(404,493,o),
(409,534,o),
(428,558,c),
(378,556,l),
(419,534,o),
(442,529,o),
(467,529,cs),
(528,529,o),
(555,582,o),
(555,633,cs),
(555,683,o),
(530,726,o),
(483,726,cs),
(448,726,o),
(397,716,o),
(337,621,c),
(403,642,l),
(5,926,o),
(-111,446,o),
(200,446,c),
(146,529,o),
(180,611,o),
(248,611,cs),
(285,611,o),
(327,580,o),
(335,566,c),
(331,609,l),
(268,536,o),
(254,480,o),
(254,185,cs),
(254,52,o),
(193,-14,o),
(120,-14,cs)
);
}
);
width = 550;
},
{
anchors = (
{
name = bottom;
pos = (253,0);
},
{
name = top;
pos = (315,710);
}
);
associatedMasterId = "CDFC0212-EC7A-4000-86F8-EA19B9E6D7F9";
layerId = "17739A24-FAA6-491F-A2EB-0A978E3C361C";
name = "Oct 1, 23, 18:39";
shapes = (
{
closed = 1;
nodes = (
(90,-14,o),
(58,-2,o),
(27,21,c),
(15,15,l),
(15,-74,o),
(98,-139,o),
(188,-139,cs),
(297,-139,o),
(416,-46,o),
(416,206,cs),
(416,284,o),
(404,370,o),
(404,443,cs),
(404,481,o),
(407,514,o),
(417,538,c),
(436,531,o),
(451,529,o),
(467,529,cs),
(528,529,o),
(555,582,o),
(555,633,cs),
(555,683,o),
(530,726,o),
(483,726,cs),
(454,726,o),
(415,719,o),
(369,665,c),
(293,713,o),
(229,732,o),
(176,732,cs),
(76,732,o),
(22,662,o),
(22,591,cs),
(22,519,o),
(79,446,o),
(200,446,c),
(181,474,o),
(173,503,o),
(173,528,cs),
(173,576,o),
(203,611,o),
(248,611,cs),
(271,611,o),
(296,599,o),
(313,587,c),
(265,522,o),
(254,450,o),
(254,185,cs),
(254,52,o),
(193,-14,o),
(120,-14,cs)
);
}
);
width = 532;
}
);
unicode = 74;
userData = {
KernOnName = J;
};
}
{
glyphname = L;
lastChange = "2024-12-05 18:06:48 +0000";
layers = (
{
associatedMasterId = "CDFC0212-EC7A-4000-86F8-EA19B9E6D7F9";
layerId = "77135F9F-3571-4160-9F97-5C2BC58B408B";
name = "Jun 6, 23, 09:14";
shapes = (
{
closed = 1;
nodes = (
(145,75,l),
(252,69,o),
(414,-26,o),
(493,-26,cs),
(628,-26,o),
(641,130,o),
(574,174,c),
(523,113,o),
(309,201,o),
(192,211,c)
);
},
{
closed = 1;
nodes = (
(219,178,l),
(-134,443,o),
(-78,-235,o),
(221,114,c)
);
},
{
closed = 1;
nodes = (
(311,303,o),
(311,444,cs),
(311,629,o),
(506,600,o),
(476,434,c),
(482,432,l),
(775,703,o),
(158,919,o),
(158,443,cs),
(158,333,o),
(142,254,o),
(95,179,c),
(234,175,l),
(234,176,o),
(233,178,o),
(234,179,cs),
(288,248,o)
);
}
);
width = 600;
},
{
associatedMasterId = "CDFC0212-EC7A-4000-86F8-EA19B9E6D7F9";
layerId = "E39431CC-9DBC-4905-AC77-5AD6108EAC99";
name = "Jun 7, 23, 12:04";
shapes = (
{
closed = 1;
nodes = (
(160,75,l),
(267,69,o),
(370,-137,o),
(538,-137,cs),
(673,-137,o),
(686,19,o),
(619,63,c),
(498,-58,o),
(409,211,o),
(207,211,c)
);
},
{
closed = 1;
nodes = (
(234,178,l),
(-119,443,o),
(-63,-235,o),
(236,114,c)
);
},
{
closed = 1;
nodes = (
(326,261,o),
(326,404,cs),
(326,641,o),
(541,606,o),
(511,434,c),
(517,432,l),
(810,703,o),
(173,919,o),
(173,443,cs),
(173,333,o),
(157,254,o),
(110,179,c),
(259,151,l),
(259,152,o)
);
}
);
width = 638;
},
{
anchors = (
{
name = bottom;
pos = (265,0);
},
{
name = center;
pos = (338,387);
},
{
name = top;
pos = (300,710);
},
{
name = topright;
pos = (441,720);
}
);
layerId = "CDFC0212-EC7A-4000-86F8-EA19B9E6D7F9";
name = Regular;
shapes = (
{
closed = 1;
nodes = (
(560,-7,o),
(596,58,o),
(596,118,cs),
(596,154,o),
(583,189,o),
(557,206,c),
(521,163,o),
(480,150,o),
(436,150,cs),
(379,150,o),
(318,172,o),
(260,186,c),
(309,312,o),
(361,524,o),
(361,619,cs),
(361,695,o),
(328,725,o),
(283,725,cs),
(242,725,o),
(200,700,o),
(184,657,c),
(185,654,l),
(192,642,o),
(194,635,o),
(194,608,cs),
(194,507,o),
(167,339,o),
(129,223,c),
(117,226,o),
(106,227,o),
(97,227,cs),
(29,227,o),
(-2,170,o),
(-2,113,cs),
(-2,56,o),
(29,-2,o),
(87,-2,cs),
(118,-2,o),
(157,14,o),
(203,57,c),
(301,42,o),
(406,-7,o),
(478,-7,cs)
);
}
);
width = 624;
},
{
associatedMasterId = "CDFC0212-EC7A-4000-86F8-EA19B9E6D7F9";
layerId = "DF2FDBE0-C12C-4EA3-AA67-40761B278535";
name = "Jun 8, 23, 11:36";
shapes = (
{
closed = 1;
nodes = (
(226,153,l),
(278.347,261.423,o),
(346,501,o),
(348,614,cs),
(350,693,o),
(306,725,o),
(260,725,cs),
(219,725,o),
(177,700,o),
(161,657,c),
(162,654,l),
(170,640,o),
(172,632,o),
(171,584,cs),
(169,475,o),
(130,284,o),
(85,179,c)
);
},
{
closed = 1;
nodes = (
(145.078,75,l),
(251.973,69,o),
(384,-6,o),
(463,-6,cs),
(598,-6,o),
(611,163,o),
(544,207,c),
(447,91,o),
(293.4,201,o),
(176.4,211,c)
);
},
{
closed = 1;
nodes = (
(218.688,178,l),
(-134.499,443,o),
(-78.333,-235,o),
(220.758,114,c)
);
}
);
width = 600;
},
{
anchors = (
{
name = bottom;
pos = (290,0);
},
{
name = center;
pos = (322,360);
},
{
name = top;
pos = (323,720);
},
{
name = topright;
pos = (474,720);
}
);
associatedMasterId = "CDFC0212-EC7A-4000-86F8-EA19B9E6D7F9";
layerId = "33E5F3BF-4300-4716-8070-7037F6A56D68";
name = "Aug 6, 23, 20:50";
shapes = (
{
closed = 1;
nodes = (
(110,165,l),
(155,270,o),
(194,475,o),
(196,584,cs),
(197,632,o),
(195,640,o),
(187,654,c),
(186,657,l),
(202,700,o),
(244,725,o),
(285,725,cs),
(331,725,o),
(365,693,o),
(363,614,cs),
(361,501,o),
(294,247,o),
(241,139,c)
);
},
{
closed = 1;
nodes = (
(-53,-249,o),
(-109,429,o),
(244,164,c),
(246,100,l)
);
},
{
closed = 1;
nodes = (
(399,-7,o),
(277,55,o),
(170,61,c),
(202,197,l),
(319,187,o),
(462,90,o),
(559,206,c),
(626,162,o),
(613,-7,o),
(478,-7,cs)
);
}
);
width = 623;
},
{
anchors = (
{
name = bottom;
pos = (270,0);
},
{
name = center;
pos = (321,355);
},
{
name = top;
pos = (302,710);
},
{
name = topright;
pos = (643,710);
}
);
associatedMasterId = "CDFC0212-EC7A-4000-86F8-EA19B9E6D7F9";
layerId = "F85C611F-302C-4404-B4C1-2BFE52161003";
name = "Aug 29, 23, 12:45";
shapes = (
{
closed = 1;
nodes = (
(613,-7,o),
(626,162,o),
(559,206,c),
(478,109,o),
(365,161,o),
(262,186,c),
(310,309,o),
(361,515,o),
(363,614,cs),
(365,693,o),
(331,725,o),
(285,725,cs),
(244,725,o),
(202,700,o),
(186,657,c),
(187,654,l),
(195,640,o),
(197,632,o),
(196,584,cs),
(194,493,o),
(167,334,o),
(131,223,c),
(-79,274,o),
(-23,-155,o),
(205,57,c),
(303,42,o),
(408,-7,o),
(478,-7,cs)
);
}
);
width = 623;
}
);
unicode = 76;
userData = {
KernOnName = L;
};
}
{
glyphname = Q;
lastChange = "2024-12-05 18:06:48 +0000";
layers = (
{
associatedMasterId = "CDFC0212-EC7A-4000-86F8-EA19B9E6D7F9";
layerId = "C3E6BFA4-2D4F-4EB0-A1CA-E26BF668C52B";
name = "May 30, 23, 12:53";
shapes = (
{
ref = O;
},
{
closed = 1;
nodes = (
(625.872,-137.864,o),
(599.912,-68.51,o),
(515.219,-68.51,cs),
(428.219,-68.51,o),
(247.461,-81.919,o),
(173.601,-81.919,cs),
(122.899,-81.919,o),
(125.512,-35.149,o),
(163.339,-17.076,c),
(160.615,-9.488,l),
(81.6,-2.663,o),
(10.219,-63.902,o),
(10.219,-123.975,cs),
(10.219,-175.971,o),
(23.296,-237.879,o),
(100.111,-237.879,cs),
(183.11,-237.879,o),
(408.246,-220.327,o),
(464.38,-230.225,cs),
(509.659,-238.209,o),
(500.308,-277.005,o),
(472.73,-286.53,c),
(473.484,-293.771,l),
(546.359,-306.621,o),
(606.249,-249.148,o),
(616.842,-189.074,cs)
);
}
);
width = 707.05;
},
{
associatedMasterId = "CDFC0212-EC7A-4000-86F8-EA19B9E6D7F9";
layerId = "1F192130-08C6-4261-BC9A-DE68245E632E";
name = "May 30, 23, 13:36";
shapes = (
{
locked = 1;
ref = O;
},
{
closed = 1;
nodes = (
(260.467,26.811,l),
(401.476,516.306,o),
(321.077,-200,o),
(537.07,-200,cs),
(618.802,-200,o),
(682.229,-109.822,o),
(682.229,32.695,c),
(671.51,33.789,l),
(522.535,-283.663,o),
(593.089,278.211,o),
(393.725,278.211,cs),
(282.78,278.211,o),
(252.412,164.225,o),
(252.412,29.811,c)
);
}
);
width = 707.05;
},
{
anchors = (
{
name = bottom;
pos = (308,0);
},
{
name = center;
pos = (339,355);
},
{
name = ogonek;
pos = (471,10);
},
{
name = top;
pos = (370,710);
},
{
name = topleft;
pos = (56,710);
},
{
name = topright;
pos = (684,710);
}
);
layerId = "CDFC0212-EC7A-4000-86F8-EA19B9E6D7F9";
name = Regular;
shapes = (
{
closed = 1;
nodes = (
(601,-112,o),
(637,-64,o),
(658,2,c),
(654,10,l),
(628,9,o),
(604,9,o),
(581,9,cs),
(516,9,o),
(465,13,o),
(421,23,c),
(565,91,o),
(644,266,o),
(644,424,cs),
(644,583,o),
(564,726,o),
(387,726,cs),
(161,726,o),
(31,497,o),
(31,295,cs),
(31,135,o),
(112,-7,o),
(288,-7,cs),
(305,-7,o),
(321,-5,o),
(337,-3,c),
(355,-79,o),
(417,-141,o),
(541,-141,c)
);
},
{
closed = 1;
nodes = (
(249,120,o),
(210,221,o),
(210,331,cs),
(210,460,o),
(263,600,o),
(364,600,cs),
(433,600,o),
(466,501,o),
(466,392,cs),
(466,262,o),
(418,120,o),
(328,120,cs)
);
}
);
width = 665;
},
{
associatedMasterId = "CDFC0212-EC7A-4000-86F8-EA19B9E6D7F9";
layerId = "0E18A52A-1FAB-4920-9972-3ADE27BE0E50";
name = "May 30, 23, 13:37";
shapes = (
{
ref = O;
},
{
closed = 1;
nodes = (
(16.419,-113.383,o),
(100.348,-36.602,o),
(211.294,-36.602,cs),
(410.658,-36.602,o),
(585,-234.57,o),
(652.2,-49.023,c),
(662.919,-50.117,l),
(662.919,-192.634,o),
(613.02,-282.812,o),
(503.225,-282.812,cs),
(287.231,-282.812,o),
(151.792,-77.356,o),
(24.473,-250.797,c),
(16.419,-247.797,l)
);
}
);
width = 707.05;
},
{
associatedMasterId = "CDFC0212-EC7A-4000-86F8-EA19B9E6D7F9";
layerId = "B551CBF5-4020-4052-B44C-722F2523DC94";
name = "Jun 21, 23, 19:48";
shapes = (
{
pos = (-1.42,0);
ref = O;
},
{
closed = 1;
nodes = (
(38,-181,l),
(165,-7,o),
(301,-213,o),
(517,-213,cs),
(627,-213,o),
(676,-123,o),
(676,20,c),
(666,21,l),
(599,-165,o),
(424,33,o),
(225,33,cs),
(114,33,o),
(30,-43,o),
(30,-178,c)
);
}
);
width = 676.5;
},
{
anchors = (
{
name = bottom;
pos = (312,0);
},
{
name = top;
pos = (374,710);
}
);
associatedMasterId = "CDFC0212-EC7A-4000-86F8-EA19B9E6D7F9";
layerId = "90E016C0-3FB3-466E-85C5-D07B8F6CFDFB";
name = "Aug 29, 23, 12:45";
shapes = (
{
closed = 1;
nodes = (
(605,-112,o),
(641,-64,o),
(662,2,c),
(658,10,l),
(508,5,o),
(426,13,o),
(347,49,c),
(335,36,l),
(340,-57,o),
(401,-141,o),
(545,-141,c)
);
},
{
locked = 1;
ref = O;
}
);
width = 668;
},
{
anchors = (
{
name = bottom;
pos = (308,0);
},
{
name = center;
pos = (339,355);
},
{
name = ogonek;
pos = (471,10);
},
{
name = top;
pos = (370,710);
},
{
name = topleft;
pos = (56,710);
},
{
name = topright;
pos = (684,710);
}
);
associatedMasterId = "CDFC0212-EC7A-4000-86F8-EA19B9E6D7F9";
layerId = "59BB0A8E-8500-4FD4-97EA-731625644D87";
name = "Oct 1, 23, 18:42";
shapes = (
{
closed = 1;
nodes = (
(601,-112,o),
(637,-64,o),
(658,2,c),
(654,10,l),
(628,9,o),
(604,9,o),
(581,9,cs),
(516,9,o),
(465,13,o),
(421,23,c),
(565,91,o),
(644,266,o),
(644,424,cs),
(644,583,o),
(564,726,o),
(387,726,cs),
(161,726,o),
(31,497,o),
(31,295,cs),
(31,135,o),
(112,-7,o),
(288,-7,cs),
(305,-7,o),
(321,-5,o),
(337,-3,c),
(355,-79,o),
(417,-141,o),
(541,-141,c)
);
},
{
closed = 1;
nodes = (
(249,120,o),
(210,221,o),
(210,331,cs),
(210,460,o),
(263,600,o),
(364,600,cs),
(433,600,o),
(466,501,o),
(466,392,cs),
(466,262,o),
(418,120,o),
(328,120,cs)
);
}
);
width = 665;
}
);
unicode = 81;
userData = {
KernOnName = Q;
};
}
{
glyphname = R;
lastChange = "2024-12-05 18:06:48 +0000";
layers = (
{
anchors = (
{
name = bottom;
pos = (311,0);
},
{
name = top;
pos = (373,710);
}
);
layerId = "CDFC0212-EC7A-4000-86F8-EA19B9E6D7F9";
shapes = (
{
closed = 1;
nodes = (
(576,-7,o),
(628,57,o),
(628,141,cs),
(628,157,o),
(626,176,o),
(620,196,c),
(614,199,l),
(603,172,o),
(589,162,o),
(567,162,cs),
(523,162,o),
(501,204,o),
(482,241,cs),
(461,282,o),
(443,316,o),
(415,337,c),
(536,346,o),
(614,446,o),
(614,543,cs),
(614,636,o),
(541,726,o),
(372,726,cs),
(200,726,o),
(50,633,o),
(50,473,c),
(56,471,l),
(93,539,o),
(131,579,o),
(157,579,cs),
(169,579,o),
(174,570,o),
(174,554,cs),
(174,475,o),
(55,235,o),
(55,103,cs),
(55,25,o),
(97,-4,o),
(144,-4,cs),
(174,-4,o),
(206,8,o),
(230,31,c),
(234,146,o),
(250,231,o),
(275,333,c),
(299,298,o),
(317,249,o),
(341,182,cs),
(372,98,o),
(410,-7,o),
(503,-7,cs)
);
},
{
closed = 1;
nodes = (
(315,425,o),
(307,426,o),
(298,427,c),
(306,465,o),
(311,527,o),
(311,588,cs),
(311,588,o),
(311,598,o),
(310,608,c),
(321,609,o),
(332,610,o),
(343,610,cs),
(413,610,o),
(443,573,o),
(443,532,cs),
(443,482,o),
(397,425,o),
(325,425,cs)
);
}
);
width = 664;
},
{
associatedMasterId = "CDFC0212-EC7A-4000-86F8-EA19B9E6D7F9";
layerId = "D0A87BF4-2699-487F-A2DF-2B65E0B417DB";
name = "Jun 15, 23, 13:20";
shapes = (
{
closed = 1;
nodes = (
(594,-7,o),
(651,89,o),
(620,196,c),
(614,199,l),
(603,172,o),
(589,162,o),
(567,162,cs),
(472,162,o),
(481,357,o),
(354,357,c),
(363,328,l),
(652,353,o),
(738,733,o),
(365,733,cs),
(200,733,o),
(50,633,o),
(50,473,c),
(56,471,l),
(93,539,o),
(131,579,o),
(156,579,cs),
(228,579,o),
(59,273,o),
(55,96,cs),
(52,-15,o),
(169,-25,o),
(230,33,c),
(234,148,o),
(250,231,o),
(275,333,c),
(346,229,o),
(366,-7,o),
(498,-7,cs)
);
},
{
closed = 1;
nodes = (
(401,636,o),
(459,592,o),
(459,539,cs),
(459,477,o),
(379,401,o),
(257,415,c),
(289,398,l),
(307,428,o),
(317,591,o),
(306,634,c),
(258,607,l)
);
}
);
width = 655;
},
{
associatedMasterId = "CDFC0212-EC7A-4000-86F8-EA19B9E6D7F9";
layerId = "B09B8C45-332B-427C-B518-BC826EB1E67F";
name = "Jun 21, 23, 14:41";
shapes = (
{
closed = 1;
nodes = (
(594,-7,o),
(651,89,o),
(620,196,c),
(614,199,l),
(603,172,o),
(589,162,o),
(567,162,cs),
(472,162,o),
(481,357,o),
(354,357,c),
(293,357,l),
(602,232,o),
(738,733,o),
(365,733,cs),
(200,733,o),
(50,633,o),
(50,473,c),
(56,471,l),
(93,539,o),
(131,579,o),
(156,579,cs),
(228,579,o),
(59,271,o),
(55,94,cs),
(52,-17,o),
(169,-27,o),
(230,31,c),
(234,146,o),
(250,231,o),
(275,333,c),
(346,229,o),
(366,-7,o),
(498,-7,cs)
);
},
{
closed = 1;
nodes = (
(540,686,o),
(465,366,o),
(267,435,c),
(289,398,l),
(307,428,o),
(317,591,o),
(306,634,c),
(258,607,l)
);
}
);
width = 655;
},
{
anchors = (
{
name = bottom;
pos = (314,0);
},
{
name = top;
pos = (376,710);
}
);
associatedMasterId = "CDFC0212-EC7A-4000-86F8-EA19B9E6D7F9";
layerId = "6676D011-3F38-4986-BC07-E6D3D7B5C01D";
name = "Aug 29, 23, 12:45";
shapes = (
{
closed = 1;
nodes = (
(597,-7,o),
(654,89,o),
(623,196,c),
(617,199,l),
(606,172,o),
(592,162,o),
(570,162,cs),
(475,162,o),
(484,357,o),
(357,357,c),
(296,357,l),
(625,232,o),
(781,726,o),
(368,726,cs),
(203,726,o),
(53,633,o),
(53,473,c),
(59,471,l),
(96,539,o),
(134,579,o),
(159,579,cs),
(231,579,o),
(62,271,o),
(58,94,cs),
(55,-17,o),
(172,-27,o),
(233,31,c),
(237,146,o),
(253,231,o),
(278,333,c),
(349,229,o),
(369,-7,o),
(501,-7,cs)
);
},
{
closed = 1;
nodes = (
(310,428,o),
(320,591,o),
(309,634,c),
(261,597,l),
(543,676,o),
(468,366,o),
(270,435,c),
(292,398,l)
);
}
);
width = 672;
},
{
anchors = (
{
name = bottom;
pos = (311,0);
},
{
name = top;
pos = (373,710);
}
);
associatedMasterId = "CDFC0212-EC7A-4000-86F8-EA19B9E6D7F9";
layerId = "7A425CDD-CE44-4E7D-93B3-B368BE9E788C";
name = "Oct 1, 23, 18:42";
shapes = (
{
closed = 1;
nodes = (
(576,-7,o),
(628,57,o),
(628,138,cs),
(628,157,o),
(626,176,o),
(620,196,c),
(614,199,l),
(603,172,o),
(589,162,o),
(567,162,cs),
(491,162,o),
(481,288,o),
(415,337,c),
(536,346,o),
(614,446,o),
(614,543,cs),
(614,636,o),
(541,726,o),
(365,726,cs),
(200,726,o),
(50,633,o),
(50,473,c),
(56,471,l),
(93,539,o),
(131,579,o),
(156,579,cs),
(169,579,o),
(174,570,o),
(174,553,cs),
(174,475,o),
(55,235,o),
(55,89,cs),
(55,25,o),
(97,-4,o),
(144,-4,cs),
(174,-4,o),
(206,8,o),
(230,31,c),
(234,146,o),
(250,231,o),
(275,333,c),
(346,229,o),
(366,-7,o),
(498,-7,cs)
);
},
{
closed = 1;
nodes = (
(306,465,o),
(311,527,o),
(311,576,cs),
(311,588,o),
(311,598,o),
(310,608,c),
(321,609,o),
(332,610,o),
(341,610,cs),
(413,610,o),
(443,573,o),
(443,532,cs),
(443,482,o),
(397,425,o),
(323,425,cs),
(315,425,o),
(307,426,o),
(298,427,c)
);
}
);
width = 664;
}
);
unicode = 82;
userData = {
KernOnName = R;
};
}
{
glyphname = T;
lastChange = "2024-12-05 18:06:48 +0000";
layers = (
{
anchors = (
{
name = bottom;
pos = (266,0);
},
{
name = center;
pos = (297,355);
},
{
name = top;
pos = (328,710);
}
);
layerId = "CDFC0212-EC7A-4000-86F8-EA19B9E6D7F9";
shapes = (
{
closed = 1;
nodes = (
(284,-4,o),
(319,8,o),
(343,33,c),
(346,230,o),
(371,430,o),
(394,551,c),
(435,545,o),
(474,540,o),
(499,540,cs),
(580,540,o),
(610,593,o),
(610,643,cs),
(610,680,o),
(593,715,o),
(564,725,c),
(544,701,o),
(504,693,o),
(456,693,cs),
(367,693,o),
(251,720,o),
(171,720,cs),
(61,720,o),
(38,668,o),
(38,542,c),
(69,569,o),
(114,578,o),
(170,578,cs),
(188,578,o),
(212,577,o),
(236,574,c),
(214,439,o),
(181,209,o),
(176,60,c),
(174,17,o),
(211,-4,o),
(253,-4,cs)
);
}
);
width = 591;
},
{
associatedMasterId = "CDFC0212-EC7A-4000-86F8-EA19B9E6D7F9";
layerId = "FB0272C2-DE95-4400-832C-C744005D3700";
name = "Jun 1, 23, 11:53";
shapes = (
{
closed = 1;
nodes = (
(243.316,628.068,l),
(276.795,440.872,o),
(196.51,258.11,o),
(196.51,127.013,cs),
(196.51,-46.521,o),
(413.044,-37.07,o),
(413.044,129.259,c),
(343.747,215.706,o),
(454.45,445.43,o),
(423.079,632.596,c)
);
},
{
closed = 1;
nodes = (
(129.866,620.136,o),
(382.939,535.16,o),
(556.965,535.16,cs),
(679.128,535.16,o),
(678.753,702.084,o),
(610.707,725.16,c),
(553.27,655.814,o),
(296.341,720.07,o),
(187.469,720.07,cs),
(57.597,720.07,o),
(35.004,663.355,o),
(35.004,537.358,c)
);
}
);
width = 631.59;
},
{
associatedMasterId = "CDFC0212-EC7A-4000-86F8-EA19B9E6D7F9";
layerId = "39A2F125-1558-4BBA-8704-1BA23745E83C";
name = "Jun 9, 23, 17:54";
shapes = (
{
closed = 1;
nodes = (
(124.866,620.136,o),
(377.939,535.16,o),
(551.965,535.16,cs),
(674.128,535.16,o),
(673.753,702.084,o),
(605.707,725.16,c),
(548.27,655.814,o),
(291.341,720.07,o),
(182.469,720.07,cs),
(52.597,720.07,o),
(30.004,663.355,o),
(30.004,537.358,c)
);
},
{
closed = 1;
nodes = (
(253.045,600.533,l),
(231.98,473.834,o),
(192.853,225.479,o),
(187.762,73.687,cs),
(184.883,-12.164,o),
(307.999,-21.544,o),
(364.332,36.417,c),
(366.646,248.951,o),
(395.648,458.723,o),
(420.883,574.334,c)
);
}
);
width = 626.59;
},
{
associatedMasterId = "CDFC0212-EC7A-4000-86F8-EA19B9E6D7F9";
layerId = "08FBD558-C0C2-4C2F-A76D-91C59F6FA4E1";
name = "Jun 21, 23, 15:17";
shapes = (
{
closed = 1;
nodes = (
(125,625,o),
(358,540,o),
(532,540,cs),
(654,540,o),
(654,702,o),
(586,725,c),
(528,656,o),
(291,720,o),
(182,720,cs),
(53,720,o),
(30,668,o),
(30,542,c)
);
},
{
closed = 1;
nodes = (
(243,606,l),
(222,479,o),
(183,222,o),
(178,71,cs),
(175,-15,o),
(289,-25,o),
(345,33,c),
(348,246,o),
(377,464,o),
(402,579,c)
);
}
);
width = 607;
},
{
anchors = (
{
name = bottom;
pos = (286,0);
},
{
name = center;
pos = (317,355);
},
{
name = top;
pos = (348,710);
}
);
associatedMasterId = "CDFC0212-EC7A-4000-86F8-EA19B9E6D7F9";
layerId = "3BD9F06D-80DB-4C5B-95BF-24B7173B346D";
name = "Aug 29, 23, 12:45";
shapes = (
{
closed = 1;
nodes = (
(366,246,o),
(395,464,o),
(420,579,c),
(261,606,l),
(240,479,o),
(201,222,o),
(196,60,cs),
(193,-15,o),
(307,-25,o),
(363,33,c)
);
},
{
closed = 1;
nodes = (
(652,540,o),
(652,702,o),
(584,725,c),
(526,656,o),
(309,720,o),
(200,720,cs),
(81,720,o),
(58,668,o),
(58,542,c),
(153,625,o),
(376,540,o),
(530,540,cs)
);
}
);
width = 615;
}
);
unicode = 84;
userData = {
KernOnName = T;
};
}
{
glyphname = U;
lastChange = "2024-12-05 18:06:48 +0000";
layers = (
{
anchors = (
{
name = bottom;
pos = (291,0);
},
{
name = ogonek;
pos = (644,10);
},
{
name = top;
pos = (378,710);
},
{
name = topright;
pos = (597,656);
}
);
layerId = "CDFC0212-EC7A-4000-86F8-EA19B9E6D7F9";
shapes = (
{
closed = 1;
nodes = (
(220,-4,o),
(318,62,o),
(391,209,c),
(399,54,o),
(446,-4,o),
(512,-4,cs),
(584,-4,o),
(645,64,o),
(645,193,c),
(637,197,l),
(624,158,o),
(603,139,o),
(582,139,cs),
(550,139,o),
(539,182,o),
(539,239,cs),
(539,284,o),
(546,337,o),
(555,384,c),
(629,462,o),
(656,542,o),
(656,604,cs),
(656,673,o),
(622,721,o),
(578,721,cs),
(515,721,o),
(431,623,o),
(400,347,c),
(356,266,o),
(293,169,o),
(239,169,cs),
(214,169,o),
(204,189,o),
(204,221,cs),
(204,310,o),
(281,492,o),
(281,603,cs),
(281,686,o),
(238,720,o),
(186,720,cs),
(111,720,o),
(24,649,o),
(18,532,c),
(28,528,l),
(39,560,o),
(65,582,o),
(84,582,cs),
(96,582,o),
(105,572,o),
(105,547,cs),
(105,474,o),
(31,278,o),
(31,154,cs),
(31,56,o),
(77,-4,o),
(147,-4,cs)
);
}
);
width = 676;
},
{
associatedMasterId = "CDFC0212-EC7A-4000-86F8-EA19B9E6D7F9";
layerId = "877B5F79-AEBD-44DA-BCFB-75BFE1F06E95";
name = "Jun 8, 23, 12:53";
shapes = (
{
closed = 1;
nodes = (
(419.539,364.47,o),
(520.761,501,o),
(480.911,633.356,c),
(481.442,643.011,l),
(535.845,759.575,o),
(683.086,746.262,o),
(674.49,581.114,cs),
(669.308,481.558,o),
(580.597,308.397,o),
(574.977,201.083,cs),
(572.377,151.427,o),
(596.896,116.915,o),
(625.187,116.915,cs),
(640.109,116.915,o),
(656.637,126.516,o),
(671.932,148.562,c),
(679.613,144.532,l),
(674.994,56.309,o),
(608.864,-1.849,o),
(537.161,-1.849,cs),
(468.119,-1.849,o),
(403.181,52.074,o),
(410.141,185,cs)
);
},
{
closed = 1;
nodes = (
(73.387,-47.926,o),
(73.387,143.097,cs),
(73.387,317.324,o),
(191.67,582.919,o),
(128.982,582.919,cs),
(104.957,582.919,o),
(81.201,562.292,o),
(69.904,530.347,c),
(60.002,533.881,l),
(66.013,648.673,o),
(140.776,719.496,o),
(234.398,719.871,cs),
(484.049,720.871,o),
(144.636,171.986,o),
(289.846,171.986,cs),
(325.416,171.986,o),
(430.656,292.096,o),
(470.114,448.244,c),
(502.107,354.944,l),
(337.366,-111.434,o)
);
}
);
width = 699.61;
},
{
anchors = (
{
name = bottom;
pos = (333,0);
},
{
name = ogonek;
pos = (618,10);
},
{
name = top;
pos = (395,710);
},
{
name = topright;
pos = (730,710);
}
);
associatedMasterId = "CDFC0212-EC7A-4000-86F8-EA19B9E6D7F9";
layerId = "18DF1364-4130-462D-BB5B-61E22404232B";
name = "Aug 29, 23, 12:45";
shapes = (
{
closed = 1;
nodes = (
(267,-4,o),
(407,110,o),
(475,368,c),
(415,258,l),
(415,66,o),
(464,-4,o),
(537,-4,cs),
(609,-4,o),
(670,64,o),
(670,193,c),
(662,197,l),
(649,158,o),
(628,139,o),
(609,139,cs),
(534,139,o),
(569,354,o),
(597,455,c),
(540,345,l),
(895,653,o),
(476,1040,o),
(419,278,c),
(474,444,l),
(451,393,o),
(344,169,o),
(267,169,cs),
(163,169,o),
(306,449,o),
(306,609,cs),
(306,686,o),
(263,720,o),
(210,720,cs),
(136,720,o),
(49,649,o),
(43,532,c),
(53,528,l),
(64,560,o),
(90,582,o),
(108,582,cs),
(121,582,o),
(130,572,o),
(130,549,cs),
(130,474,o),
(56,278,o),
(56,140,cs),
(56,56,o),
(102,-4,o),
(173,-4,cs)
);
}
);
width = 710;
},
{
anchors = (
{
name = bottom;
pos = (316,0);
},
{
name = ogonek;
pos = (669,10);
},
{
name = top;
pos = (403,710);
},
{
name = topright;
pos = (622,656);
}
);
associatedMasterId = "CDFC0212-EC7A-4000-86F8-EA19B9E6D7F9";
layerId = "12DF2746-EE5F-4E23-848D-E1B590E3000A";
name = "Oct 1, 23, 18:44";
shapes = (
{
closed = 1;
nodes = (
(245,-4,o),
(343,62,o),
(416,209,c),
(424,54,o),
(471,-4,o),
(537,-4,cs),
(609,-4,o),
(670,64,o),
(670,193,c),
(662,197,l),
(649,158,o),
(628,139,o),
(609,139,cs),
(575,139,o),
(564,182,o),
(564,240,cs),
(564,284,o),
(571,337,o),
(580,384,c),
(654,462,o),
(681,542,o),
(681,604,cs),
(681,673,o),
(647,721,o),
(603,721,cs),
(540,721,o),
(456,623,o),
(425,347,c),
(381,266,o),
(318,169,o),
(267,169,cs),
(239,169,o),
(229,189,o),
(229,221,cs),
(229,310,o),
(306,492,o),
(306,609,cs),
(306,686,o),
(263,720,o),
(210,720,cs),
(136,720,o),
(49,649,o),
(43,532,c),
(53,528,l),
(64,560,o),
(90,582,o),
(108,582,cs),
(121,582,o),
(130,572,o),
(130,549,cs),
(130,474,o),
(56,278,o),
(56,140,cs),
(56,56,o),
(102,-4,o),
(173,-4,cs)
);
}
);
width = 696;
}
);
metricLeft = "=18";
metricRight = "=20";
unicode = 85;
userData = {
KernOnName = U;
};
}
{
glyphname = bracketleft;
layers = (
{
background = {
shapes = (
{
closed = 1;
nodes = (
(436,-101,l),
(261,-65,o),
(192,3,o),
(262,356,cs),
(334,716,o),
(422,782,o),
(575,775,c),
(580,800,l),
(348,859,o),
(184,794,o),
(100,382,cs),
(10,-54,o),
(156,-158,o),
(430,-127,c)
);
}
);
};
layerId = "CDFC0212-EC7A-4000-86F8-EA19B9E6D7F9";
shapes = (
{
closed = 1;
nodes = (
(256,-130,o),
(316,-106,o),
(368,-60,c),
(360,-36,l),
(341,-41,o),
(319,-45,o),
(298,-45,cs),
(241,-45,o),
(217,-17,o),
(210,29,cs),
(207,45,o),
(206,66,o),
(206,86,cs),
(206,179,o),
(228,296,o),
(236,340,cs),
(270,542,o),
(265,759,o),
(382,759,cs),
(390,759,o),
(398,758,o),
(407,756,c),
(413,784,l),
(344,811,o),
(293,822,o),
(262,822,cs),
(115,822,o),
(122,578,o),
(97,409,cs),
(83,315,o),
(50,184,o),
(50,63,cs),
(50,42,o),
(51,17,o),
(54,-3,cs),
(68,-89,o),
(130,-130,o),
(201,-130,cs)
);
}
);
width = 433;
},
{
associatedMasterId = "CDFC0212-EC7A-4000-86F8-EA19B9E6D7F9";
layerId = "6F60AD81-FE84-438B-8893-1E27FE23E3EE";
name = "Jun 28, 23, 20:40";
shapes = (
{
closed = 0;
nodes = (
(234,324,l),
(262,656,o),
(333,739,o),
(490,739,c),
(501,801,l),
(265,799,o),
(134,736,o),
(96,351,c)
);
}
);
width = 600;
},
{
associatedMasterId = "CDFC0212-EC7A-4000-86F8-EA19B9E6D7F9";
layerId = "EC10777A-2D32-4054-9C40-1CB65001F613";
name = "Jul 7, 23, 13:39";
shapes = (
{
closed = 1;
nodes = (
(443,-101,l),
(268,-65,o),
(199,3,o),
(269,356,cs),
(341,716,o),
(429,782,o),
(582,775,c),
(587,800,l),
(355,859,o),
(191,794,o),
(107,382,cs),
(17,-54,o),
(163,-158,o),
(437,-127,c)
);
}
);
width = 487;
},
{
associatedMasterId = "CDFC0212-EC7A-4000-86F8-EA19B9E6D7F9";
background = {
shapes = (
{
closed = 1;
nodes = (
(443,-101,l),
(268,-65,o),
(199,3,o),
(269,356,cs),
(341,716,o),
(429,782,o),
(582,775,c),
(587,800,l),
(355,859,o),
(191,794,o),
(107,382,cs),
(17,-54,o),
(163,-158,o),
(437,-127,c)
);
}
);
};
layerId = "F11847DF-CA5D-45A2-8AB1-31EDF18DCCE2";
name = "Jul 7, 23, 13:45";
shapes = (
{
closed = 1;
nodes = (
(472,761,l),
(409,802,o),
(346,822,o),
(292,822,cs),
(196,822,o),
(126,759,o),
(126,634,cs),
(126,555,o),
(147,466,o),
(146,404,cs),
(143,314,o),
(20,126,o),
(34,-6,cs),
(42,-89,o),
(112,-130,o),
(190,-130,cs),
(254,-130,o),
(322,-95,o),
(397,-42,c),
(388,-23,l),
(374,-31,o),
(319,-45,o),
(292,-45,cs),
(228,-45,o),
(205,-17,o),
(200,27,cs),
(190,122,o),
(298,292,o),
(303,388,cs),
(306,451,o),
(286,551,o),
(286,633,cs),
(286,748,o),
(343,788,o),
(460,741,c)
);
}
);
width = 487;
},
{
associatedMasterId = "CDFC0212-EC7A-4000-86F8-EA19B9E6D7F9";
background = {
shapes = (
{
closed = 1;
nodes = (
(436,-101,l),
(261,-65,o),
(192,3,o),
(262,356,cs),
(334,716,o),
(422,782,o),
(575,775,c),
(580,800,l),
(348,859,o),
(184,794,o),
(100,382,cs),
(10,-54,o),
(156,-158,o),
(430,-127,c)
);
}
);
};
layerId = "DDB205B3-71AB-4B50-B0AE-C3A8047FD50E";
name = "Sep 30, 23, 19:08";
shapes = (
{
closed = 1;
nodes = (
(256,-130,o),
(316,-106,o),
(368,-60,c),
(360,-36,l),
(341,-41,o),
(319,-45,o),
(305,-45,cs),
(241,-45,o),
(217,-17,o),
(210,27,cs),
(195,122,o),
(224,274,o),
(244,388,cs),
(272,552,o),
(264,788,o),
(407,756,c),
(413,784,l),
(344,811,o),
(293,822,o),
(250,822,cs),
(115,822,o),
(122,578,o),
(96,404,cs),
(80,296,o),
(35,126,o),
(55,-6,cs),
(68,-89,o),
(130,-130,o),
(208,-130,cs)
);
}
);
width = 433;
}
);
unicode = 91;
userData = {
KernOnSpecialSpacing = {
L = NoKerning;
R = parenthesis;
};
};
}
{
glyphname = underscore;
layers = (
{
layerId = "CDFC0212-EC7A-4000-86F8-EA19B9E6D7F9";
shapes = (
{
closed = 1;
nodes = (
(599,-137,l),
(618,-117,o),
(627,-98,o),
(627,-78,cs),
(627,-69,o),
(625,-60,o),
(621,-51,c),
(-28,-51,l),
(-44,-68,o),
(-53,-88,o),
(-53,-112,cs),
(-53,-120,o),
(-52,-128,o),
(-50,-137,c)
);
}
);
width = 607;
},
{
associatedMasterId = "CDFC0212-EC7A-4000-86F8-EA19B9E6D7F9";
layerId = "8057A967-1A99-46BA-9125-B2812C198E75";
name = "Sep 30, 23, 19:08";
shapes = (
{
closed = 1;
nodes = (
(599,-137,l),
(626,-100,o),
(634,-64,o),
(621,-27,c),
(5,-27,l),
(-17,-56,o),
(-25,-92,o),
(-17,-137,c)
);
}
);
width = 607;
}
);
unicode = 95;
userData = {
KernOnSpecialSpacing = {
L = underscore;
R = underscore;
};
};
}
{
glyphname = e;
lastChange = "2024-12-05 18:09:29 +0000";
layers = (
{
anchors = (
{
name = bottom;
pos = (239,0);
},
{
name = ogonek;
pos = (383,10);
},
{
name = top;
pos = (313,500);
}
);
background = {
shapes = (
{
closed = 1;
nodes = (
(133,507,o),
(29,349,o),
(29,209,cs),
(29,64,o),
(127,-5,o),
(238,-5,cs),
(321,-5,o),
(411,33,o),
(471,106,c),
(448,139,l),
(445,130,o),
(377,88,o),
(314,88,cs),
(259,89,o),
(207,121,o),
(207,235,cs),
(207,348,o),
(255,415,o),
(292,415,cs),
(359,415,o),
(375,166,o),
(124,279,c),
(124,230,l),
(462,24,o),
(619,507,o),
(319,507,cs)
);
}
);
};
layerId = "CDFC0212-EC7A-4000-86F8-EA19B9E6D7F9";
name = Regular;
shapes = (
{
closed = 1;
nodes = (
(353,-7,o),
(482,47,o),
(482,185,c),
(475,190,l),
(447,147,o),
(379,109,o),
(320,109,cs),
(263,109,o),
(216,144,o),
(210,227,c),
(245,204,o),
(281,194,o),
(316,194,cs),
(415,194,o),
(501,276,o),
(501,372,cs),
(501,446,o),
(449,507,o),
(332,507,cs),
(142,507,o),
(28,347,o),
(28,205,cs),
(28,93,o),
(99,-7,o),
(245,-7,cs)
);
},
{
closed = 1;
nodes = (
(251,263,o),
(232,268,o),
(211,278,c),
(221,390,o),
(275,423,o),
(311,423,cs),
(342,423,o),
(360,399,o),
(360,369,cs),
(360,330,o),
(331,263,o),
(268,263,cs)
);
}
);
width = 521;
},
{
associatedMasterId = "CDFC0212-EC7A-4000-86F8-EA19B9E6D7F9";
background = {
shapes = (
{
closed = 1;
nodes = (
(140.253,507,o),
(35.857,349.48,o),
(35.744,209.012,cs),
(35.627,63.825,o),
(134.449,-4.541,o),
(245.294,-4.597,cs),
(328.063,-4.638,o),
(417.535,33.408,o),
(477.524,106,c),
(455.302,138.659,l),
(452.402,129.841,o),
(384.186,88.344,o),
(321.022,88.436,cs),
(265.542,88.518,o),
(213.96,120.686,o),
(213.96,235.27,cs),
(213.96,348.007,o),
(261.75,415.051,o),
(298.68,415.014,cs),
(366.149,414.947,o),
(381.991,165.871,o),
(130.72,278.752,c),
(131.088,230.197,l),
(468.919,23.727,o),
(626.401,507,o),
(325.553,507,cs)
);
}
);
};
layerId = "AA4A2CC7-01E9-4C40-A9F2-ED0EBF682B93";
name = "May 25, 23, 11:30";
shapes = (
{
closed = 1;
nodes = (
(316.271,236.759,o),
(366.596,312.244,o),
(366.596,366.471,cs),
(366.596,398.513,o),
(349.027,423.133,o),
(324.06,423.133,cs),
(277.821,423.133,o),
(216.96,383.29,o),
(216.96,242.868,cs),
(216.96,148.053,o),
(267.498,113.131,o),
(325.523,113.131,cs),
(385.775,113.131,o),
(454.101,150.706,o),
(482.302,193.659,c),
(489.228,188.963,l),
(489.228,50.687,o),
(359.519,-3.456,o),
(263.28,-3.456,cs),
(-91.12,-3.456,o),
(-9.847,507,o),
(348.553,507,cs),
(455.772,507,o),
(507.803,446.005,o),
(507.803,376.274,cs),
(507.803,283.233,o),
(415.17,174.64,o),
(237.406,174.64,cs),
(215.539,174.64,o),
(192.384,176.283,o),
(167.954,179.801,c),
(166.309,223.394,l)
);
}
);
width = 542.8;
},
{
associatedMasterId = "CDFC0212-EC7A-4000-86F8-EA19B9E6D7F9";
background = {
shapes = (
{
closed = 1;
nodes = (
(140.253,507,o),
(35.857,349.48,o),
(35.744,209.012,cs),
(35.627,63.825,o),
(134.449,-4.541,o),
(245.294,-4.597,cs),
(328.063,-4.638,o),
(417.535,33.408,o),
(477.524,106,c),
(455.302,138.659,l),
(452.402,129.841,o),
(384.186,88.344,o),
(321.022,88.436,cs),
(265.542,88.518,o),
(213.96,120.686,o),
(213.96,235.27,cs),
(213.96,348.007,o),
(261.75,415.051,o),
(298.68,415.014,cs),
(366.149,414.947,o),
(381.991,165.871,o),
(130.72,278.752,c),
(131.088,230.197,l),
(468.919,23.727,o),
(626.401,507,o),
(325.553,507,cs)
);
}
);
};
layerId = "651A776C-A8FC-4BB3-B30F-95B8C2704774";
name = "May 24, 23, 19:40";
shapes = (
{
closed = 1;
nodes = (
(316.271,236.759,o),
(366.596,312.244,o),
(366.596,366.471,cs),
(366.596,398.513,o),
(349.027,423.133,o),
(324.06,423.133,cs),
(277.821,423.133,o),
(216.96,375.692,o),
(216.96,235.27,cs),
(216.96,125.616,o),
(273.789,93.249,o),
(335.469,93.249,cs),
(397.385,93.249,o),
(464.189,125.864,o),
(483.302,145.659,c),
(505.524,113,l),
(440.939,34.847,o),
(348.548,-3.456,o),
(263.28,-3.456,cs),
(-91.12,-3.456,o),
(-9.847,507,o),
(348.553,507,cs),
(455.772,507,o),
(507.803,446.005,o),
(507.803,376.274,cs),
(507.803,283.233,o),
(415.17,174.64,o),
(237.406,174.64,cs),
(215.539,174.64,o),
(192.384,176.283,o),
(167.954,179.801,c),
(166.309,223.394,l)
);
}
);
width = 542.8;
},
{
anchors = (
{
name = bottom;
pos = (239,0);
},
{
name = ogonek;
pos = (383,10);
},
{
name = top;
pos = (313,500);
}
);
associatedMasterId = "CDFC0212-EC7A-4000-86F8-EA19B9E6D7F9";
background = {
shapes = (
{
closed = 1;
nodes = (
(133,507,o),
(29,349,o),
(29,209,cs),
(29,64,o),
(127,-5,o),
(238,-5,cs),
(321,-5,o),
(411,33,o),
(471,106,c),
(448,139,l),
(445,130,o),
(377,88,o),
(314,88,cs),
(259,89,o),
(207,121,o),
(207,235,cs),
(207,348,o),
(255,415,o),
(292,415,cs),
(359,415,o),
(375,166,o),
(124,279,c),
(124,230,l),
(462,24,o),
(619,507,o),
(319,507,cs)
);
}
);
};
layerId = "F490DAC4-08A2-4746-BD25-18F120608A0B";
name = "Aug 29, 23, 12:38";
shapes = (
{
closed = 1;
nodes = (
(353,-7,o),
(482,47,o),
(482,185,c),
(475,190,l),
(447,147,o),
(379,109,o),
(319,109,cs),
(260,109,o),
(210,148,o),
(210,243,cs),
(210,383,o),
(271,423,o),
(317,423,cs),
(342,423,o),
(360,399,o),
(360,369,cs),
(360,330,o),
(331,263,o),
(268,263,cs),
(239,263,o),
(203,277,o),
(159,313,c),
(161,270,l),
(209,217,o),
(264,194,o),
(316,194,cs),
(415,194,o),
(501,276,o),
(501,376,cs),
(501,446,o),
(449,507,o),
(342,507,cs),
(142,507,o),
(28,347,o),
(28,206,cs),
(28,93,o),
(99,-7,o),
(256,-7,cs)
);
}
);
width = 521;
},
{
anchors = (
{
name = bottom;
pos = (239,0);
},
{
name = ogonek;
pos = (383,10);
},
{
name = top;
pos = (313,500);
}
);
associatedMasterId = "CDFC0212-EC7A-4000-86F8-EA19B9E6D7F9";
background = {
shapes = (
{
closed = 1;
nodes = (
(133,507,o),
(29,349,o),
(29,209,cs),
(29,64,o),
(127,-5,o),
(238,-5,cs),
(321,-5,o),
(411,33,o),
(471,106,c),
(448,139,l),
(445,130,o),
(377,88,o),
(314,88,cs),
(259,89,o),
(207,121,o),
(207,235,cs),
(207,348,o),
(255,415,o),
(292,415,cs),
(359,415,o),
(375,166,o),
(124,279,c),
(124,230,l),
(462,24,o),
(619,507,o),
(319,507,cs)
);
}
);
};
layerId = "BD7228DF-490D-4383-998D-40866C512A4C";
name = "Aug 29, 23, 12:38";
shapes = (
{
closed = 1;
nodes = (
(353,-7,o),
(482,47,o),
(482,185,c),
(475,190,l),
(447,147,o),
(379,109,o),
(319,109,cs),
(260,109,o),
(210,148,o),
(210,243,cs),
(210,383,o),
(271,423,o),
(317,423,cs),
(342,423,o),
(360,399,o),
(360,369,cs),
(360,312,o),
(299,197,o),
(159,313,c),
(161,270,l),
(302,114,o),
(501,224,o),
(501,376,cs),
(501,446,o),
(449,507,o),
(342,507,cs),
(-17,507,o),
(-98,-7,o),
(256,-7,cs)
);
}
);
width = 521;
},
{
anchors = (
{
name = bottom;
pos = (239,0);
},
{
name = ogonek;
pos = (383,10);
},
{
name = top;
pos = (313,500);
}
);
associatedMasterId = "CDFC0212-EC7A-4000-86F8-EA19B9E6D7F9";
background = {
shapes = (
{
closed = 1;
nodes = (
(133,507,o),
(29,349,o),
(29,209,cs),
(29,64,o),
(127,-5,o),
(238,-5,cs),
(321,-5,o),
(411,33,o),
(471,106,c),
(448,139,l),
(445,130,o),
(377,88,o),
(314,88,cs),
(259,89,o),
(207,121,o),
(207,235,cs),
(207,348,o),
(255,415,o),
(292,415,cs),
(359,415,o),
(375,166,o),
(124,279,c),
(124,230,l),
(462,24,o),
(619,507,o),
(319,507,cs)
);
}
);
};
layerId = "0F05D156-2D35-4CA6-B3B9-4BF9631B5B39";
name = "Oct 1, 23, 18:26";
shapes = (
{
closed = 1;
nodes = (
(353,-7,o),
(482,47,o),
(482,185,c),
(475,190,l),
(447,147,o),
(379,109,o),
(319,109,cs),
(263,109,o),
(216,144,o),
(210,227,c),
(245,204,o),
(281,194,o),
(316,194,cs),
(415,194,o),
(501,276,o),
(501,376,cs),
(501,446,o),
(449,507,o),
(342,507,cs),
(142,507,o),
(28,347,o),
(28,206,cs),
(28,93,o),
(99,-7,o),
(256,-7,cs)
);
},
{
closed = 1;
nodes = (
(251,263,o),
(232,268,o),
(211,278,c),
(221,390,o),
(275,423,o),
(317,423,cs),
(342,423,o),
(360,399,o),
(360,369,cs),
(360,330,o),
(331,263,o),
(267,263,cs)
);
}
);
width = 521;
}
);
metricLeft = o;
unicode = 101;
userData = {
KernOnName = e;
};
}
{
glyphname = i;
lastChange = "2024-12-05 18:06:48 +0000";
layers = (
{
anchors = (
{
name = bottom;
pos = (141,0);
},
{
name = ogonek;
pos = (236,10);
},
{
name = top;
pos = (185,500);
}
);
layerId = "CDFC0212-EC7A-4000-86F8-EA19B9E6D7F9";
shapes = (
{
closed = 1;
nodes = (
(209,-4,o),
(276,45,o),
(276,119,c),
(269,121,l),
(264,112,o),
(251,103,o),
(239,103,cs),
(227,103,o),
(215,113,o),
(215,138,cs),
(215,196,o),
(278,312,o),
(278,400,cs),
(278,473,o),
(234,504,o),
(184,504,cs),
(121,504,o),
(50,454,o),
(43,375,c),
(50,371,l),
(60,385,o),
(72,393,o),
(83,393,cs),
(98,393,o),
(110,380,o),
(110,348,cs),
(110,275,o),
(47,204,o),
(47,112,cs),
(47,31,o),
(96,-4,o),
(148,-4,cs)
);
},
{
closed = 1;
nodes = (
(275,535,o),
(321,579,o),
(321,632,cs),
(321,681,o),
(283,719,o),
(230,719,cs),
(173,719,o),
(127,674,o),
(127,621,cs),
(127,572,o),
(165,535,o),
(218,535,cs)
);
}
);
width = 325;
},
{
associatedMasterId = "CDFC0212-EC7A-4000-86F8-EA19B9E6D7F9";
background = {
shapes = (
{
closed = 1;
nodes = (
(19.42,398,l),
(40.346,457.882,o),
(110.258,500.007,o),
(170.54,500.128,cs),
(222.567,500.233,o),
(267.42,469.052,o),
(267.42,391,cs),
(267.42,309,o),
(213.42,201,o),
(213.42,143,cs),
(213.42,88.87,o),
(255.687,94.43,o),
(270.42,126,c),
(285.42,98,l),
(265.065,35.737,o),
(204.051,-2.191,o),
(148.64,-2.174,cs),
(94.339,-2.158,o),
(45.42,34.297,o),
(45.42,120,cs),
(45.42,206.726,o),
(99.42,291.425,o),
(99.42,366,cs),
(99.42,420.579,o),
(62.858,411.324,o),
(38.42,378,c)
);
}
);
};
layerId = "732694C7-88D8-4689-9483-5F7AFB305966";
name = "May 26, 23, 14:37";
shapes = (
{
closed = 1;
nodes = (
(22.001,370.815,l),
(28.735,449.922,o),
(100.258,500.007,o),
(160.54,500.128,cs),
(212.567,500.233,o),
(257.42,469.052,o),
(257.42,391,cs),
(257.42,309,o),
(213.42,201,o),
(213.42,143,cs),
(213.42,88.87,o),
(257.762,105.704,o),
(266.526,124.483,c),
(273.631,121.686,l),
(273.631,47.972,o),
(206.978,-0.943,o),
(145.715,-0.943,cs),
(93.619,-0.943,o),
(45.42,34.429,o),
(45.42,120,cs),
(45.42,206.726,o),
(89.42,270.984,o),
(89.42,345.559,cs),
(89.42,400.138,o),
(51.186,399.633,o),
(28.735,367.001,c)
);
},
{
closed = 1;
nodes = (
(231.45,521.737,o),
(274.481,561.418,o),
(277.899,610.368,cs),
(281.316,659.319,o),
(243.826,699,o),
(194.162,699,cs),
(144.497,699,o),
(101.466,659.319,o),
(98.048,610.368,cs),
(94.631,561.418,o),
(132.12,521.737,o),
(181.785,521.737,cs)
);
}
);
width = 303.12;
},
{
associatedMasterId = "CDFC0212-EC7A-4000-86F8-EA19B9E6D7F9";
layerId = "AC0F642F-C0BD-495D-A672-1FD93C0FFC8C";
name = "Jun 7, 23, 11:06";
shapes = (
{
closed = 1;
nodes = (
(220,-11,o),
(287,38,o),
(287,112,c),
(280,114,l),
(275,105,o),
(262,96,o),
(250,96,cs),
(238,96,o),
(226,106,o),
(226,132,cs),
(226,189,o),
(279,308,o),
(279,391,cs),
(279,469,o),
(235,500,o),
(183,500,cs),
(122,500,o),
(51,450,o),
(44,371,c),
(51,367,l),
(61,381,o),
(73,389,o),
(85,389,cs),
(99,389,o),
(111,376,o),
(111,346,cs),
(111,271,o),
(58,197,o),
(58,110,cs),
(58,24,o),
(107,-11,o),
(159,-11,cs)
);
},
{
closed = 1;
nodes = (
(276,535,o),
(322,579,o),
(322,633,cs),
(322,681,o),
(284,719,o),
(231,719,cs),
(174,719,o),
(128,674,o),
(128,620,cs),
(128,572,o),
(166,535,o),
(219,535,cs)
);
}
);
width = 328;
},
{
anchors = (
{
name = bottom;
pos = (142,0);
}
);
associatedMasterId = "CDFC0212-EC7A-4000-86F8-EA19B9E6D7F9";
layerId = "8A29617F-9A67-46C4-A593-30283B2865D7";
name = "Aug 29, 23, 12:38";
shapes = (
{
closed = 1;
nodes = (
(276,535,o),
(322,579,o),
(322,633,cs),
(322,681,o),
(284,719,o),
(231,719,cs),
(174,719,o),
(128,674,o),
(128,620,cs),
(128,572,o),
(166,535,o),
(219,535,cs)
);
},
{
ref = idotless;
}
);
width = 328;
},
{
anchors = (
{
name = bottom;
pos = (142,0);
}
);
associatedMasterId = "CDFC0212-EC7A-4000-86F8-EA19B9E6D7F9";
layerId = "CD59F01A-F172-4E4D-9B07-9BC94D5098E9";
name = "Aug 29, 23, 12:38";
shapes = (
{
closed = 1;
nodes = (
(276,535,o),
(322,579,o),
(322,633,cs),
(322,681,o),
(284,719,o),
(231,719,cs),
(174,719,o),
(128,674,o),
(128,620,cs),
(128,572,o),
(166,535,o),
(219,535,cs)
);
},
{
ref = idotless;
}
);
width = 328;
},
{
anchors = (
{
name = bottom;
pos = (142,0);
}
);
associatedMasterId = "CDFC0212-EC7A-4000-86F8-EA19B9E6D7F9";
layerId = "A044EA94-E634-4704-8DBD-710F1F172F7D";
name = "Oct 1, 23, 18:29";
shapes = (
{
closed = 1;
nodes = (
(276,535,o),
(322,579,o),
(322,633,cs),
(322,681,o),
(284,719,o),
(231,719,cs),
(174,719,o),
(128,674,o),
(128,620,cs),
(128,572,o),
(166,535,o),
(219,535,cs)
);
},
{
ref = idotless;
}
);
width = 328;
}
);
unicode = 105;
userData = {
KernOnName = i;
};
}
{
glyphname = j;
lastChange = "2024-12-05 18:08:59 +0000";
layers = (
{
anchors = (
{
name = bottom;
pos = (59,-450);
},
{
name = top;
pos = (192,500);
}
);
layerId = "CDFC0212-EC7A-4000-86F8-EA19B9E6D7F9";
name = Regular;
shapes = (
{
closed = 1;
nodes = (
(151,-200,o),
(171,-58,o),
(193,90,cs),
(213,231,o),
(230,344,o),
(267,457,c),
(254,486,o),
(215,500,o),
(176,500,cs),
(147,500,o),
(117,492,o),
(96,478,c),
(55,351,o),
(51,213,o),
(51,72,cs),
(51,72,o),
(51,44,o),
(51,19,cs),
(51,-64,o),
(48,-118,o),
(19,-118,cs),
(2,-118,o),
(-14,-100,o),
(-14,-67,cs),
(-14,-45,o),
(-7,-18,o),
(12,15,c),
(-84,15,o),
(-129,-37,o),
(-129,-90,cs),
(-129,-144,o),
(-81,-200,o),
(8,-200,cs)
);
},
{
closed = 1;
nodes = (
(260,535,o),
(306,579,o),
(306,632,cs),
(306,681,o),
(268,719,o),
(215,719,cs),
(158,719,o),
(112,674,o),
(112,621,cs),
(112,572,o),
(150,535,o),
(203,535,cs)
);
}
);
width = 279;
},
{
associatedMasterId = "CDFC0212-EC7A-4000-86F8-EA19B9E6D7F9";
layerId = "54D03814-2213-49D1-801D-4BF962315B4D";
name = "Jul 26, 23, 13:53";
shapes = (
{
closed = 1;
nodes = (
(272,522,o),
(315,561,o),
(318,610,cs),
(322,659,o),
(284,699,o),
(235,699,cs),
(185,699,o),
(142,659,o),
(139,610,cs),
(135,561,o),
(173,522,o),
(222,522,cs)
);
},
{
ref = jdotless;
}
);
width = 318;
},
{
associatedMasterId = "CDFC0212-EC7A-4000-86F8-EA19B9E6D7F9";
layerId = "2A2656AC-5F84-4BBD-9F7F-2F30BBA6084B";
name = "Aug 29, 23, 12:38";
shapes = (
{
closed = 1;
nodes = (
(260,535,o),
(306,579,o),
(306,633,cs),
(306,681,o),
(268,719,o),
(215,719,cs),
(158,719,o),
(112,674,o),
(112,620,cs),
(112,572,o),
(150,535,o),
(203,535,cs)
);
},
{
pos = (-39,0);
ref = jdotless;
}
);
width = 279;
},
{
associatedMasterId = "CDFC0212-EC7A-4000-86F8-EA19B9E6D7F9";
layerId = "55BE37FF-2817-43A5-B734-3F73989BFE55";
name = "Aug 29, 23, 12:38";
shapes = (
{
closed = 1;
nodes = (
(260,535,o),
(306,579,o),
(306,633,cs),
(306,681,o),
(268,719,o),
(215,719,cs),
(158,719,o),
(112,674,o),
(112,620,cs),
(112,572,o),
(150,535,o),
(203,535,cs)
);
},
{
pos = (-39,0);
ref = jdotless;
}
);
width = 279;
},
{
associatedMasterId = "CDFC0212-EC7A-4000-86F8-EA19B9E6D7F9";
layerId = "93881503-8602-4B84-BE19-2AFC4FB4FD40";
name = "Sep 21, 23, 19:11";
shapes = (
{
closed = 1;
nodes = (
(260,535,o),
(306,579,o),
(306,633,cs),
(306,681,o),
(268,719,o),
(215,719,cs),
(158,719,o),
(112,674,o),
(112,620,cs),
(112,572,o),
(150,535,o),
(203,535,cs)
);
},
{
pos = (-39,0);
ref = jdotless;
}
);
width = 279;
},
{
anchors = (
{
name = bottom;
pos = (59,-450);
},
{
name = top;
pos = (192,500);
}
);
associatedMasterId = "CDFC0212-EC7A-4000-86F8-EA19B9E6D7F9";
layerId = "5AFEAC0F-3BC9-4609-91E8-E350CB384BF8";
name = "Oct 1, 23, 18:30";
shapes = (
{
closed = 1;
nodes = (
(260,535,o),
(306,579,o),
(306,633,cs),
(306,681,o),
(268,719,o),
(215,719,cs),
(158,719,o),
(112,674,o),
(112,620,cs),
(112,572,o),
(150,535,o),
(203,535,cs)
);
},
{
closed = 1;
nodes = (
(226,-200,o),
(159,131,o),
(267,457,c),
(254,486,o),
(215,500,o),
(176,500,cs),
(147,500,o),
(117,492,o),
(96,478,c),
(8,205,o),
(89,-118,o),
(19,-118,cs),
(2,-118,o),
(-14,-100,o),
(-14,-67,cs),
(-14,-45,o),
(-7,-18,o),
(12,15,c),
(-84,15,o),
(-129,-37,o),
(-129,-90,cs),
(-129,-144,o),
(-81,-200,o),
(8,-200,cs)
);
}
);
width = 279;
}
);
unicode = 106;
userData = {
KernOnName = j;
};
}
{
glyphname = k;
lastChange = "2024-12-05 18:06:48 +0000";
layers = (
{
anchors = (
{
name = bottom;
pos = (256,0);
},
{
name = top;
pos = (340,687);
}
);
layerId = "CDFC0212-EC7A-4000-86F8-EA19B9E6D7F9";
shapes = (
{
closed = 1;
nodes = (
(459,-5,o),
(523,32,o),
(556,110,c),
(550,116,l),
(543,113,o),
(536,112,o),
(529,112,cs),
(481,112,o),
(416,153,o),
(391,212,c),
(492,258,o),
(532,334,o),
(532,394,cs),
(532,454,o),
(491,504,o),
(423,504,cs),
(335,504,o),
(275,420,o),
(231,357,c),
(252,436,o),
(278,537,o),
(278,593,cs),
(278,664,o),
(236,700,o),
(186,700,cs),
(153,700,o),
(116,684,o),
(87,651,c),
(87,645,l),
(97,630,o),
(100,604,o),
(100,575,cs),
(100,438,o),
(35,192,o),
(35,104,cs),
(35,37,o),
(73,-4,o),
(130,-4,cs),
(192,-4,o),
(225,43,o),
(225,103,cs),
(225,141,o),
(212,168,o),
(212,203,cs),
(212,275,o),
(268,372,o),
(338,372,cs),
(366,372,o),
(388,356,o),
(388,331,cs),
(388,288,o),
(326,241,o),
(294,225,c),
(280,189,o),
(273,157,o),
(273,128,cs),
(273,43,o),
(333,-5,o),
(400,-5,cs)
);
}
);
width = 556;
},
{
associatedMasterId = "CDFC0212-EC7A-4000-86F8-EA19B9E6D7F9";
layerId = "FDAA1C4E-C784-4B4B-92E0-A5C0F57ACC25";
name = "May 25, 23, 14:31";
shapes = (
{
closed = 1;
nodes = (
(187.226,-0.149,o),
(220,47.43,o),
(220,94,cs),
(220,156.904,o),
(199.864,182.612,o),
(206.939,224.662,cs),
(219.727,300.673,o),
(270.897,368.037,o),
(331.442,368.037,cs),
(360.515,368.037,o),
(382.884,351.683,o),
(382.884,326.826,cs),
(382.884,283.729,o),
(321.048,244.743,o),
(289.468,229.43,c),
(189.596,-13.322,o),
(466.537,-83.181,o),
(551.094,113.705,c),
(545.368,119.734,l),
(494.954,98.869,o),
(389.258,159.878,o),
(376.883,248.282,c),
(344.956,199.642,l),
(476.121,241.932,o),
(527.363,322.676,o),
(527.363,389.803,cs),
(527.363,450.461,o),
(485.522,500,o),
(423,500,cs),
(316.922,500,o),
(253.622,388.404,o),
(209.784,324.845,c),
(216.409,317.457,l),
(236.583,397.588,o),
(273,526.798,o),
(273,600,cs),
(273,712,o),
(155,733,o),
(82,651,c),
(82,645,l),
(130.9,566.53,o),
(30,218.867,o),
(30,99,cs),
(30,41.202,o),
(68.414,-0.149,o),
(123.793,-0.149,cs)
);
}
);
width = 551.09;
},
{
anchors = (
{
name = bottom;
pos = (256,0);
},
{
name = top;
pos = (326,700);
}
);
associatedMasterId = "CDFC0212-EC7A-4000-86F8-EA19B9E6D7F9";
layerId = "10309097-4698-456B-AD7F-36A53F7A6D40";
name = "Aug 29, 23, 12:38";
shapes = (
{
closed = 1;
nodes = (
(459,-5,o),
(523,32,o),
(556,110,c),
(550,116,l),
(500,95,o),
(394,156,o),
(382,244,c),
(350,196,l),
(481,238,o),
(532,327,o),
(532,394,cs),
(532,454,o),
(491,504,o),
(423,504,cs),
(322,504,o),
(257,393,o),
(213,330,c),
(221,317,l),
(242,398,o),
(278,527,o),
(278,593,cs),
(278,712,o),
(160,733,o),
(87,651,c),
(87,645,l),
(136,567,o),
(35,215,o),
(35,95,cs),
(35,37,o),
(73,-4,o),
(130,-4,cs),
(192,-4,o),
(225,43,o),
(225,90,cs),
(225,153,o),
(205,179,o),
(214,231,cs),
(225,297,o),
(276,372,o),
(336,372,cs),
(366,372,o),
(388,356,o),
(388,331,cs),
(388,288,o),
(326,241,o),
(294,225,c),
(280,189,o),
(273,157,o),
(273,129,cs),
(273,43,o),
(333,-5,o),
(400,-5,cs)
);
}
);
width = 556;
},
{
anchors = (
{
name = bottom;
pos = (256,0);
},
{
name = top;
pos = (326,700);
}
);
associatedMasterId = "CDFC0212-EC7A-4000-86F8-EA19B9E6D7F9";
layerId = "72151F48-E062-4D2E-A285-432B10D6EDE0";
name = "Aug 29, 23, 12:38";
shapes = (
{
closed = 1;
nodes = (
(459,-5,o),
(523,32,o),
(556,110,c),
(550,116,l),
(500,95,o),
(394,156,o),
(382,244,c),
(350,196,l),
(481,238,o),
(532,327,o),
(532,394,cs),
(532,454,o),
(491,504,o),
(423,504,cs),
(322,504,o),
(257,393,o),
(213,330,c),
(221,317,l),
(242,398,o),
(278,527,o),
(278,593,cs),
(278,712,o),
(160,733,o),
(87,651,c),
(87,645,l),
(136,567,o),
(35,215,o),
(35,95,cs),
(35,37,o),
(73,-4,o),
(130,-4,cs),
(192,-4,o),
(225,43,o),
(225,90,cs),
(225,153,o),
(205,179,o),
(214,231,cs),
(225,297,o),
(276,372,o),
(336,372,cs),
(366,372,o),
(388,356,o),
(388,331,cs),
(388,288,o),
(326,241,o),
(294,225,c),
(280,189,o),
(273,157,o),
(273,129,cs),
(273,43,o),
(333,-5,o),
(400,-5,cs)
);
}
);
width = 556;
},
{
anchors = (
{
name = bottom;
pos = (256,0);
},
{
name = top;
pos = (186,700);
}
);
associatedMasterId = "CDFC0212-EC7A-4000-86F8-EA19B9E6D7F9";
layerId = "6201E271-8268-427E-8B14-EFA4C63F0587";
name = "Oct 1, 23, 18:30";
shapes = (
{
closed = 1;
nodes = (
(459,-5,o),
(523,32,o),
(556,110,c),
(550,116,l),
(543,113,o),
(536,112,o),
(527,112,cs),
(481,112,o),
(416,153,o),
(391,212,c),
(492,258,o),
(532,334,o),
(532,394,cs),
(532,454,o),
(491,504,o),
(423,504,cs),
(335,504,o),
(275,420,o),
(231,357,c),
(252,436,o),
(278,537,o),
(278,593,cs),
(278,664,o),
(236,700,o),
(186,700,cs),
(153,700,o),
(116,684,o),
(87,651,c),
(87,645,l),
(97,630,o),
(100,604,o),
(100,572,cs),
(100,438,o),
(35,192,o),
(35,95,cs),
(35,37,o),
(73,-4,o),
(130,-4,cs),
(192,-4,o),
(225,43,o),
(225,90,cs),
(225,141,o),
(212,168,o),
(212,205,cs),
(212,275,o),
(268,372,o),
(336,372,cs),
(366,372,o),
(388,356,o),
(388,331,cs),
(388,288,o),
(326,241,o),
(294,225,c),
(280,189,o),
(273,157,o),
(273,129,cs),
(273,43,o),
(333,-5,o),
(400,-5,cs)
);
}
);
width = 556;
}
);
metricLeft = h;
unicode = 107;
userData = {
KernOnName = k;
};
}
{
glyphname = p;
lastChange = "2024-12-05 18:06:48 +0000";
layers = (
{
anchors = (
{
name = bottom;
pos = (279,0);
},
{
name = top;
pos = (323,500);
}
);
layerId = "CDFC0212-EC7A-4000-86F8-EA19B9E6D7F9";
shapes = (
{
closed = 1;
nodes = (
(156,-200,o),
(190,-183,o),
(208,-150,c),
(208,-144,l),
(200,-118,o),
(197,-91,o),
(197,-63,cs),
(197,-12,o),
(207,41,o),
(219,96,c),
(246,30,o),
(298,-4,o),
(355,-4,cs),
(454,-4,o),
(566,97,o),
(566,298,cs),
(566,441,o),
(509,507,o),
(437,507,cs),
(383,507,o),
(320,469,o),
(269,389,c),
(264,449,o),
(239,504,o),
(173,504,cs),
(104,504,o),
(34,443,o),
(34,374,c),
(41,370,l),
(50,381,o),
(65,390,o),
(78,390,cs),
(93,390,o),
(105,379,o),
(105,340,cs),
(105,237,o),
(23,59,o),
(23,-67,cs),
(23,-165,o),
(72,-200,o),
(122,-200,cs)
);
},
{
closed = 1;
nodes = (
(276,93,o),
(251,118,o),
(239,160,c),
(266,319,o),
(321,396,o),
(360,396,cs),
(390,396,o),
(405,351,o),
(405,295,cs),
(405,208,o),
(369,93,o),
(306,93,cs)
);
}
);
width = 591;
},
{
anchors = (
{
name = bottom;
pos = (267,0);
},
{
name = top;
pos = (311,500);
}
);
associatedMasterId = "CDFC0212-EC7A-4000-86F8-EA19B9E6D7F9";
layerId = "E1565A1D-69A8-4446-98B7-844D85863EFD";
name = "Aug 29, 23, 12:38";
shapes = (
{
closed = 1;
nodes = (
(442,-4,o),
(554,97,o),
(554,306,cs),
(554,441,o),
(497,507,o),
(426,507,cs),
(335,507,o),
(222,403,o),
(179,178,c),
(226,152,l),
(252,316,o),
(308,396,o),
(346,396,cs),
(378,396,o),
(393,351,o),
(393,296,cs),
(393,208,o),
(357,93,o),
(291,93,cs),
(255,93,o),
(223,137,o),
(221,205,c),
(190,198,l),
(189,67,o),
(261,-4,o),
(342,-4,cs)
);
},
{
closed = 1;
nodes = (
(144,-200,o),
(178,-183,o),
(196,-150,c),
(196,-144,l),
(159,-17,o),
(228,146,o),
(253,296,cs),
(266,377,o),
(262,504,o),
(160,504,cs),
(92,504,o),
(22,443,o),
(22,374,c),
(29,370,l),
(48,393,o),
(93,408,o),
(93,348,cs),
(93,237,o),
(11,59,o),
(11,-99,cs),
(11,-165,o),
(60,-200,o),
(110,-200,cs)
);
}
);
width = 578;
},
{
anchors = (
{
name = bottom;
pos = (267,0);
},
{
name = top;
pos = (311,500);
}
);
associatedMasterId = "CDFC0212-EC7A-4000-86F8-EA19B9E6D7F9";
layerId = "B8762262-665D-4862-8699-AA43E099E4EE";
name = "Aug 29, 23, 12:38";
shapes = (
{
closed = 1;
nodes = (
(442,-4,o),
(554,97,o),
(554,306,cs),
(554,441,o),
(497,507,o),
(426,507,cs),
(335,507,o),
(222,403,o),
(179,178,c),
(226,152,l),
(252,316,o),
(308,396,o),
(346,396,cs),
(378,396,o),
(393,351,o),
(393,296,cs),
(393,208,o),
(357,93,o),
(291,93,cs),
(255,93,o),
(223,137,o),
(221,205,c),
(190,198,l),
(189,67,o),
(261,-4,o),
(342,-4,cs)
);
},
{
closed = 1;
nodes = (
(144,-200,o),
(178,-183,o),
(196,-150,c),
(196,-144,l),
(159,-17,o),
(228,146,o),
(253,296,cs),
(266,377,o),
(262,504,o),
(160,504,cs),
(92,504,o),
(22,443,o),
(22,374,c),
(29,370,l),
(48,393,o),
(93,408,o),
(93,348,cs),
(93,237,o),
(11,59,o),
(11,-99,cs),
(11,-165,o),
(60,-200,o),
(110,-200,cs)
);
}
);
width = 578;
},
{
anchors = (
{
name = bottom;
pos = (267,0);
},
{
name = top;
pos = (311,500);
}
);
associatedMasterId = "CDFC0212-EC7A-4000-86F8-EA19B9E6D7F9";
layerId = "4C233507-A8AE-4B32-9417-CD838B66C0AE";
name = "Oct 1, 23, 18:31";
shapes = (
{
closed = 1;
nodes = (
(144,-200,o),
(178,-183,o),
(196,-150,c),
(196,-144,l),
(175,-73,o),
(188,10,o),
(207,96,c),
(234,30,o),
(286,-4,o),
(342,-4,cs),
(442,-4,o),
(554,97,o),
(554,306,cs),
(554,441,o),
(497,507,o),
(426,507,cs),
(371,507,o),
(308,469,o),
(257,389,c),
(252,449,o),
(227,504,o),
(160,504,cs),
(92,504,o),
(22,443,o),
(22,374,c),
(29,370,l),
(48,393,o),
(93,408,o),
(93,348,cs),
(93,237,o),
(11,59,o),
(11,-99,cs),
(11,-165,o),
(60,-200,o),
(110,-200,cs)
);
},
{
closed = 1;
nodes = (
(264,93,o),
(239,118,o),
(227,160,c),
(254,319,o),
(309,396,o),
(346,396,cs),
(378,396,o),
(393,351,o),
(393,296,cs),
(393,208,o),
(357,93,o),
(291,93,cs)
);
}
);
width = 578;
}
);
metricLeft = n;
metricRight = b;
unicode = 112;
userData = {
KernOnName = p;
};
}
{
glyphname = s;
lastChange = "2024-12-05 18:06:48 +0000";
layers = (
{
anchors = (
{
name = bottom;
pos = (219,0);
},
{
name = top;
pos = (283,500);
}
);
background = {
shapes = (
{
closed = 1;
nodes = (
(-59,-6,o),
(-29,205,o),
(139,205,c),
(139,24,o),
(292,51,o),
(291,115,cs),
(291,197,o),
(59,210,o),
(59,350,cs),
(59,520,o),
(466,563,o),
(466,419,cs),
(466,347,o),
(405,314,o),
(344,314,c),
(344,447,o),
(237,453,o),
(237,386,cs),
(237,285,o),
(481,286,o),
(481,157,cs),
(481,73,o),
(348,-6,o),
(218,-6,cs)
);
}
);
};
layerId = "CDFC0212-EC7A-4000-86F8-EA19B9E6D7F9";
shapes = (
{
closed = 1;
nodes = (
(344,-9,o),
(467,70,o),
(467,160,cs),
(467,226,o),
(402,258,o),
(335,291,cs),
(285,315,o),
(232,341,o),
(232,389,cs),
(232,417,o),
(250,432,o),
(274,432,cs),
(307,432,o),
(343,402,o),
(342,334,c),
(425,334,o),
(464,372,o),
(464,412,cs),
(464,459,o),
(412,509,o),
(309,509,cs),
(200,509,o),
(63,453,o),
(63,348,cs),
(63,274,o),
(131,235,o),
(178,207,cs),
(239,172,o),
(282,148,o),
(282,111,cs),
(282,84,o),
(258,64,o),
(228,64,cs),
(189,64,o),
(141,99,o),
(142,202,c),
(64,202,o),
(16,155,o),
(16,105,cs),
(16,50,o),
(76,-9,o),
(200,-9,cs)
);
}
);
width = 495;
},
{
anchors = (
{
name = bottom;
pos = (223,0);
},
{
name = top;
pos = (287,500);
}
);
associatedMasterId = "CDFC0212-EC7A-4000-86F8-EA19B9E6D7F9";
background = {
shapes = (
{
closed = 1;
nodes = (
(-55.103,-5.776,o),
(-25.103,204.652,o),
(142.742,204.652,c),
(142.742,24.225,o),
(295.654,51.278,o),
(295.431,115.144,cs),
(295.145,196.954,o),
(62.857,209.595,o),
(62.857,349.996,cs),
(62.857,520.001,o),
(469.573,563,o),
(469.541,418.711,cs),
(469.526,346.952,o),
(409.347,314.102,o),
(348.162,314.102,c),
(348.162,447.342,o),
(241.414,452.963,o),
(241.414,386.413,cs),
(241.414,284.561,o),
(484.751,286.284,o),
(484.847,157.354,cs),
(484.909,73.309,o),
(352.221,-5.639,o),
(221.976,-5.682,cs)
);
}
);
};
layerId = "D6B4818D-C12B-4831-84E4-ACE9F4E963A3";
name = "Aug 23, 23, 16:26";
shapes = (
{
closed = 1;
nodes = (
(348,-9,o),
(471,70,o),
(471,154,cs),
(471,285,o),
(231,288,o),
(231,389,cs),
(231,417,o),
(249,432,o),
(281,432,cs),
(311,432,o),
(347,402,o),
(346,334,c),
(406,334,o),
(466,350,o),
(466,422,cs),
(466,481,o),
(397,509,o),
(318,509,cs),
(204,509,o),
(67,453,o),
(67,353,cs),
(67,223,o),
(305,194,o),
(306,112,cs),
(306,84,o),
(278,64,o),
(234,64,cs),
(193,64,o),
(145,99,o),
(146,202,c),
(68,202,o),
(20,155,o),
(20,105,cs),
(20,50,o),
(80,-9,o),
(222,-9,cs)
);
}
);
width = 490;
},
{
anchors = (
{
name = bottom;
pos = (221,0);
},
{
name = top;
pos = (285,500);
}
);
associatedMasterId = "CDFC0212-EC7A-4000-86F8-EA19B9E6D7F9";
background = {
shapes = (
{
closed = 1;
nodes = (
(-57,-6,o),
(-27,205,o),
(141,205,c),
(141,24,o),
(294,51,o),
(293,115,cs),
(293,197,o),
(61,210,o),
(61,350,cs),
(61,520,o),
(468,563,o),
(468,419,cs),
(468,347,o),
(407,314,o),
(346,314,c),
(346,447,o),
(239,453,o),
(239,386,cs),
(239,285,o),
(483,286,o),
(483,157,cs),
(483,73,o),
(350,-6,o),
(220,-6,cs)
);
}
);
};
layerId = "26F1DDB1-8EF5-4234-999C-545F40906B2B";
name = "Aug 29, 23, 12:38";
shapes = (
{
closed = 1;
nodes = (
(346,-9,o),
(469,70,o),
(469,160,cs),
(469,285,o),
(234,288,o),
(234,389,cs),
(234,417,o),
(252,432,o),
(276,432,cs),
(309,432,o),
(345,402,o),
(344,334,c),
(427,334,o),
(466,372,o),
(466,412,cs),
(466,459,o),
(414,509,o),
(311,509,cs),
(202,509,o),
(65,453,o),
(65,348,cs),
(65,216,o),
(283,194,o),
(284,111,cs),
(284,84,o),
(260,64,o),
(230,64,cs),
(191,64,o),
(143,99,o),
(144,202,c),
(66,202,o),
(18,155,o),
(18,105,cs),
(18,50,o),
(78,-9,o),
(202,-9,cs)
);
}
);
width = 497;
},
{
anchors = (
{
name = bottom;
pos = (221,0);
},
{
name = top;
pos = (285,500);
}
);
associatedMasterId = "CDFC0212-EC7A-4000-86F8-EA19B9E6D7F9";
background = {
shapes = (
{
closed = 1;
nodes = (
(-57,-6,o),
(-27,205,o),
(141,205,c),
(141,24,o),
(294,51,o),
(293,115,cs),
(293,197,o),
(61,210,o),
(61,350,cs),
(61,520,o),
(468,563,o),
(468,419,cs),
(468,347,o),
(407,314,o),
(346,314,c),
(346,447,o),
(239,453,o),
(239,386,cs),
(239,285,o),
(483,286,o),
(483,157,cs),
(483,73,o),
(350,-6,o),
(220,-6,cs)
);
}
);
};
layerId = "8691C003-B077-4DC8-A7F2-EDAA1AD681A5";
name = "Aug 29, 23, 12:38";
shapes = (
{
closed = 1;
nodes = (
(346,-9,o),
(469,70,o),
(469,160,cs),
(469,285,o),
(234,288,o),
(234,389,cs),
(234,417,o),
(252,432,o),
(276,432,cs),
(309,432,o),
(345,402,o),
(344,334,c),
(427,334,o),
(466,372,o),
(466,412,cs),
(466,459,o),
(414,509,o),
(311,509,cs),
(202,509,o),
(65,453,o),
(65,348,cs),
(65,216,o),
(283,194,o),
(284,111,cs),
(284,84,o),
(260,64,o),
(230,64,cs),
(191,64,o),
(143,99,o),
(144,202,c),
(66,202,o),
(18,155,o),
(18,105,cs),
(18,50,o),
(78,-9,o),
(202,-9,cs)
);
}
);
width = 497;
},
{
anchors = (
{
name = bottom;
pos = (221,0);
},
{
name = top;
pos = (285,500);
}
);
associatedMasterId = "CDFC0212-EC7A-4000-86F8-EA19B9E6D7F9";
background = {
shapes = (
{
closed = 1;
nodes = (
(-57,-6,o),
(-27,205,o),
(141,205,c),
(141,24,o),
(294,51,o),
(293,115,cs),
(293,197,o),
(61,210,o),
(61,350,cs),
(61,520,o),
(468,563,o),
(468,419,cs),
(468,347,o),
(407,314,o),
(346,314,c),
(346,447,o),
(239,453,o),
(239,386,cs),
(239,285,o),
(483,286,o),
(483,157,cs),
(483,73,o),
(350,-6,o),
(220,-6,cs)
);
}
);
};
layerId = "A3DF9F9F-EF9F-48E1-99C7-F3D19309B43D";
name = "Oct 1, 23, 18:32";
shapes = (
{
closed = 1;
nodes = (
(346,-9,o),
(469,70,o),
(469,160,cs),
(469,285,o),
(234,288,o),
(234,389,cs),
(234,417,o),
(252,432,o),
(276,432,cs),
(309,432,o),
(345,402,o),
(344,334,c),
(427,334,o),
(466,372,o),
(466,412,cs),
(466,459,o),
(414,509,o),
(311,509,cs),
(202,509,o),
(65,453,o),
(65,348,cs),
(65,216,o),
(283,194,o),
(284,111,cs),
(284,84,o),
(260,64,o),
(230,64,cs),
(191,64,o),
(143,99,o),
(144,202,c),
(66,202,o),
(18,155,o),
(18,105,cs),
(18,50,o),
(78,-9,o),
(202,-9,cs)
);
}
);
width = 497;
}
);
unicode = 115;
userData = {
KernOnName = s;
};
}
{
glyphname = t;
lastChange = "2024-12-05 18:06:48 +0000";
layers = (
{
.lastUpdate = 755114303.861;
anchors = (
{
name = bottom;
pos = (156,0);
},
{
name = center;
pos = (168,250);
},
{
name = top;
pos = (231,674);
},
{
name = topright;
pos = (347,720);
}
);
layerId = "CDFC0212-EC7A-4000-86F8-EA19B9E6D7F9";
shapes = (
{
closed = 1;
nodes = (
(244,-4,o),
(325,49,o),
(338,131,c),
(328,134,l),
(319,119,o),
(296,107,o),
(269,107,cs),
(239,107,o),
(216,121,o),
(216,177,cs),
(216,217,o),
(228,309,o),
(244,396,c),
(270,394,o),
(298,391,o),
(330,388,c),
(338,407,o),
(345,432,o),
(345,452,cs),
(345,463,o),
(343,472,o),
(341,480,c),
(313,482,o),
(286,484,o),
(261,485,c),
(277,558,o),
(293,615,o),
(301,623,c),
(289,658,o),
(250,671,o),
(212,671,cs),
(168,671,o),
(126,654,o),
(126,632,cs),
(126,620,o),
(112,548,o),
(95,460,c),
(63,445,o),
(34,423,o),
(7,391,c),
(9,384,l),
(33,389,o),
(57,393,o),
(84,395,c),
(65,294,o),
(48,187,o),
(48,135,cs),
(48,38,o),
(107,-4,o),
(172,-4,cs)
);
}
);
width = 353;
},
{
associatedMasterId = "CDFC0212-EC7A-4000-86F8-EA19B9E6D7F9";
layerId = "72F8DEB3-6C2A-4E95-8AD9-D2027DD37F9D";
name = "May 22, 23, 22:18";
shapes = (
{
closed = 1;
nodes = (
(53.543,437.238,o),
(54.02,454.572,o),
(59.497,481.905,c),
(151.678,497.905,o),
(218.716,502.905,o),
(332.666,499.905,c),
(342.189,472.572,o),
(341.712,445.238,o),
(331.235,417.905,c),
(217.285,425.905,o),
(150.247,415.905,o),
(58.066,409.905,c)
);
},
{
closed = 1;
nodes = (
(306.508,555.147,o),
(230.419,295.834,o),
(230.419,162.574,cs),
(230.419,67.903,o),
(274.276,97.802,o),
(294.45,126,c),
(312.45,103,l),
(288.93,-18.934,o),
(59.72,-67.858,o),
(59.72,140.724,cs),
(59.72,209.074,o),
(138.067,548.033,o),
(138.067,576.227,cs),
(138.067,617.61,o),
(287.705,641.199,o),
(312.975,567.424,c)
);
}
);
width = 339.47;
},
{
associatedMasterId = "CDFC0212-EC7A-4000-86F8-EA19B9E6D7F9";
layerId = "51115A08-4E7A-40C9-B373-2E4DC4FB4260";
name = "Jun 7, 23, 11:17";
shapes = (
{
closed = 1;
nodes = (
(253.422,-0.196,o),
(320.88,39.709,o),
(330.88,131.771,c),
(321.573,135.275,l),
(314,120,o),
(293,108,o),
(273,108,cs),
(252,108,o),
(231,122,o),
(231,162,cs),
(231,291,o),
(307,611,o),
(313.925,623.424,c),
(302,658,o),
(263,671,o),
(225,671,cs),
(181,671,o),
(139,654,o),
(139.017,632.227,cs),
(139.017,604.033,o),
(60.67,209.074,o),
(60.67,140.724,cs),
(60.67,39.857,o),
(113.747,-0.196,o),
(170.002,-0.196,cs)
);
},
{
closed = 1;
nodes = (
(67,413,o),
(112,419,o),
(174,419,cs),
(220,419,o),
(274,415,o),
(343.185,407.905,c),
(351,427,o),
(358,452,o),
(358,474,cs),
(358,483,o),
(356,492,o),
(353.616,499.905,c),
(317,503,o),
(283,505,o),
(253,505,cs),
(149,505,o),
(80,483,o),
(20.001,411.22,c),
(22.293,403.59,l)
);
}
);
width = 360;
},
{
anchors = (
{
name = bottom;
pos = (156,0);
},
{
name = center;
pos = (168,250);
},
{
name = top;
pos = (190,500);
},
{
name = topright;
pos = (377,800);
}
);
associatedMasterId = "CDFC0212-EC7A-4000-86F8-EA19B9E6D7F9";
layerId = "EE2FBC21-86CD-4DB7-8202-67159468B0DD";
name = "Aug 29, 23, 12:38";
shapes = (
{
closed = 1;
nodes = (
(244,-4,o),
(325,49,o),
(338,131,c),
(328,134,l),
(319,119,o),
(296,107,o),
(273,107,cs),
(239,107,o),
(216,121,o),
(216,161,cs),
(216,290,o),
(281,604,o),
(301,623,c),
(289,658,o),
(250,671,o),
(212,671,cs),
(168,671,o),
(126,654,o),
(126,632,cs),
(126,604,o),
(48,246,o),
(48,135,cs),
(48,38,o),
(107,-4,o),
(171,-4,cs)
);
},
{
closed = 1;
nodes = (
(54,393,o),
(99,399,o),
(161,399,cs),
(207,399,o),
(261,395,o),
(330,388,c),
(338,407,o),
(345,432,o),
(345,454,cs),
(345,463,o),
(343,472,o),
(341,480,c),
(304,483,o),
(270,485,o),
(240,485,cs),
(136,485,o),
(67,463,o),
(7,391,c),
(9,384,l)
);
}
);
width = 353;
},
{
anchors = (
{
name = bottom;
pos = (156,0);
},
{
name = center;
pos = (168,250);
},
{
name = top;
pos = (190,500);
},
{
name = topright;
pos = (377,800);
}
);
associatedMasterId = "CDFC0212-EC7A-4000-86F8-EA19B9E6D7F9";
layerId = "DA56C056-F04E-4B66-A8D6-5D62195DF0A7";
name = "Aug 29, 23, 12:38";
shapes = (
{
closed = 1;
nodes = (
(244,-4,o),
(325,49,o),
(338,131,c),
(328,134,l),
(319,119,o),
(296,107,o),
(273,107,cs),
(239,107,o),
(216,121,o),
(216,161,cs),
(216,290,o),
(281,604,o),
(301,623,c),
(289,658,o),
(250,671,o),
(212,671,cs),
(168,671,o),
(126,654,o),
(126,632,cs),
(126,604,o),
(48,246,o),
(48,135,cs),
(48,38,o),
(107,-4,o),
(171,-4,cs)
);
},
{
closed = 1;
nodes = (
(54,393,o),
(99,399,o),
(161,399,cs),
(207,399,o),
(261,395,o),
(330,388,c),
(338,407,o),
(345,432,o),
(345,454,cs),
(345,463,o),
(343,472,o),
(341,480,c),
(304,483,o),
(270,485,o),
(240,485,cs),
(136,485,o),
(67,463,o),
(7,391,c),
(9,384,l)
);
}
);
width = 353;
},
{
anchors = (
{
name = bottom;
pos = (156,0);
},
{
name = center;
pos = (168,250);
},
{
name = top;
pos = (231,649);
},
{
name = topright;
pos = (377,800);
}
);
associatedMasterId = "CDFC0212-EC7A-4000-86F8-EA19B9E6D7F9";
layerId = "664E24D1-71DF-4CCD-81E4-68CE71D0665A";
name = "Oct 1, 23, 18:33";
shapes = (
{
closed = 1;
nodes = (
(244,-4,o),
(325,49,o),
(338,131,c),
(328,134,l),
(319,119,o),
(296,107,o),
(273,107,cs),
(239,107,o),
(216,121,o),
(216,161,cs),
(216,217,o),
(228,309,o),
(244,396,c),
(270,394,o),
(298,391,o),
(330,388,c),
(338,407,o),
(345,432,o),
(345,454,cs),
(345,463,o),
(343,472,o),
(341,480,c),
(313,482,o),
(286,484,o),
(261,485,c),
(277,558,o),
(293,615,o),
(301,623,c),
(289,658,o),
(250,671,o),
(212,671,cs),
(168,671,o),
(126,654,o),
(126,632,cs),
(126,620,o),
(112,548,o),
(95,460,c),
(63,445,o),
(34,423,o),
(7,391,c),
(9,384,l),
(33,389,o),
(57,393,o),
(84,395,c),
(65,294,o),
(48,187,o),
(48,135,cs),
(48,38,o),
(107,-4,o),
(171,-4,cs)
);
}
);
width = 353;
}
);
unicode = 116;
userData = {
KernOnName = t;
};
}
{
glyphname = u;
lastChange = "2024-12-05 18:06:48 +0000";
layers = (
{
anchors = (
{
name = bottom;
pos = (273,0);
},
{
name = ogonek;
pos = (526,10);
},
{
name = top;
pos = (335,500);
},
{
name = topright;
pos = (507,439);
}
);
layerId = "CDFC0212-EC7A-4000-86F8-EA19B9E6D7F9";
shapes = (
{
closed = 1;
nodes = (
(214,-4,o),
(275,33,o),
(330,126,c),
(330,124,ls),
(330,33,o),
(381,-4,o),
(436,-4,cs),
(499,-4,o),
(567,44,o),
(567,117,c),
(560,119,l),
(546,100,o),
(530,96,o),
(519,96,cs),
(498,96,o),
(490,111,o),
(490,137,cs),
(490,174,o),
(506,224,o),
(522,274,cs),
(538,324,o),
(554,374,o),
(554,410,cs),
(554,471,o),
(510,504,o),
(463,504,cs),
(428,504,o),
(391,485,o),
(370,449,c),
(370,442,l),
(375,420,o),
(378,400,o),
(378,380,cs),
(378,355,o),
(373,330,o),
(368,309,cs),
(341,201,o),
(291,132,o),
(257,132,cs),
(238,132,o),
(229,152,o),
(229,182,cs),
(229,214,o),
(239,258,o),
(249,300,cs),
(258,340,o),
(267,379,o),
(267,406,cs),
(267,472,o),
(214,504,o),
(162,504,cs),
(98,504,o),
(28,457,o),
(28,375,c),
(36,372,l),
(44,389,o),
(59,398,o),
(72,398,cs),
(85,398,o),
(97,388,o),
(97,364,cs),
(97,345,o),
(90,314,o),
(81,279,cs),
(70,232,o),
(57,177,o),
(57,132,cs),
(57,49,o),
(103,-4,o),
(163,-4,cs)
);
}
);
width = 589;
},
{
associatedMasterId = "CDFC0212-EC7A-4000-86F8-EA19B9E6D7F9";
layerId = "99CDD44C-CF36-41DD-B8AE-20AEB91BDB61";
name = "May 23, 23, 09:33";
shapes = (
{
closed = 1;
nodes = (
(329.822,253.778,o),
(400.166,316.68,o),
(369.691,440.203,c),
(369.712,446.922,l),
(418.535,532.163,o),
(553.536,518.08,o),
(553.536,403.847,cs),
(553.536,334.566,o),
(489.818,214.756,o),
(489.818,140.075,cs),
(489.818,116.383,o),
(497.513,101.13,o),
(518.289,101.13,cs),
(530.053,101.13,o),
(544.189,110.213,o),
(557.63,129,c),
(572.63,101,l),
(552.411,39.153,o),
(492.969,-0.064,o),
(435.328,-0.064,cs),
(380.125,-0.064,o),
(329.822,39.925,o),
(329.822,128.882,cs)
);
},
{
closed = 1;
nodes = (
(57.141,-26.717,o),
(57.141,126.988,cs),
(57.141,213.534,o),
(97.185,316.991,o),
(97.185,364.344,cs),
(97.185,405.007,o),
(53.236,403.52,o),
(35.655,369.214,c),
(28.002,371.673,l),
(28.002,453.759,o),
(98.375,500.505,o),
(161.745,500.505,cs),
(213.646,500.505,o),
(266.85,469.149,o),
(266.85,400.171,cs),
(266.85,324.319,o),
(185.912,135.832,o),
(261.764,135.832,cs),
(291.718,135.832,o),
(342.375,203.412,o),
(368.717,312.077,c),
(378.643,229.055,l),
(254.851,-89.942,o)
);
}
);
width = 597.63;
},
{
associatedMasterId = "CDFC0212-EC7A-4000-86F8-EA19B9E6D7F9";
layerId = "E3E9C9D9-3F22-4619-8A29-5F16EB7412B4";
name = "May 23, 23, 09:35";
shapes = (
{
closed = 1;
nodes = (
(378.643,229.055,l),
(297.349,-56.104,o),
(65.744,-47.932,o),
(65.744,104.789,cs),
(65.744,188.977,o),
(100.528,294.624,o),
(100.528,352.273,cs),
(100.528,398.209,o),
(47.367,399.365,o),
(30.971,364.507,c),
(24.41,368.177,l),
(24.41,531.153,o),
(276.609,543.227,o),
(276.609,391.361,cs),
(276.609,317.226,o),
(200.629,135.832,o),
(261.764,135.832,cs),
(291.718,135.832,o),
(342.375,203.412,o),
(368.717,312.077,c)
);
},
{
closed = 1;
nodes = (
(329.822,253.778,o),
(400.166,316.68,o),
(369.691,440.203,c),
(369.712,446.922,l),
(418.535,532.163,o),
(553.536,518.08,o),
(553.536,403.847,cs),
(553.536,334.566,o),
(489.818,214.756,o),
(489.818,140.075,cs),
(489.818,116.383,o),
(497.513,101.13,o),
(518.289,101.13,cs),
(530.053,101.13,o),
(544.189,110.213,o),
(557.63,129,c),
(572.63,101,l),
(552.411,39.153,o),
(492.969,-0.064,o),
(435.328,-0.064,cs),
(380.125,-0.064,o),
(329.822,39.925,o),
(329.822,128.882,cs)
);
}
);
width = 597.63;
},
{
anchors = (
{
name = bottom;
pos = (273,0);
},
{
name = ogonek;
pos = (526,10);
},
{
name = top;
pos = (317,500);
},
{
name = topright;
pos = (591,500);
}
);
associatedMasterId = "CDFC0212-EC7A-4000-86F8-EA19B9E6D7F9";
layerId = "603A6D91-AF55-4AC0-BB6A-548CB0AA9FA6";
name = "Aug 29, 23, 12:38";
shapes = (
{
closed = 1;
nodes = (
(230,-4,o),
(314,59,o),
(378.643,229.055,c),
(368.717,312.077,l),
(342.375,203.412,o),
(292,132,o),
(262,132,cs),
(186,132,o),
(267,327,o),
(267,403,cs),
(267,472,o),
(214,504,o),
(162,504,cs),
(98,504,o),
(28,457,o),
(28,375,c),
(36,372,l),
(53,407,o),
(97,408,o),
(97,367,cs),
(97,320,o),
(57,210,o),
(57,123,cs),
(57,49,o),
(103,-4,o),
(163,-4,cs)
);
},
{
closed = 1;
nodes = (
(499,-4,o),
(567,44,o),
(567,117,c),
(560,119,l),
(546,100,o),
(530,96,o),
(518,96,cs),
(498,96,o),
(490,111,o),
(490,135,cs),
(490,210,o),
(554,337,o),
(554,406,cs),
(554,471,o),
(510,504,o),
(463,504,cs),
(428,504,o),
(391,485,o),
(370,449,c),
(370,442,l),
(400,319,o),
(330,249,o),
(330,124,cs),
(330,33,o),
(381,-4,o),
(436,-4,cs)
);
}
);
width = 589;
},
{
anchors = (
{
name = bottom;
pos = (273,0);
},
{
name = ogonek;
pos = (526,10);
},
{
name = top;
pos = (317,500);
},
{
name = topright;
pos = (591,500);
}
);
associatedMasterId = "CDFC0212-EC7A-4000-86F8-EA19B9E6D7F9";
layerId = "BF114E66-5FB4-4456-B7B0-F1BCF08F65A2";
name = "Aug 29, 23, 12:38";
shapes = (
{
closed = 1;
nodes = (
(230,-4,o),
(314,59,o),
(378.643,229.055,c),
(368.717,312.077,l),
(342.375,203.412,o),
(292,132,o),
(262,132,cs),
(186,132,o),
(267,327,o),
(267,403,cs),
(267,472,o),
(214,504,o),
(162,504,cs),
(98,504,o),
(28,457,o),
(28,375,c),
(36,372,l),
(53,407,o),
(97,408,o),
(97,367,cs),
(97,320,o),
(57,210,o),
(57,123,cs),
(57,49,o),
(103,-4,o),
(163,-4,cs)
);
},
{
closed = 1;
nodes = (
(499,-4,o),
(567,44,o),
(567,117,c),
(560,119,l),
(546,100,o),
(530,96,o),
(518,96,cs),
(498,96,o),
(490,111,o),
(490,135,cs),
(490,210,o),
(554,337,o),
(554,406,cs),
(554,471,o),
(510,504,o),
(463,504,cs),
(428,504,o),
(391,485,o),
(370,449,c),
(370,442,l),
(400,319,o),
(330,249,o),
(330,124,cs),
(330,33,o),
(381,-4,o),
(436,-4,cs)
);
}
);
width = 589;
},
{
anchors = (
{
name = bottom;
pos = (273,0);
},
{
name = ogonek;
pos = (526,10);
},
{
name = top;
pos = (317,500);
},
{
name = topright;
pos = (507,439);
}
);
associatedMasterId = "CDFC0212-EC7A-4000-86F8-EA19B9E6D7F9";
layerId = "152BDB78-67EF-4E4C-9E0C-F9A36FBF5982";
name = "Oct 1, 23, 18:33";
shapes = (
{
closed = 1;
nodes = (
(214,-4,o),
(275,33,o),
(330,126,c),
(330,124,ls),
(330,33,o),
(381,-4,o),
(436,-4,cs),
(499,-4,o),
(567,44,o),
(567,117,c),
(560,119,l),
(546,100,o),
(530,96,o),
(518,96,cs),
(498,96,o),
(490,111,o),
(490,135,cs),
(490,210,o),
(554,337,o),
(554,406,cs),
(554,471,o),
(510,504,o),
(463,504,cs),
(428,504,o),
(391,485,o),
(370,449,c),
(370,442,l),
(383,390,o),
(378,348,o),
(367,306,cs),
(341,201,o),
(291,132,o),
(262,132,cs),
(186,132,o),
(267,327,o),
(267,403,cs),
(267,472,o),
(214,504,o),
(162,504,cs),
(98,504,o),
(28,457,o),
(28,375,c),
(36,372,l),
(53,407,o),
(97,408,o),
(97,367,cs),
(97,320,o),
(57,210,o),
(57,123,cs),
(57,49,o),
(103,-4,o),
(163,-4,cs)
);
}
);
width = 589;
}
);
unicode = 117;
userData = {
KernOnName = u;
};
}
{
glyphname = v;
layers = (
{
anchors = (
{
name = bottom;
pos = (256,0);
},
{
name = top;
pos = (300,500);
}
);
layerId = "CDFC0212-EC7A-4000-86F8-EA19B9E6D7F9";
shapes = (
{
closed = 1;
nodes = (
(319,-4,o),
(531,124,o),
(539,371,cs),
(543,474,o),
(508,510,o),
(465,510,cs),
(425,510,o),
(370,480,o),
(353,453,c),
(353,448,l),
(361,427,o),
(364,395,o),
(362,349,cs),
(356,171,o),
(291,106,o),
(249,106,cs),
(227,106,o),
(219,125,o),
(219,154,cs),
(219,192,o),
(232,245,o),
(241,282,cs),
(255,340,o),
(265,383,o),
(266,411,cs),
(268,475,o),
(226,504,o),
(176,504,cs),
(107,504,o),
(34,447,o),
(33,379,c),
(37,375,l),
(47,389,o),
(63,398,o),
(77,398,cs),
(90,398,o),
(101,389,o),
(101,368,cs),
(101,350,o),
(93,318,o),
(81,275,cs),
(69,231,o),
(53,170,o),
(53,121,cs),
(53,36,o),
(101,-4,o),
(179,-4,cs)
);
}
);
width = 555;
},
{
anchors = (
{
name = bottom;
pos = (256,0);
},
{
name = top;
pos = (300,500);
}
);
associatedMasterId = "CDFC0212-EC7A-4000-86F8-EA19B9E6D7F9";
layerId = "FE492E94-49AD-4D6B-9F0C-D3A768DF2B88";
name = "Aug 29, 23, 12:38";
shapes = (
{
closed = 1;
nodes = (
(319,-4,o),
(531,124,o),
(540,394,cs),
(543,474,o),
(508,510,o),
(468,510,cs),
(425,510,o),
(370,480,o),
(353,453,c),
(353,448,l),
(361,427,o),
(364,395,o),
(363,359,cs),
(356,171,o),
(291,106,o),
(249,106,cs),
(173,106,o),
(263,328,o),
(265,404,cs),
(268,475,o),
(226,504,o),
(174,504,cs),
(107,504,o),
(34,447,o),
(33,379,c),
(37,375,l),
(56,404,o),
(103,409,o),
(101,368,cs),
(100,321,o),
(56,210,o),
(53,123,cs),
(50,38,o),
(99,-4,o),
(178,-4,cs)
);
}
);
width = 555;
},
{
anchors = (
{
name = bottom;
pos = (256,0);
},
{
name = top;
pos = (300,500);
}
);
associatedMasterId = "CDFC0212-EC7A-4000-86F8-EA19B9E6D7F9";
layerId = "41EFFA17-4B79-4583-9077-57EBFDAE1D6E";
name = "Aug 29, 23, 12:38";
shapes = (
{
closed = 1;
nodes = (
(319,-4,o),
(531,124,o),
(540,394,cs),
(543,474,o),
(508,510,o),
(468,510,cs),
(425,510,o),
(370,480,o),
(353,453,c),
(353,448,l),
(361,427,o),
(364,395,o),
(363,359,cs),
(356,171,o),
(291,106,o),
(249,106,cs),
(173,106,o),
(263,328,o),
(265,404,cs),
(268,475,o),
(226,504,o),
(174,504,cs),
(107,504,o),
(34,447,o),
(33,379,c),
(37,375,l),
(56,404,o),
(103,409,o),
(101,368,cs),
(100,321,o),
(56,210,o),
(53,123,cs),
(50,38,o),
(99,-4,o),
(178,-4,cs)
);
}
);
width = 555;
},
{
anchors = (
{
name = bottom;
pos = (256,0);
},
{
name = top;
pos = (300,500);
}
);
associatedMasterId = "CDFC0212-EC7A-4000-86F8-EA19B9E6D7F9";
layerId = "0429B948-D9A2-4078-AB34-23F47CEC32F8";
name = "Oct 1, 23, 18:34";
shapes = (
{
closed = 1;
nodes = (
(319,-4,o),
(531,124,o),
(540,394,cs),
(543,474,o),
(508,510,o),
(468,510,cs),
(425,510,o),
(370,480,o),
(353,453,c),
(353,448,l),
(361,427,o),
(364,395,o),
(363,359,cs),
(356,171,o),
(291,106,o),
(249,106,cs),
(173,106,o),
(263,328,o),
(265,404,cs),
(268,475,o),
(226,504,o),
(174,504,cs),
(107,504,o),
(34,447,o),
(33,379,c),
(37,375,l),
(56,404,o),
(103,409,o),
(101,368,cs),
(100,321,o),
(56,210,o),
(53,123,cs),
(50,38,o),
(99,-4,o),
(178,-4,cs)
);
}
);
width = 555;
}
);
unicode = 118;
}
{
glyphname = x;
lastChange = "2024-12-05 18:06:48 +0000";
layers = (
{
anchors = (
{
name = bottom;
pos = (212,0);
},
{
name = top;
pos = (296,500);
}
);
annotations = (
{
pos = (676.554,-48.97);
type = Text;
}
);
layerId = "CDFC0212-EC7A-4000-86F8-EA19B9E6D7F9";
shapes = (
{
closed = 1;
nodes = (
(119,-7,o),
(189,44,o),
(205,167,c),
(246,77,o),
(297,-7,o),
(365,-7,cs),
(430,-7,o),
(465,68,o),
(472,155,c),
(464,158,l),
(458,144,o),
(449,136,o),
(437,136,cs),
(413,136,o),
(384,171,o),
(332,268,c),
(360,311,o),
(406,337,o),
(460,337,cs),
(471,337,o),
(480,336,o),
(490,335,c),
(508,365,o),
(519,402,o),
(519,435,cs),
(519,475,o),
(502,507,o),
(461,507,cs),
(405,507,o),
(337,446,o),
(308,314,c),
(274,384,o),
(223,509,o),
(146,509,cs),
(89,509,o),
(49,439,o),
(42,347,c),
(47,345,l),
(56,360,o),
(65,371,o),
(77,371,cs),
(98,371,o),
(130,333,o),
(181,221,c),
(154,163,o),
(109,131,o),
(44,131,cs),
(33,131,o),
(21,132,o),
(8,134,c),
(-6,113,o),
(-12,91,o),
(-12,71,cs),
(-12,27,o),
(19,-7,o),
(64,-7,cs)
);
}
);
width = 527;
},
{
annotations = (
{
pos = (676.554,-48.97);
type = Text;
}
);
associatedMasterId = "CDFC0212-EC7A-4000-86F8-EA19B9E6D7F9";
layerId = "817E3B06-9F51-4FDC-B444-68BD2ED0A049";
name = "May 26, 23, 14:34";
shapes = (
{
closed = 1;
nodes = (
(56.618,437.086,o),
(94.456,506.764,o),
(172.635,506.764,cs),
(251.232,506.764,o),
(322.151,364.308,o),
(364.711,298.232,cs),
(476.565,124.57,o),
(528.277,115.06,o),
(547.059,158.679,c),
(555.323,156.266,l),
(555.323,68.641,o),
(524.251,-5.999,o),
(444.297,-5.999,cs),
(368.665,-5.999,o),
(291.468,92.553,o),
(235.731,191.705,cs),
(122.348,393.408,o),
(86.694,388.346,o),
(63.201,343.284,c),
(56.618,345.301,l)
);
},
{
closed = 1;
nodes = (
(371.542,641.27,o),
(625.28,520,o),
(529.976,332.963,c),
(453.708,343.16,o),
(395.248,317.578,o),
(354.033,209.85,c),
(332.44,225.112,l)
);
},
{
closed = 1;
nodes = (
(207.99,-148.177,o),
(-36.748,-2.27,o),
(39.556,134.767,c),
(115.824,124.57,o),
(214.284,175.515,o),
(255.499,283.243,c),
(287.092,267.981,l)
);
}
);
width = 591.05;
},
{
annotations = (
{
pos = (676.554,-48.97);
type = Text;
}
);
associatedMasterId = "CDFC0212-EC7A-4000-86F8-EA19B9E6D7F9";
layerId = "5AF5259D-54E3-4A10-B542-373E103D5AE2";
name = "May 31, 23, 11:16";
shapes = (
{
closed = 1;
nodes = (
(452,-6,o),
(490,69,o),
(497,156,c),
(489,159,l),
(482,145,o),
(472,137,o),
(459,137,cs),
(431,137,o),
(406,178,o),
(339,298,cs),
(302,364,o),
(244,507,o),
(165,507,cs),
(92,507,o),
(48,437,o),
(40,345,c),
(46,343,l),
(56,358,o),
(66,369,o),
(79,369,cs),
(104,369,o),
(142,326,o),
(206,192,cs),
(253,93,o),
(301,-6,o),
(372,-6,cs)
);
},
{
closed = 1;
nodes = (
(131,-6,o),
(208,53,o),
(215,200,c),
(194,235,l),
(169,170,o),
(113,130,o),
(40,130,cs),
(33,130,o),
(21,134,o),
(15,135,c),
(1,114,o),
(-5,92,o),
(-5,72,cs),
(-5,28,o),
(26,-6,o),
(70,-6,cs)
);
},
{
closed = 1;
nodes = (
(365,303,o),
(416,335,o),
(478,335,cs),
(488,335,o),
(497,334,o),
(507,333,c),
(528,368,o),
(536,401,o),
(536,428,cs),
(536,474,o),
(518,505,o),
(472,505,cs),
(416,505,o),
(338,431,o),
(317,265,c),
(338,250,l)
);
}
);
width = 550;
},
{
anchors = (
{
name = bottom;
pos = (242,0);
},
{
name = top;
pos = (286,500);
}
);
annotations = (
{
pos = (676.554,-48.97);
type = Text;
}
);
associatedMasterId = "CDFC0212-EC7A-4000-86F8-EA19B9E6D7F9";
layerId = "DAD9EF20-68A4-4BFC-880D-A15F83159BFA";
name = "Aug 29, 23, 12:38";
shapes = (
{
closed = 1;
nodes = (
(430,-7,o),
(465,68,o),
(472,155,c),
(464,158,l),
(458,144,o),
(449,136,o),
(437,136,cs),
(411,136,o),
(378,178,o),
(316,298,cs),
(282,364,o),
(229,509,o),
(146,509,cs),
(89,509,o),
(49,439,o),
(42,347,c),
(47,345,l),
(56,360,o),
(65,371,o),
(77,371,cs),
(100,371,o),
(135,326,o),
(194,192,cs),
(237,93,o),
(291,-7,o),
(366,-7,cs)
);
},
{
closed = 1;
nodes = (
(124,-7,o),
(201,53,o),
(208,200,c),
(187,235,l),
(161,168,o),
(114,131,o),
(45,131,cs),
(33,131,o),
(21,132,o),
(8,134,c),
(-6,113,o),
(-12,91,o),
(-12,71,cs),
(-12,27,o),
(19,-7,o),
(64,-7,cs)
);
},
{
closed = 1;
nodes = (
(348,303,o),
(399,337,o),
(461,337,cs),
(471,337,o),
(480,336,o),
(490,335,c),
(508,365,o),
(519,402,o),
(519,434,cs),
(519,475,o),
(502,507,o),
(461,507,cs),
(399,507,o),
(321,431,o),
(300,265,c),
(321,250,l)
);
}
);
width = 527;
},
{
anchors = (
{
name = bottom;
pos = (242,0);
},
{
name = top;
pos = (286,500);
}
);
annotations = (
{
pos = (676.554,-48.97);
type = Text;
}
);
associatedMasterId = "CDFC0212-EC7A-4000-86F8-EA19B9E6D7F9";
layerId = "9E3AC8A8-8494-4C79-ABDD-57DEC7F90641";
name = "Aug 29, 23, 12:38";
shapes = (
{
closed = 1;
nodes = (
(430,-7,o),
(465,68,o),
(472,155,c),
(464,158,l),
(458,144,o),
(449,136,o),
(437,136,cs),
(411,136,o),
(378,178,o),
(316,298,cs),
(282,364,o),
(229,509,o),
(146,509,cs),
(89,509,o),
(49,439,o),
(42,347,c),
(47,345,l),
(56,360,o),
(65,371,o),
(77,371,cs),
(100,371,o),
(135,326,o),
(194,192,cs),
(237,93,o),
(291,-7,o),
(366,-7,cs)
);
},
{
closed = 1;
nodes = (
(124,-7,o),
(201,53,o),
(208,200,c),
(187,235,l),
(161,168,o),
(114,131,o),
(45,131,cs),
(33,131,o),
(21,132,o),
(8,134,c),
(-6,113,o),
(-12,91,o),
(-12,71,cs),
(-12,27,o),
(19,-7,o),
(64,-7,cs)
);
},
{
closed = 1;
nodes = (
(348,303,o),
(399,337,o),
(461,337,cs),
(471,337,o),
(480,336,o),
(490,335,c),
(508,365,o),
(519,402,o),
(519,434,cs),
(519,475,o),
(502,507,o),
(461,507,cs),
(399,507,o),
(321,431,o),
(300,265,c),
(321,250,l)
);
}
);
width = 527;
},
{
anchors = (
{
name = bottom;
pos = (242,0);
},
{
name = top;
pos = (286,500);
}
);
annotations = (
{
pos = (676.554,-48.97);
type = Text;
}
);
associatedMasterId = "CDFC0212-EC7A-4000-86F8-EA19B9E6D7F9";
layerId = "6DAE0C29-CE65-4D7F-848B-51EC0D66E471";
name = "Oct 1, 23, 18:35";
shapes = (
{
closed = 1;
nodes = (
(119,-7,o),
(189,44,o),
(205,167,c),
(246,77,o),
(297,-7,o),
(366,-7,cs),
(430,-7,o),
(465,68,o),
(472,155,c),
(464,158,l),
(458,144,o),
(449,136,o),
(437,136,cs),
(413,136,o),
(384,171,o),
(332,268,c),
(360,311,o),
(406,337,o),
(461,337,cs),
(471,337,o),
(480,336,o),
(490,335,c),
(508,365,o),
(519,402,o),
(519,434,cs),
(519,475,o),
(502,507,o),
(461,507,cs),
(405,507,o),
(337,446,o),
(308,314,c),
(274,384,o),
(223,509,o),
(146,509,cs),
(89,509,o),
(49,439,o),
(42,347,c),
(47,345,l),
(56,360,o),
(65,371,o),
(77,371,cs),
(98,371,o),
(130,333,o),
(181,221,c),
(154,163,o),
(109,131,o),
(45,131,cs),
(33,131,o),
(21,132,o),
(8,134,c),
(-6,113,o),
(-12,91,o),
(-12,71,cs),
(-12,27,o),
(19,-7,o),
(64,-7,cs)
);
}
);
width = 527;
}
);
unicode = 120;
userData = {
KernOnName = x;
};
}
{
glyphname = y;
lastChange = "2024-12-05 18:06:48 +0000";
layers = (
{
associatedMasterId = "CDFC0212-EC7A-4000-86F8-EA19B9E6D7F9";
layerId = "23B80EC9-1AE7-4854-B9B3-27CE5434851F";
name = "May 25, 23, 01:26";
shapes = (
{
closed = 1;
nodes = (
(402.809,178.814,l),
(329.624,82.959,o),
(263.942,0.041,o),
(177.566,0.041,cs),
(98.867,0.041,o),
(47.571,41.857,o),
(47.571,126.988,cs),
(47.571,213.534,o),
(87.615,315.991,o),
(87.615,363.344,cs),
(87.615,404.007,o),
(45.43,396.973,o),
(25.849,368.475,c),
(20.151,371.525,l),
(20.151,453.984,o),
(89.204,500.168,o),
(151.822,500.168,cs),
(203.765,500.168,o),
(251.28,468.388,o),
(251.28,399.171,cs),
(251.28,305.05,o),
(212.189,199.952,o),
(212.189,142.174,cs),
(212.189,122.516,o),
(225.943,110.112,o),
(244.909,110.112,cs),
(271.963,110.112,o),
(325.065,155.501,o),
(332.41,228.596,c)
);
},
{
closed = 1;
nodes = (
(476.189,407.326,o),
(473.07,-283.663,o),
(244.293,-283.663,cs),
(86.658,-283.663,o),
(12.795,-83.281,o),
(322.532,124.978,c),
(340.871,91.076,l),
(123.342,-88.154,o),
(187.677,-171.497,o),
(212.532,-171.497,cs),
(260.32,-171.497,o),
(311.231,12.729,o),
(328.325,186.396,cs),
(339.744,302.405,o),
(344.997,413.702,o),
(344.997,462.227,cs),
(344.997,502.728,o),
(491.38,527.944,o),
(516.905,453.424,c),
(518.905,447.424,l)
);
}
);
width = 543.91;
},
{
anchors = (
{
name = bottom;
pos = (494,0);
},
{
name = top;
pos = (284,500);
}
);
background = {
shapes = (
{
closed = 0;
nodes = (
(285,109,l)
);
},
{
closed = 0;
nodes = (
(246,137,l)
);
}
);
};
layerId = "CDFC0212-EC7A-4000-86F8-EA19B9E6D7F9";
name = Regular;
shapes = (
{
closed = 1;
nodes = (
(418,-200,o),
(453,108,o),
(473,275,cs),
(485,377,o),
(492,441,o),
(504,452,c),
(502,458,ls),
(490,493,o),
(452,506,o),
(415,506,cs),
(372,506,o),
(330,489,o),
(330,441,cs),
(330,428,o),
(327,344,o),
(324,306,cs),
(313,184,o),
(264,142,o),
(237,142,cs),
(222,142,o),
(209,154,o),
(209,181,cs),
(209,225,o),
(245,326,o),
(245,400,cs),
(245,478,o),
(205,504,o),
(158,504,cs),
(96,504,o),
(34,458,o),
(23,397,c),
(40,379,l),
(47,396,o),
(61,405,o),
(72,405,cs),
(83,405,o),
(92,397,o),
(92,377,cs),
(92,336,o),
(55,237,o),
(55,165,cs),
(55,84,o),
(101,45,o),
(167,41,c),
(138,-7,o),
(126,-51,o),
(126,-87,cs),
(126,-157,o),
(170,-200,o),
(237,-200,cs)
);
},
{
closed = 1;
nodes = (
(202,-85,o),
(195,-79,o),
(195,-65,cs),
(195,-37,o),
(221,22,o),
(307,132,c),
(288,-7,o),
(254,-85,o),
(213,-85,cs)
);
}
);
width = 524;
},
{
associatedMasterId = "CDFC0212-EC7A-4000-86F8-EA19B9E6D7F9";
background = {
shapes = (
{
closed = 0;
nodes = (
(286,109,l)
);
},
{
closed = 0;
nodes = (
(247,137,l)
);
}
);
};
layerId = "BF17813A-BD58-4735-B5B6-BAB40D502196";
name = "Jun 7, 23, 11:09";
shapes = (
{
closed = 1;
nodes = (
(373,225,l),
(306,137,o),
(256,41,o),
(177,41,cs),
(105,41,o),
(55,80,o),
(55,158,cs),
(55,237,o),
(92,335,o),
(92,378,cs),
(92,396,o),
(83,404,o),
(72,404,cs),
(61,404,o),
(47,395,o),
(40,378,c),
(23,396,l),
(34,457,o),
(96,503,o),
(158,503,cs),
(205,503,o),
(245,477,o),
(245,411,cs),
(245,325,o),
(209,225,o),
(209,172,cs),
(209,154,o),
(222,142,o),
(239,142,cs),
(264,142,o),
(313,184,o),
(319,251,c)
);
},
{
closed = 1;
nodes = (
(310,136,l),
(177,-33,o),
(185,-85,o),
(211,-85,cs),
(259,-85,o),
(296,13,o),
(313,186,cs),
(325,302,o),
(330,414,o),
(330,462,cs),
(330,503,o),
(476,528,o),
(502,453,c),
(504,447,l),
(492,436,o),
(485,377,o),
(476,299,cs),
(453,108,o),
(418,-200,o),
(255,-200,cs),
(111,-200,o),
(66,-49,o),
(241,137,c)
);
}
);
width = 524;
},
{
anchors = (
{
name = bottom;
pos = (241,0);
},
{
name = top;
pos = (285,500);
}
);
associatedMasterId = "CDFC0212-EC7A-4000-86F8-EA19B9E6D7F9";
background = {
shapes = (
{
closed = 0;
nodes = (
(286,109,l)
);
},
{
closed = 0;
nodes = (
(247,137,l)
);
}
);
};
layerId = "C19DD872-551B-4A76-B93C-874ED2E5DF3F";
name = "Aug 29, 23, 12:38";
shapes = (
{
closed = 1;
nodes = (
(419,-200,o),
(454,108,o),
(477,299,cs),
(486,377,o),
(493,441,o),
(505,452,c),
(503,458,l),
(477,533,o),
(331,508,o),
(331,467,cs),
(331,419,o),
(326,302,o),
(314,186,cs),
(297,13,o),
(260,-85,o),
(212,-85,cs),
(186,-85,o),
(178,-33,o),
(311,136,c),
(242,137,l),
(67,-49,o),
(112,-200,o),
(239,-200,cs)
);
},
{
closed = 1;
nodes = (
(257,41,o),
(307,137,o),
(374,225,c),
(320,251,l),
(314,184,o),
(265,142,o),
(240,142,cs),
(223,142,o),
(210,154,o),
(210,172,cs),
(210,225,o),
(246,326,o),
(246,412,cs),
(246,478,o),
(206,504,o),
(159,504,cs),
(97,504,o),
(35,458,o),
(24,397,c),
(41,379,l),
(48,396,o),
(62,405,o),
(73,405,cs),
(84,405,o),
(93,397,o),
(93,379,cs),
(93,336,o),
(56,237,o),
(56,158,cs),
(56,80,o),
(106,41,o),
(178,41,cs)
);
}
);
width = 525;
},
{
anchors = (
{
name = bottom;
pos = (241,0);
},
{
name = top;
pos = (285,500);
}
);
associatedMasterId = "CDFC0212-EC7A-4000-86F8-EA19B9E6D7F9";
background = {
shapes = (
{
closed = 0;
nodes = (
(286,109,l)
);
},
{
closed = 0;
nodes = (
(247,137,l)
);
}
);
};
layerId = "424F1BF0-7688-46CA-8E85-2F8A38D42F0E";
name = "Aug 29, 23, 12:38";
shapes = (
{
closed = 1;
nodes = (
(419,-200,o),
(454,108,o),
(477,299,cs),
(486,377,o),
(493,441,o),
(505,452,c),
(503,458,l),
(477,533,o),
(331,508,o),
(331,467,cs),
(331,419,o),
(326,302,o),
(314,186,cs),
(297,13,o),
(260,-85,o),
(212,-85,cs),
(186,-85,o),
(178,-33,o),
(311,136,c),
(242,137,l),
(67,-49,o),
(112,-200,o),
(239,-200,cs)
);
},
{
closed = 1;
nodes = (
(257,41,o),
(307,137,o),
(374,225,c),
(320,251,l),
(314,184,o),
(265,142,o),
(240,142,cs),
(223,142,o),
(210,154,o),
(210,172,cs),
(210,225,o),
(246,326,o),
(246,412,cs),
(246,478,o),
(206,504,o),
(159,504,cs),
(97,504,o),
(35,458,o),
(24,397,c),
(41,379,l),
(48,396,o),
(62,405,o),
(73,405,cs),
(84,405,o),
(93,397,o),
(93,379,cs),
(93,336,o),
(56,237,o),
(56,158,cs),
(56,80,o),
(106,41,o),
(178,41,cs)
);
}
);
width = 525;
},
{
anchors = (
{
name = bottom;
pos = (495,0);
},
{
name = top;
pos = (285,500);
}
);
associatedMasterId = "CDFC0212-EC7A-4000-86F8-EA19B9E6D7F9";
background = {
shapes = (
{
closed = 0;
nodes = (
(286,109,l)
);
},
{
closed = 0;
nodes = (
(247,137,l)
);
}
);
};
layerId = "1EE884F7-BC04-4169-8139-8B3856916C00";
name = "Oct 1, 23, 18:35";
shapes = (
{
closed = 1;
nodes = (
(419,-200,o),
(454,108,o),
(477,299,cs),
(486,377,o),
(493,441,o),
(505,452,c),
(503,458,ls),
(477,533,o),
(331,508,o),
(331,467,cs),
(331,428,o),
(328,344,o),
(320,251,cs),
(314,184,o),
(265,142,o),
(240,142,cs),
(223,142,o),
(210,154,o),
(210,172,cs),
(210,225,o),
(246,326,o),
(246,412,cs),
(246,478,o),
(206,504,o),
(159,504,cs),
(97,504,o),
(35,458,o),
(24,397,c),
(41,379,l),
(48,396,o),
(62,405,o),
(73,405,cs),
(84,405,o),
(93,397,o),
(93,379,cs),
(93,336,o),
(56,237,o),
(56,158,cs),
(56,84,o),
(102,45,o),
(168,41,c),
(86,-98,o),
(135,-200,o),
(239,-200,cs)
);
},
{
closed = 1;
nodes = (
(186,-85,o),
(178,-34,o),
(308,132,c),
(289,-7,o),
(255,-85,o),
(212,-85,cs)
);
}
);
width = 525;
}
);
metricLeft = n;
unicode = 121;
userData = {
KernOnName = y;
};
}
{
glyphname = bar;
layers = (
{
layerId = "CDFC0212-EC7A-4000-86F8-EA19B9E6D7F9";
shapes = (
{
closed = 1;
nodes = (
(145,-100,o),
(160,-95,o),
(171,-86,c),
(171,215,o),
(197,583,o),
(213,643,c),
(207,671,o),
(166,687,o),
(130,687,cs),
(98,687,o),
(69,675,o),
(64,634,cs),
(62,612,o),
(40,347,o),
(40,122,cs),
(40,74,o),
(41,25,o),
(42,5,cs),
(48,-73,o),
(90,-100,o),
(128,-100,cs)
);
}
);
width = 233;
}
);
unicode = 124;
userData = {
KernOnSpecialSpacing = {
};
};
}
{
glyphname = cent;
layers = (
{
layerId = "CDFC0212-EC7A-4000-86F8-EA19B9E6D7F9";
shapes = (
{
closed = 1;
nodes = (
(291,-78,o),
(300,-76,o),
(309,-73,c),
(312,5,l),
(409,23,o),
(496,91,o),
(496,194,c),
(486,198,l),
(464,149,o),
(401,118,o),
(333,118,cs),
(333,118,o),
(325,118,o),
(318,119,c),
(326,233,o),
(338,322,o),
(354,407,c),
(381,389,o),
(402,356,o),
(404,310,c),
(478,310,o),
(519,353,o),
(519,399,cs),
(519,447,o),
(473,499,o),
(375,505,c),
(380,527,o),
(385,548,o),
(391,570,c),
(384,581,o),
(372,588,o),
(359,588,cs),
(337,588,o),
(310,567,o),
(298,520,cs),
(296,513,o),
(295,507,o),
(293,501,c),
(172,480,o),
(36,396,o),
(22,245,cs),
(11,118,o),
(92,9,o),
(240,0,c),
(240,-5,ls),
(240,-57,o),
(257,-78,o),
(283,-78,cs)
);
},
{
closed = 1;
nodes = (
(209,177,o),
(194,221,o),
(194,266,cs),
(194,330,o),
(225,394,o),
(273,414,c),
(257,333,o),
(247,254,o),
(243,149,c)
);
}
);
width = 526;
},
{
associatedMasterId = "CDFC0212-EC7A-4000-86F8-EA19B9E6D7F9";
layerId = "7BD8D5EE-8AC0-454D-8C75-F10AD7892ACD";
name = "Sep 30, 23, 18:59";
shapes = (
{
closed = 1;
nodes = (
(375,0,o),
(496,72,o),
(496,194,c),
(486,198,l),
(464,149,o),
(401,118,o),
(341,118,cs),
(236,118,o),
(194,191,o),
(194,266,cs),
(194,343,o),
(239,421,o),
(306,421,cs),
(355,421,o),
(401,380,o),
(404,310,c),
(563,310,o),
(566,506,o),
(353,506,cs),
(222,506,o),
(38,424,o),
(21,232,cs),
(11,113,o),
(98,0,o),
(258,0,cs)
);
},
{
closed = 1;
nodes = (
(318,234,o),
(343,385,o),
(391,570,c),
(371,602,o),
(317,594,o),
(298,520,cs),
(255,355,o),
(241,242,o),
(240,-5,cs),
(240,-72,o),
(268,-88,o),
(309,-73,c)
);
}
);
width = 526;
}
);
unicode = 162;
userData = {
KernOnSpecialSpacing = {
L = symbols;
R = symbols;
};
};
}
{
glyphname = copyright;
layers = (
{
layerId = "CDFC0212-EC7A-4000-86F8-EA19B9E6D7F9";
shapes = (
{
closed = 1;
nodes = (
(593,-7,o),
(742,223,o),
(742,424,cs),
(742,583,o),
(649,726,o),
(442,726,cs),
(180,726,o),
(31,497,o),
(31,295,cs),
(31,136,o),
(124,-7,o),
(331,-7,cs)
);
},
{
closed = 1;
nodes = (
(177,77,o),
(118,194,o),
(118,309,cs),
(118,464,o),
(226,643,o),
(423,643,cs),
(581,643,o),
(655,527,o),
(655,405,cs),
(655,258,o),
(549,77,o),
(343,77,cs)
);
},
{
closed = 1;
nodes = (
(441,149,o),
(557,195,o),
(557,307,c),
(549,310,l),
(530,269,o),
(484,244,o),
(440,244,cs),
(389,244,o),
(341,278,o),
(341,365,cs),
(341,452,o),
(389,500,o),
(426,500,cs),
(448,500,o),
(456,482,o),
(456,458,cs),
(456,444,o),
(453,427,o),
(449,410,c),
(526,410,o),
(567,451,o),
(567,490,cs),
(567,529,o),
(528,567,o),
(443,567,cs),
(286,567,o),
(195,437,o),
(195,322,cs),
(195,231,o),
(252,149,o),
(360,149,cs)
);
}
);
width = 758;
},
{
associatedMasterId = "CDFC0212-EC7A-4000-86F8-EA19B9E6D7F9";
layerId = "82D51807-46E0-4871-BD3D-5C0185FE9BEA";
name = "Sep 30, 23, 19:03";
shapes = (
{
closed = 1;
nodes = (
(593,-7,o),
(742,223,o),
(742,424,cs),
(742,583,o),
(649,726,o),
(442,726,cs),
(180,726,o),
(31,497,o),
(31,295,cs),
(31,136,o),
(124,-7,o),
(331,-7,cs)
);
},
{
closed = 1;
nodes = (
(171,77,o),
(114,202,o),
(118,321,cs),
(124,473,o),
(231,643,o),
(422,643,cs),
(586,643,o),
(660,519,o),
(655,392,cs),
(650,248,o),
(543,77,o),
(342,77,cs)
);
},
{
closed = 1;
nodes = (
(441,149,o),
(557,195,o),
(557,307,c),
(549,310,l),
(530,269,o),
(484,244,o),
(440,244,cs),
(389,244,o),
(341,278,o),
(341,365,cs),
(341,452,o),
(389,500,o),
(426,500,cs),
(448,500,o),
(456,482,o),
(456,458,cs),
(456,444,o),
(453,427,o),
(449,410,c),
(526,410,o),
(567,451,o),
(567,490,cs),
(567,529,o),
(528,567,o),
(443,567,cs),
(286,567,o),
(195,437,o),
(195,322,cs),
(195,231,o),
(252,149,o),
(360,149,cs)
);
}
);
width = 758;
}
);
unicode = 169;
userData = {
KernOnSpecialSpacing = {
R = symbols;
};
};
}
{
glyphname = periodcentered;
layers = (
{
anchors = (
{
name = _center;
pos = (-6,244);
}
);
layerId = "CDFC0212-EC7A-4000-86F8-EA19B9E6D7F9";
shapes = (
{
closed = 1;
nodes = (
(176,154,o),
(225,200,o),
(225,258,cs),
(225,308,o),
(184,348,o),
(129,348,cs),
(68,348,o),
(20,301,o),
(20,244,cs),
(20,193,o),
(60,154,o),
(115,154,cs)
);
}
);
width = 245;
},
{
.lastUpdate = 755078906.556;
associatedMasterId = "CDFC0212-EC7A-4000-86F8-EA19B9E6D7F9";
layerId = "B75D0887-F6DB-41ED-9555-AD720132C0B7";
name = "Sep 14, 23, 13:23";
shapes = (
{
pos = (14,160);
ref = period;
}
);
width = 245;
},
{
anchors = (
{
name = _center;
pos = (-6,244);
}
);
associatedMasterId = "CDFC0212-EC7A-4000-86F8-EA19B9E6D7F9";
layerId = "0A5B2209-0E8E-47D1-B1DE-1C21F7562942";
name = "Sep 30, 23, 19:08";
shapes = (
{
closed = 1;
nodes = (
(176,154,o),
(225,200,o),
(225,258,cs),
(225,308,o),
(184,348,o),
(129,348,cs),
(68,348,o),
(20,301,o),
(20,244,cs),
(20,193,o),
(60,154,o),
(115,154,cs)
);
}
);
width = 245;
}
);
unicode = 183;
userData = {
KernOnSpecialSpacing = {
L = NoKerning;
R = NoKerning;
};
};
}
{
glyphname = Ccedilla;
layers = (
{
anchors = (
{
name = bottom;
pos = (285,0);
},
{
name = top;
pos = (388,710);
}
);
layerId = "CDFC0212-EC7A-4000-86F8-EA19B9E6D7F9";
shapes = (
{
closed = 1;
nodes = (
(320,-239,o),
(370,-201,o),
(370,-142,cs),
(370,-104,o),
(349,-56,o),
(293,-5,c),
(412,2,o),
(533,99,o),
(559,272,c),
(546,278,l),
(476,181,o),
(402,133,o),
(342,133,cs),
(267,133,o),
(213,210,o),
(217,340,cs),
(222,475,o),
(288,601,o),
(371,601,cs),
(398,601,o),
(422,587,o),
(422,541,cs),
(422,518,o),
(416,486,o),
(401,444,c),
(530,444,o),
(590,514,o),
(590,589,cs),
(590,675,o),
(510,726,o),
(411,726,cs),
(254,726,o),
(49,599,o),
(40,321,cs),
(34,154,o),
(101,12,o),
(248,-4,c),
(272,-30,o),
(281,-56,o),
(281,-77,cs),
(281,-114,o),
(254,-139,o),
(225,-139,cs),
(209,-139,o),
(193,-132,o),
(180,-118,c),
(176,-120,l),
(178,-204,o),
(225,-239,o),
(272,-239,cs)
);
}
);
width = 599;
},
{
.lastUpdate = 755078906.536;
associatedMasterId = "CDFC0212-EC7A-4000-86F8-EA19B9E6D7F9";
layerId = "2EBA53AA-DCB1-45C9-B175-88E4A43135C7";
name = "Oct 9, 23, 13:45";
shapes = (
{
ref = C;
},
{
pos = (166,0);
ref = cedillacomb.case;
}
);
width = 599;
}
);
unicode = 199;
}
{
glyphname = Eth;
layers = (
{
layerId = "CDFC0212-EC7A-4000-86F8-EA19B9E6D7F9";
shapes = (
{
closed = 1;
nodes = (
(552,-7,o),
(699,218,o),
(699,419,cs),
(699,584,o),
(601,733,o),
(372,733,cs),
(188,733,o),
(72,637,o),
(72,476,c),
(78,474,l),
(123,551,o),
(160,582,o),
(177,582,cs),
(186,582,o),
(190,573,o),
(190,558,cs),
(190,527,o),
(174,468,o),
(154,405,c),
(126,407,o),
(94,410,o),
(57,414,c),
(36,401,o),
(25,382,o),
(25,364,cs),
(25,339,o),
(47,316,o),
(93,315,cs),
(102,315,o),
(114,314,o),
(126,314,c),
(110,260,o),
(96,211,o),
(93,177,cs),
(92,169,o),
(92,163,o),
(92,157,cs),
(92,39,o),
(214,-7,o),
(319,-7,cs)
);
},
{
closed = 1;
nodes = (
(291,125,o),
(276,151,o),
(276,192,cs),
(276,224,o),
(285,265,o),
(295,311,c),
(313,311,o),
(331,311,o),
(351,312,cs),
(398,314,o),
(416,341,o),
(416,368,cs),
(416,386,o),
(407,405,o),
(392,414,c),
(364,411,o),
(339,408,o),
(317,407,c),
(325,448,o),
(331,491,o),
(331,532,cs),
(331,560,o),
(328,587,o),
(321,612,c),
(459,612,o),
(515,506,o),
(515,393,cs),
(515,264,o),
(442,125,o),
(336,125,cs)
);
}
);
width = 716;
},
{
associatedMasterId = "CDFC0212-EC7A-4000-86F8-EA19B9E6D7F9";
layerId = "68719487-A175-409F-BF18-403250CB8EB0";
name = "Sep 8, 23, 22:26";
shapes = (
{
closed = 1;
nodes = (
(735,-7,o),
(876,733,o),
(330,733,cs),
(182,733,o),
(66,637,o),
(66,476,c),
(72,474,l),
(117,551,o),
(154,582,o),
(175,582,cs),
(224,582,o),
(98,287,o),
(87,183,cs),
(73,44,o),
(202,-7,o),
(299,-7,cs)
);
},
{
closed = 1;
nodes = (
(397,271,o),
(435,340,o),
(410,424,c),
(355,395,o),
(250,431,o),
(147,442,cs),
(63,451,o),
(1,398,o),
(18,300,c),
(81,334,o),
(151,296,o),
(284,283,cs)
);
},
{
closed = 1;
nodes = (
(177,125,o),
(368,414,o),
(315,612,c),
(612,612,o),
(529,125,o),
(310,125,cs)
);
}
);
width = 706;
},
{
associatedMasterId = "CDFC0212-EC7A-4000-86F8-EA19B9E6D7F9";
layerId = "27462819-05AF-4B02-A52E-8429DBD3CB41";
name = "Sep 29, 23, 10:18";
shapes = (
{
closed = 1;
nodes = (
(536,-7,o),
(686,211,o),
(686,410,cs),
(686,578,o),
(579,733,o),
(357,733,cs),
(182,733,o),
(66,637,o),
(66,476,c),
(72,474,l),
(117,551,o),
(154,582,o),
(173,582,cs),
(183,582,o),
(186,574,o),
(186,561,cs),
(186,536,o),
(175,492,o),
(159,441,c),
(155,441,o),
(151,442,o),
(143,443,cs),
(72,450,o),
(15,409,o),
(15,331,cs),
(15,321,o),
(16,311,o),
(18,300,c),
(37,310,o),
(56,314,o),
(76,314,cs),
(90,314,o),
(104,312,o),
(119,310,c),
(103,260,o),
(90,213,o),
(87,185,cs),
(86,176,o),
(86,169,o),
(86,163,cs),
(86,39,o),
(207,-7,o),
(299,-7,cs)
);
},
{
closed = 1;
nodes = (
(293,282,o),
(301,282,o),
(309,282,cs),
(383,282,o),
(417,322,o),
(417,377,cs),
(417,392,o),
(415,408,o),
(410,424,c),
(395,416,o),
(376,413,o),
(354,413,cs),
(341,413,o),
(326,414,o),
(311,416,c),
(319,455,o),
(325,494,o),
(325,533,cs),
(325,560,o),
(322,587,o),
(315,612,c),
(451,612,o),
(507,510,o),
(507,399,cs),
(507,268,o),
(429,125,o),
(310,125,cs),
(274,125,o),
(262,146,o),
(262,180,cs),
(262,207,o),
(270,243,o),
(280,283,c),
(284,283,ls)
);
}
);
width = 707;
},
{
associatedMasterId = "CDFC0212-EC7A-4000-86F8-EA19B9E6D7F9";
layerId = "66DE7CFC-DC0B-4CD4-B2F3-77031F2D5B1E";
name = "Sep 30, 23, 19:35";
shapes = (
{
closed = 1;
nodes = (
(6,383,o),
(17,317,o),
(89,315,cs),
(171,313,o),
(236,308,o),
(351,312,cs),
(430,315,o),
(429,391,o),
(392,414,c),
(257,399,o),
(200,398,o),
(57,414,c)
);
},
{
closed = 1;
nodes = (
(552,-7,o),
(699,218,o),
(699,419,cs),
(699,584,o),
(601,733,o),
(372,733,cs),
(188,733,o),
(72,637,o),
(72,476,c),
(78,474,l),
(123,551,o),
(160,582,o),
(177,582,cs),
(186,582,o),
(190,573,o),
(190,558,cs),
(190,486,o),
(102,268,o),
(93,178,cs),
(92,169,o),
(92,163,o),
(92,157,cs),
(92,39,o),
(214,-7,o),
(319,-7,cs)
);
},
{
closed = 1;
nodes = (
(291,125,o),
(276,151,o),
(276,192,cs),
(276,271,o),
(331,408,o),
(331,532,cs),
(331,560,o),
(328,587,o),
(321,612,c),
(459,612,o),
(515,506,o),
(515,393,cs),
(515,264,o),
(442,125,o),
(336,125,cs)
);
}
);
width = 716;
}
);
metricRight = D;
unicode = 208;
}
{
glyphname = multiply;
layers = (
{
layerId = "CDFC0212-EC7A-4000-86F8-EA19B9E6D7F9";
shapes = (
{
closed = 1;
nodes = (
(457,37,o),
(482,67,o),
(495,119,c),
(464,127,o),
(407,192,o),
(349,263,c),
(405,326,o),
(454,376,o),
(482,391,c),
(467,438,o),
(439,462,o),
(407,462,cs),
(381,462,o),
(351,446,o),
(315,404,cs),
(309,396,o),
(290,374,o),
(270,349,c),
(251,374,o),
(233,396,o),
(227,403,cs),
(191,446,o),
(161,462,o),
(134,462,cs),
(101,462,o),
(72,438,o),
(57,391,c),
(86,376,o),
(134,321,o),
(191,254,c),
(133,187,o),
(75,127,o),
(45,119,c),
(58,67,o),
(82,38,o),
(115,38,cs),
(139,38,o),
(168,54,o),
(210,102,cs),
(223,117,o),
(246,145,o),
(269,172,c),
(292,145,o),
(315,118,o),
(321,111,cs),
(369,54,o),
(399,37,o),
(424,37,cs)
);
}
);
width = 541;
},
{
associatedMasterId = "CDFC0212-EC7A-4000-86F8-EA19B9E6D7F9";
layerId = "3B8A551B-8DFF-4961-998F-7C875847A454";
name = "Aug 10, 23, 18:13";
shapes = (
{
closed = 1;
nodes = (
(109,355,o),
(222,206,o),
(328,82,cs),
(403,-4,o),
(463,19,o),
(486,110,c),
(430,125,o),
(295,316,o),
(219,405,cs),
(158,476,o),
(86,468,o),
(58,382,c)
);
},
{
closed = 1;
nodes = (
(458,468,o),
(386,476,o),
(325,405,cs),
(249,316,o),
(114,125,o),
(58,110,c),
(81,20,o),
(141,-4,o),
(216,82,cs),
(322,206,o),
(435,355,o),
(486,382,c)
);
}
);
width = 600;
},
{
associatedMasterId = "CDFC0212-EC7A-4000-86F8-EA19B9E6D7F9";
layerId = "D4C7D3CC-E664-4DF1-A14A-5ED737BB64A6";
name = "Sep 30, 23, 18:55";
shapes = (
{
closed = 1;
nodes = (
(319,288,l),
(282,334,o),
(246,381,o),
(218,414,cs),
(157,485,o),
(85,477,o),
(57,391,c),
(93,372,o),
(161,290,o),
(236,200,c)
);
},
{
closed = 1;
nodes = (
(454,477,o),
(385,485,o),
(324,414,cs),
(248,325,o),
(101,134,o),
(45,119,c),
(68,29,o),
(125,5,o),
(200,91,cs),
(306,215,o),
(431,364,o),
(482,391,c)
);
},
{
closed = 1;
nodes = (
(246,200,l),
(276,164,o),
(307,127,o),
(337,91,cs),
(412,5,o),
(472,28,o),
(495,119,c),
(460,128,o),
(393,208,o),
(329,288,c)
);
}
);
width = 541;
}
);
unicode = 215;
userData = {
KernOnSpecialSpacing = {
L = math;
R = math;
};
};
}
{
glyphname = Oslash;
layers = (
{
anchors = (
{
name = bottom;
pos = (312,0);
},
{
name = top;
pos = (375,720);
}
);
layerId = "CDFC0212-EC7A-4000-86F8-EA19B9E6D7F9";
shapes = (
{
closed = 1;
nodes = (
(170,-106,o),
(177,-104,o),
(185,-100,c),
(199,-66,o),
(213,-32,o),
(227,0,c),
(247,-5,o),
(268,-7,o),
(291,-7,cs),
(517,-7,o),
(647,223,o),
(647,424,cs),
(647,526,o),
(614,621,o),
(545,676,c),
(587,753,l),
(588,757,o),
(588,761,o),
(588,764,cs),
(588,789,o),
(570,803,o),
(548,803,cs),
(528,803,o),
(504,791,o),
(490,764,cs),
(464,717,l),
(442,723,o),
(417,726,o),
(390,726,cs),
(164,726,o),
(35,497,o),
(35,295,cs),
(35,186,o),
(72,85,o),
(151,32,c),
(139,1,ls),
(131,-21,o),
(127,-40,o),
(127,-55,cs),
(127,-88,o),
(142,-106,o),
(163,-106,cs)
);
},
{
closed = 1;
nodes = (
(313,120,o),
(298,125,o),
(284,134,c),
(343,268,o),
(398,389,o),
(455,504,c),
(464,471,o),
(469,432,o),
(469,392,cs),
(469,262,o),
(421,120,o),
(331,120,cs)
);
},
{
closed = 1;
nodes = (
(218,255,o),
(213,292,o),
(213,331,cs),
(213,460,o),
(266,600,o),
(367,600,cs),
(379,600,o),
(389,597,o),
(399,592,c),
(338,471,o),
(280,346,o),
(228,222,c)
);
}
);
width = 667;
},
{
anchors = (
{
name = bottom;
pos = (312,0);
},
{
name = top;
pos = (375,720);
}
);
associatedMasterId = "CDFC0212-EC7A-4000-86F8-EA19B9E6D7F9";
layerId = "86BAD8B3-02D8-4FB3-983E-6A32A10D802C";
name = "Oct 9, 23, 13:20";
shapes = (
{
closed = 1;
nodes = (
(696,-7,o),
(791,726,o),
(390,726,cs),
(-15,726,o),
(-109,-7,o),
(291,-7,cs)
);
},
{
closed = 1;
nodes = (
(158,120,o),
(181,600,o),
(367,600,cs),
(518,600,o),
(497,120,o),
(331,120,cs)
);
},
{
closed = 1;
nodes = (
(330,248,o),
(445,500,o),
(587,753,c),
(598,811,o),
(522,823,o),
(490,764,cs),
(359,527,o),
(232,248,o),
(139,1,cs),
(108,-79,o),
(142,-123,o),
(185,-100,c)
);
}
);
width = 667;
}
);
unicode = 216;
}
{
glyphname = Thorn;
layers = (
{
associatedMasterId = "CDFC0212-EC7A-4000-86F8-EA19B9E6D7F9";
layerId = "C0A8246B-EF6C-4825-BE18-B6027ECB319C";
name = "Jul 12, 23, 13:55";
shapes = (
{
closed = 1;
nodes = (
(203,314,o),
(269,599,o),
(299,659,c),
(272,768,o),
(143,719,o),
(127,677,cs),
(104,617,o),
(37,262,o),
(20,71,cs),
(13,-15,o),
(123,-25,o),
(185,33,c)
);
},
{
closed = 1;
nodes = (
(171,153,o),
(243,77,o),
(324,77,cs),
(424,77,o),
(536,185,o),
(536,410,cs),
(536,555,o),
(479,627,o),
(408,627,cs),
(317,627,o),
(204,515,o),
(161,272,c),
(208,244,l),
(234,421,o),
(290,507,o),
(328,507,cs),
(360,507,o),
(375,459,o),
(375,399,cs),
(375,305,o),
(339,181,o),
(273,181,cs),
(237,181,o),
(205,228,o),
(203,301,c),
(172,294,l)
);
}
);
width = 556;
},
{
associatedMasterId = "CDFC0212-EC7A-4000-86F8-EA19B9E6D7F9";
layerId = "FDB11EAF-E732-4A6A-A75D-DF2718B52371";
name = "Jul 12, 23, 13:56";
shapes = (
{
closed = 1;
nodes = (
(203,283,o),
(269,599,o),
(299,659,c),
(272,768,o),
(143,719,o),
(127,677,cs),
(104,617,o),
(37,231,o),
(19,-31,cs),
(13,-117,o),
(123,-127,o),
(185,-69,c)
);
},
{
closed = 1;
nodes = (
(171,153,o),
(243,77,o),
(324,77,cs),
(424,77,o),
(536,185,o),
(536,410,cs),
(536,555,o),
(479,627,o),
(408,627,cs),
(317,627,o),
(204,515,o),
(161,272,c),
(208,244,l),
(234,421,o),
(290,507,o),
(328,507,cs),
(360,507,o),
(375,459,o),
(375,399,cs),
(375,305,o),
(339,181,o),
(273,181,cs),
(237,181,o),
(205,228,o),
(203,301,c),
(172,294,l)
);
}
);
width = 556;
},
{
associatedMasterId = "CDFC0212-EC7A-4000-86F8-EA19B9E6D7F9";
layerId = "6BDBE16D-E92C-4B7C-98EF-9E06203F6019";
name = "Jul 12, 23, 13:58";
shapes = (
{
closed = 1;
nodes = (
(191,167,o),
(263,96,o),
(344,96,cs),
(444,96,o),
(556,197,o),
(556,406,cs),
(556,541,o),
(499,607,o),
(428,607,cs),
(337,607,o),
(224,503,o),
(181,278,c),
(228,252,l),
(254,416,o),
(310,496,o),
(348,496,cs),
(380,496,o),
(395,451,o),
(395,396,cs),
(395,308,o),
(359,193,o),
(293,193,cs),
(257,193,o),
(225,237,o),
(223,305,c),
(192,298,l)
);
},
{
closed = 1;
nodes = (
(293,549,ls),
(320,680,o),
(245,724,o),
(184,724,cs),
(102,724,o),
(23,638,o),
(20,536,c),
(27,534,l),
(66,610,o),
(131,608,o),
(129,539,cs),
(124,392,o),
(20,247,o),
(20,119,cs),
(20,-19,o),
(141,-29,o),
(201,29,c),
(189,144,o),
(227,265,o),
(259,382,c)
);
}
);
width = 576;
},
{
associatedMasterId = "CDFC0212-EC7A-4000-86F8-EA19B9E6D7F9";
layerId = "CCF82047-082B-44CA-B241-594DDCE8EC07";
name = "Jul 12, 23, 14:00";
shapes = (
{
closed = 1;
nodes = (
(201,199,o),
(276,137,o),
(357,137,cs),
(457,137,o),
(565,225,o),
(558,410,cs),
(553,528,o),
(494,587,o),
(423,587,cs),
(332,587,o),
(223,495,o),
(188,297,c),
(235,274,l),
(256,418,o),
(309,489,o),
(347,489,cs),
(379,489,o),
(395,449,o),
(397,401,cs),
(400,323,o),
(368,222,o),
(302,222,cs),
(266,222,o),
(233,261,o),
(229,321,c),
(198,314,l)
);
},
{
closed = 1;
nodes = (
(286,549,ls),
(309,680,o),
(232,724,o),
(171,724,cs),
(89,724,o),
(13,638,o),
(14,536,c),
(21,534,l),
(57,610,o),
(122,608,o),
(123,539,cs),
(123,392,o),
(24,247,o),
(28,119,cs),
(33,-19,o),
(155,-29,o),
(213,29,c),
(197,144,o),
(230,265,o),
(258,382,c)
);
}
);
width = 576;
},
{
associatedMasterId = "CDFC0212-EC7A-4000-86F8-EA19B9E6D7F9";
layerId = "3790A448-875C-48D3-94C9-D4EDBF14B538";
name = "Jul 12, 23, 14:02";
shapes = (
{
closed = 1;
nodes = (
(201,199,o),
(266,117,o),
(347,117,cs),
(447,117,o),
(565,225,o),
(558,410,cs),
(553,528,o),
(494,587,o),
(423,587,cs),
(332,587,o),
(223,495,o),
(188,297,c),
(235,274,l),
(256,418,o),
(309,489,o),
(347,489,cs),
(379,489,o),
(395,449,o),
(397,401,cs),
(400,323,o),
(368,222,o),
(302,222,cs),
(266,222,o),
(233,291,o),
(229,351,c),
(198,314,l)
);
},
{
closed = 1;
nodes = (
(226,314,o),
(292,599,o),
(322,659,c),
(295,768,o),
(166,719,o),
(150,677,cs),
(127,617,o),
(60,262,o),
(43,71,cs),
(36,-15,o),
(146,-25,o),
(208,33,c)
);
}
);
width = 576;
},
{
anchors = (
{
name = bottom;
pos = (268,0);
},
{
name = top;
pos = (331,720);
}
);
layerId = "CDFC0212-EC7A-4000-86F8-EA19B9E6D7F9";
name = Regular;
shapes = (
{
closed = 1;
nodes = (
(146,-57,o),
(180,-48,o),
(196,-32,c),
(198,24,o),
(202,86,o),
(208,148,c),
(239,87,o),
(293,57,o),
(349,57,cs),
(453,57,o),
(565,159,o),
(565,368,cs),
(565,521,o),
(505,590,o),
(431,590,cs),
(370,590,o),
(301,544,o),
(246,459,c),
(262,558,o),
(278,634,o),
(289,659,c),
(275,708,o),
(241,725,o),
(207,725,cs),
(166,725,o),
(124,700,o),
(113,670,cs),
(95,617,o),
(42,178,o),
(36,83,cs),
(28,-42,o),
(70,-57,o),
(113,-57,cs)
);
},
{
closed = 1;
nodes = (
(259,156,o),
(229,183,o),
(217,237,c),
(217,241,o),
(218,245,o),
(218,249,c),
(245,387,o),
(305,478,o),
(348,478,cs),
(375,478,o),
(395,441,o),
(395,360,cs),
(395,225,o),
(340,156,o),
(290,156,cs)
);
}
);
width = 580;
},
{
associatedMasterId = "CDFC0212-EC7A-4000-86F8-EA19B9E6D7F9";
layerId = "D5DF9E03-CBC9-4FE2-BFD7-48CEE0C5989E";
name = "Jul 12, 23, 14:03";
shapes = (
{
closed = 1;
nodes = (
(195,177,o),
(267,106,o),
(348,106,cs),
(448,106,o),
(560,207,o),
(560,416,cs),
(560,551,o),
(503,617,o),
(432,617,cs),
(341,617,o),
(228,513,o),
(185,288,c),
(232,262,l),
(258,426,o),
(314,506,o),
(352,506,cs),
(384,506,o),
(399,461,o),
(399,406,cs),
(399,318,o),
(363,203,o),
(297,203,cs),
(261,203,o),
(229,247,o),
(227,315,c),
(196,308,l)
);
},
{
closed = 1;
nodes = (
(293,549,ls),
(320,680,o),
(245,724,o),
(184,724,cs),
(102,724,o),
(23,638,o),
(20,536,c),
(27,534,l),
(66,610,o),
(131,608,o),
(129,539,cs),
(124,392,o),
(20,167,o),
(20,39,cs),
(20,-99,o),
(141,-109,o),
(201,-51,c),
(189,64,o),
(227,265,o),
(259,382,c)
);
}
);
width = 576;
},
{
associatedMasterId = "CDFC0212-EC7A-4000-86F8-EA19B9E6D7F9";
layerId = "9F815EED-6FC9-47C8-8909-F0D10122D4A1";
name = "Jul 12, 23, 14:03";
shapes = (
{
closed = 1;
nodes = (
(195,137,o),
(267,66,o),
(348,66,cs),
(448,66,o),
(560,167,o),
(560,376,cs),
(560,511,o),
(503,577,o),
(432,577,cs),
(341,577,o),
(228,473,o),
(185,248,c),
(232,222,l),
(258,386,o),
(314,466,o),
(352,466,cs),
(384,466,o),
(399,421,o),
(399,366,cs),
(399,278,o),
(363,163,o),
(297,163,cs),
(261,163,o),
(229,207,o),
(227,275,c),
(196,268,l)
);
},
{
closed = 1;
nodes = (
(218,283,o),
(284,599,o),
(314,659,c),
(287,768,o),
(158,719,o),
(142,677,cs),
(119,617,o),
(52,231,o),
(34,-31,cs),
(28,-117,o),
(138,-127,o),
(200,-69,c)
);
}
);
width = 576;
},
{
anchors = (
{
name = bottom;
pos = (268,0);
},
{
name = top;
pos = (331,720);
}
);
associatedMasterId = "CDFC0212-EC7A-4000-86F8-EA19B9E6D7F9";
layerId = "5857B585-45B2-468B-B893-8BC1C3E7FB43";
name = "Sep 8, 23, 22:10";
shapes = (
{
closed = 1;
nodes = (
(258,475,o),
(399,581,o),
(395,347,cs),
(391,115,o),
(213,92,o),
(211,292,c),
(180,285,l),
(173,-35,o),
(558,-27,o),
(565,361,cs),
(571,719,o),
(247,635,o),
(169,263,c),
(216,237,l)
);
},
{
closed = 1;
nodes = (
(206,230,o),
(261,599,o),
(289,659,c),
(258,768,o),
(130,719,o),
(116,677,cs),
(95,617,o),
(42,178,o),
(30,-8,cs),
(26,-68,o),
(159,-70,o),
(196,-32,c)
);
}
);
width = 580;
}
);
unicode = 222;
}
{
color = 0;
glyphname = ae;
layers = (
{
associatedMasterId = "CDFC0212-EC7A-4000-86F8-EA19B9E6D7F9";
layerId = "33922FE8-B223-497C-86C0-1DB7F5EF670E";
name = "Jul 10, 23, 16:02";
shapes = (
{
closed = 1;
nodes = (
(603,197,o),
(664,312,o),
(664,366,cs),
(664,399,o),
(646,423,o),
(621,423,cs),
(575,423,o),
(514,383,o),
(514,243,cs),
(514,148,o),
(564,109,o),
(623,109,cs),
(683,109,o),
(751,147,o),
(779,190,c),
(786,185,l),
(786,47,o),
(657,-7,o),
(560,-7,cs),
(206,-7,o),
(287,507,o),
(646,507,cs),
(753,507,o),
(805,446,o),
(805,376,cs),
(805,224,o),
(606,114,o),
(465,270,c),
(463,313,l)
);
},
{
closed = 1;
nodes = (
(357,206,l),
(312,51,o),
(238,-7,o),
(151,-7,cs),
(73,-7,o),
(3,39,o),
(3,131,cs),
(3,308,o),
(228,317,o),
(269,251,c),
(269,237,l),
(261,240,o),
(252,242,o),
(243,242,cs),
(201,242,o),
(172,205,o),
(172,165,cs),
(172,61,o),
(297,92,o),
(322,226,c)
);
},
{
closed = 1;
nodes = (
(342,273,l),
(372,491,o),
(42,384,o),
(362,206,c),
(328,155,l),
(-2,321,o),
(174,495,o),
(337,495,cs),
(438,495,o),
(533,429,o),
(503,254,c)
);
}
);
width = 1085;
},
{
associatedMasterId = "CDFC0212-EC7A-4000-86F8-EA19B9E6D7F9";
layerId = "1B02AB66-1400-45B4-89AA-DF0F808E71D5";
name = "Jul 10, 23, 18:27";
shapes = (
{
closed = 1;
nodes = (
(603,197,o),
(664,312,o),
(664,366,cs),
(664,399,o),
(646,423,o),
(621,423,cs),
(575,423,o),
(514,383,o),
(514,243,cs),
(514,148,o),
(564,109,o),
(623,109,cs),
(683,109,o),
(751,147,o),
(779,190,c),
(786,185,l),
(786,47,o),
(657,-7,o),
(560,-7,cs),
(206,-7,o),
(287,507,o),
(646,507,cs),
(753,507,o),
(805,446,o),
(805,376,cs),
(805,224,o),
(606,114,o),
(465,270,c),
(463,313,l)
);
},
{
closed = 1;
nodes = (
(397,206,l),
(327,-68,o),
(22,-61,o),
(22,131,cs),
(22,308,o),
(228,317,o),
(269,251,c),
(269,237,l),
(261,240,o),
(252,242,o),
(243,242,cs),
(201,242,o),
(172,205,o),
(172,165,cs),
(172,61,o),
(317,117,o),
(342,251,c)
);
},
{
closed = 1;
nodes = (
(344,287,l),
(413,504,o),
(42,384,o),
(362,206,c),
(328,155,l),
(-2,321,o),
(174,495,o),
(317,495,cs),
(438,495,o),
(492,429,o),
(462,254,c)
);
}
);
width = 825;
},
{
anchors = (
{
name = bottom;
pos = (365,0);
},
{
name = top;
pos = (409,500);
}
);
associatedMasterId = "CDFC0212-EC7A-4000-86F8-EA19B9E6D7F9";
layerId = "9D325836-99B0-4D4C-B8A4-F35657AF2B45";
name = "Sep 8, 23, 22:05";
shapes = (
{
closed = 1;
nodes = (
(620,-7,o),
(735,69,o),
(735,185,c),
(728,190,l),
(700,147,o),
(632,109,o),
(572,109,cs),
(513,109,o),
(463,148,o),
(463,243,cs),
(463,383,o),
(524,423,o),
(570,423,cs),
(595,423,o),
(613,399,o),
(613,366,cs),
(613,312,o),
(552,197,o),
(432,313,c),
(434,270,l),
(555,114,o),
(754,224,o),
(754,376,cs),
(754,461,o),
(682,507,o),
(598,507,cs),
(476,507,o),
(329,412,o),
(329,201,cs),
(329,51,o),
(418,-7,o),
(513,-7,cs)
);
},
{
closed = 1;
nodes = (
(252,-7,o),
(357,59,o),
(395,206,c),
(340,251,l),
(315,117,o),
(170,61,o),
(170,165,cs),
(170,205,o),
(199,242,o),
(241,242,cs),
(250,242,o),
(259,240,o),
(267,237,c),
(267,251,l),
(226,317,o),
(20,308,o),
(20,131,cs),
(20,42,o),
(85,-7,o),
(163,-7,cs)
);
},
{
closed = 1;
nodes = (
(360,206,l),
(18,364,o),
(357,560,o),
(330,224,c),
(419,203,l),
(459,418,o),
(400,507,o),
(279,507,cs),
(138,507,o),
(-17,296,o),
(326,155,c)
);
}
);
width = 774;
},
{
anchors = (
{
name = bottom;
pos = (365,0);
},
{
name = top;
pos = (409,500);
}
);
associatedMasterId = "CDFC0212-EC7A-4000-86F8-EA19B9E6D7F9";
layerId = "220157F5-47C1-4626-9798-2DC726F5DD10";
name = "Sep 11, 23, 18:45";
shapes = (
{
closed = 1;
nodes = (
(620,-7,o),
(735,69,o),
(735,185,c),
(728,190,l),
(700,147,o),
(632,109,o),
(572,109,cs),
(513,109,o),
(465,148,o),
(465,243,cs),
(465,383,o),
(524,423,o),
(570,423,cs),
(595,423,o),
(613,399,o),
(613,366,cs),
(613,312,o),
(552,197,o),
(432,313,c),
(434,270,l),
(555,114,o),
(754,224,o),
(754,376,cs),
(754,461,o),
(682,507,o),
(598,507,cs),
(476,507,o),
(329,412,o),
(329,201,cs),
(329,51,o),
(418,-7,o),
(513,-7,cs)
);
},
{
closed = 1;
nodes = (
(252,-7,o),
(357,59,o),
(395,206,c),
(340,251,l),
(315,117,o),
(170,61,o),
(170,165,cs),
(170,205,o),
(199,242,o),
(241,242,cs),
(250,242,o),
(259,240,o),
(267,237,c),
(267,251,l),
(226,317,o),
(20,308,o),
(20,131,cs),
(20,42,o),
(85,-7,o),
(163,-7,cs)
);
},
{
closed = 1;
nodes = (
(360,206,l),
(18,364,o),
(357,560,o),
(330,224,c),
(419,203,l),
(459,418,o),
(400,507,o),
(279,507,cs),
(138,507,o),
(-17,296,o),
(326,155,c)
);
}
);
width = 774;
},
{
anchors = (
{
name = bottom;
pos = (360,0);
},
{
name = top;
pos = (404,500);
}
);
associatedMasterId = "CDFC0212-EC7A-4000-86F8-EA19B9E6D7F9";
layerId = "34B2EA02-A90D-4846-9E36-9AE1F7DD4B94";
name = "Sep 21, 23, 17:33";
shapes = (
{
closed = 1;
nodes = (
(615,-7,o),
(730,69,o),
(730,185,c),
(723,190,l),
(695,147,o),
(627,109,o),
(567,109,cs),
(508,109,o),
(460,148,o),
(460,243,cs),
(460,383,o),
(519,423,o),
(565,423,cs),
(590,423,o),
(608,399,o),
(608,366,cs),
(608,312,o),
(547,197,o),
(427,313,c),
(429,270,l),
(550,114,o),
(749,224,o),
(749,376,cs),
(749,461,o),
(677,507,o),
(593,507,cs),
(471,507,o),
(324,412,o),
(324,201,cs),
(324,51,o),
(413,-7,o),
(508,-7,cs)
);
},
{
closed = 1;
nodes = (
(247,-7,o),
(352,59,o),
(390,206,c),
(335,251,l),
(310,117,o),
(165,61,o),
(165,165,cs),
(165,205,o),
(194,242,o),
(236,242,cs),
(245,242,o),
(254,240,o),
(262,237,c),
(262,251,l),
(221,317,o),
(15,308,o),
(15,131,cs),
(15,42,o),
(80,-7,o),
(158,-7,cs)
);
},
{
closed = 1;
nodes = (
(355,206,l),
(13,364,o),
(352,560,o),
(325,224,c),
(414,203,l),
(454,418,o),
(395,507,o),
(274,507,cs),
(133,507,o),
(-22,296,o),
(321,155,c)
);
}
);
width = 764;
},
{
anchors = (
{
name = bottom;
pos = (365,0);
},
{
name = top;
pos = (450,500);
}
);
associatedMasterId = "CDFC0212-EC7A-4000-86F8-EA19B9E6D7F9";
layerId = "563B1E5F-4800-4EDC-9BA6-1A01250CE623";
name = "Oct 1, 23, 21:09";
shapes = (
{
closed = 1;
nodes = (
(620,-7,o),
(735,69,o),
(735,185,c),
(728,190,l),
(700,147,o),
(632,109,o),
(572,109,cs),
(513,109,o),
(465,148,o),
(465,243,cs),
(465,383,o),
(524,423,o),
(570,423,cs),
(595,423,o),
(613,399,o),
(613,366,cs),
(613,312,o),
(552,197,o),
(432,313,c),
(434,270,l),
(555,114,o),
(754,224,o),
(754,376,cs),
(754,461,o),
(682,507,o),
(598,507,cs),
(476,507,o),
(329,412,o),
(329,201,cs),
(329,51,o),
(418,-7,o),
(513,-7,cs)
);
},
{
closed = 1;
nodes = (
(252,-7,o),
(357,59,o),
(395,206,c),
(340,251,l),
(315,108,o),
(163,52,o),
(163,165,cs),
(163,205,o),
(199,242,o),
(241,242,cs),
(250,242,o),
(259,240,o),
(267,237,c),
(267,251,l),
(226,317,o),
(20,308,o),
(20,131,cs),
(20,42,o),
(85,-7,o),
(163,-7,cs)
);
},
{
closed = 1;
nodes = (
(360,206,l),
(18,364,o),
(357,560,o),
(330,224,c),
(419,203,l),
(459,418,o),
(400,507,o),
(279,507,cs),
(138,507,o),
(-17,306,o),
(326,165,c)
);
}
);
width = 784;
},
{
associatedMasterId = "CDFC0212-EC7A-4000-86F8-EA19B9E6D7F9";
layerId = "AB41DB92-1FAD-4DF2-ADF1-72CFDD7F77C7";
name = "Oct 1, 23, 21:10";
shapes = (
{
closed = 1;
nodes = (
(319,185,l),
(307,186,o),
(361,337,o),
(368,466,c),
(368,507,o),
(495,532,o),
(520,457,c),
(522,451,l),
(490,378,o),
(454,237,o),
(454,142,c)
);
},
{
closed = 1;
nodes = (
(352,331,l),
(284,495,o),
(187,348,o),
(187,231,cs),
(187,49,o),
(299,104,o),
(350,332,c),
(411,300,l),
(379,-28,o),
(30,-144,o),
(30,205,cs),
(30,508,o),
(371,635,o),
(401,350,c)
);
},
{
closed = 1;
nodes = (
(603,197,o),
(664,312,o),
(664,366,cs),
(664,399,o),
(646,423,o),
(621,423,cs),
(575,423,o),
(514,383,o),
(514,243,cs),
(514,148,o),
(564,109,o),
(623,109,cs),
(683,109,o),
(751,147,o),
(779,190,c),
(786,185,l),
(786,47,o),
(657,-7,o),
(560,-7,cs),
(206,-7,o),
(287,507,o),
(646,507,cs),
(753,507,o),
(805,446,o),
(805,376,cs),
(805,224,o),
(606,114,o),
(465,270,c),
(463,313,l)
);
}
);
width = 1085;
},
{
associatedMasterId = "CDFC0212-EC7A-4000-86F8-EA19B9E6D7F9";
layerId = "2A935433-585E-484B-8AE1-4ED202447D03";
name = "Oct 1, 23, 21:12";
shapes = (
{
closed = 1;
nodes = (
(319,185,l),
(307,186,o),
(361,337,o),
(368,466,c),
(368,507,o),
(495,532,o),
(520,457,c),
(522,451,l),
(490,378,o),
(454,237,o),
(454,142,c)
);
},
{
closed = 1;
nodes = (
(346,331,l),
(278,495,o),
(181,348,o),
(181,231,cs),
(181,49,o),
(294,114,o),
(345,342,c),
(406,310,l),
(374,-18,o),
(24,-144,o),
(24,205,cs),
(24,508,o),
(365,635,o),
(395,350,c)
);
},
{
closed = 1;
nodes = (
(507,277,o),
(540,263,o),
(565,263,cs),
(653,263,o),
(670,423,o),
(591,423,cs),
(545,423,o),
(484,383,o),
(484,243,cs),
(484,148,o),
(534,109,o),
(593,109,cs),
(653,109,o),
(721,147,o),
(749,190,c),
(756,185,l),
(756,47,o),
(627,-7,o),
(530,-7,cs),
(176,-7,o),
(287,507,o),
(646,507,cs),
(739,507,o),
(777,448,o),
(777,382,cs),
(777,197,o),
(573,130,o),
(445,272,c),
(463,313,l)
);
}
);
width = 1085;
},
{
anchors = (
{
name = bottom;
pos = (365,0);
},
{
name = top;
pos = (450,500);
}
);
associatedMasterId = "CDFC0212-EC7A-4000-86F8-EA19B9E6D7F9";
layerId = "46EA22C5-A0F7-4A42-BD2B-B06D9B03C91A";
name = "Oct 1, 23, 21:12";
shapes = (
{
closed = 1;
nodes = (
(620,-7,o),
(735,69,o),
(735,185,c),
(728,190,l),
(700,147,o),
(632,109,o),
(572,109,cs),
(513,109,o),
(465,148,o),
(465,243,cs),
(465,383,o),
(524,423,o),
(570,423,cs),
(595,423,o),
(613,399,o),
(613,366,cs),
(613,312,o),
(552,197,o),
(432,313,c),
(434,270,l),
(555,114,o),
(754,224,o),
(754,376,cs),
(754,461,o),
(682,507,o),
(598,507,cs),
(476,507,o),
(329,412,o),
(329,201,cs),
(329,51,o),
(418,-7,o),
(513,-7,cs)
);
},
{
closed = 1;
nodes = (
(252,-7,o),
(357,59,o),
(395,206,c),
(340,251,l),
(315,108,o),
(163,52,o),
(163,165,cs),
(163,205,o),
(199,242,o),
(241,242,cs),
(250,242,o),
(259,240,o),
(267,237,c),
(267,251,l),
(226,317,o),
(20,308,o),
(20,131,cs),
(20,42,o),
(85,-7,o),
(163,-7,cs)
);
},
{
closed = 1;
nodes = (
(360,206,l),
(18,364,o),
(357,560,o),
(330,224,c),
(419,203,l),
(459,418,o),
(400,507,o),
(279,507,cs),
(138,507,o),
(-17,306,o),
(326,165,c)
);
}
);
width = 784;
},
{
anchors = (
{
name = bottom;
pos = (351,0);
},
{
name = top;
pos = (437,500);
}
);
layerId = "CDFC0212-EC7A-4000-86F8-EA19B9E6D7F9";
name = Regular;
shapes = (
{
closed = 1;
nodes = (
(620,-7,o),
(749,47,o),
(749,185,c),
(742,190,l),
(714,147,o),
(646,109,o),
(587,109,cs),
(528,109,o),
(479,146,o),
(477,237,c),
(515,209,o),
(557,196,o),
(597,196,cs),
(689,196,o),
(770,266,o),
(770,374,cs),
(770,448,o),
(732,507,o),
(631,507,cs),
(588,507,o),
(542,496,o),
(502,477,c),
(487,497,o),
(460,505,o),
(434,505,cs),
(397,505,o),
(361,488,o),
(361,466,cs),
(361,423,l),
(336,478,o),
(294,510,o),
(246,510,cs),
(154,510,o),
(27,390,o),
(27,194,cs),
(27,59,o),
(88,-3,o),
(163,-3,cs),
(219,-3,o),
(274,33,o),
(351,144,c),
(358,67,o),
(429,-7,o),
(532,-7,cs)
);
},
{
closed = 1;
nodes = (
(202,123,o),
(184,158,o),
(184,217,cs),
(184,311,o),
(229,404,o),
(279,404,cs),
(302,404,o),
(337,384,o),
(359,336,c),
(349,300,o),
(332,241,o),
(307,193,cs),
(286,154,o),
(260,123,o),
(232,123,cs)
);
},
{
closed = 1;
nodes = (
(538,263,o),
(512,272,o),
(480,295,c),
(493,393,o),
(544,423,o),
(581,423,cs),
(618,423,o),
(635,393,o),
(635,358,cs),
(635,314,o),
(608,263,o),
(559,263,cs)
);
}
);
width = 785;
},
{
anchors = (
{
name = bottom;
pos = (371,0);
},
{
name = top;
pos = (415,500);
}
);
associatedMasterId = "CDFC0212-EC7A-4000-86F8-EA19B9E6D7F9";
layerId = "338E4F26-B397-436B-9920-C42657F3AA8E";
name = "Oct 1, 23, 21:17";
shapes = (
{
closed = 1;
nodes = (
(627,-7,o),
(756,47,o),
(756,185,c),
(749,190,l),
(721,147,o),
(653,109,o),
(594,109,cs),
(535,109,o),
(486,146,o),
(484,237,c),
(522,209,o),
(564,196,o),
(604,196,cs),
(696,196,o),
(777,266,o),
(777,374,cs),
(777,448,o),
(739,507,o),
(638,507,cs),
(595,507,o),
(549,496,o),
(509,477,c),
(494,497,o),
(467,505,o),
(441,505,cs),
(404,505,o),
(368,488,o),
(368,466,cs),
(368,334,l),
(386,348,l),
(369,455,o),
(316,510,o),
(253,510,cs),
(161,510,o),
(34,390,o),
(34,194,cs),
(34,59,o),
(95,-3,o),
(170,-3,cs),
(234,-3,o),
(296,43,o),
(390,194,c),
(361,189,l),
(339,99,o),
(416,-7,o),
(539,-7,cs)
);
},
{
closed = 1;
nodes = (
(209,123,o),
(191,158,o),
(191,217,cs),
(191,311,o),
(236,404,o),
(286,404,cs),
(309,404,o),
(332,384,o),
(354,336,c),
(349,316,o),
(345,298,o),
(339,280,cs),
(336,269,ls),
(306,174,o),
(265,123,o),
(234,123,cs)
);
},
{
closed = 1;
nodes = (
(545,263,o),
(519,272,o),
(487,295,c),
(500,393,o),
(551,423,o),
(588,423,cs),
(625,423,o),
(642,393,o),
(642,358,cs),
(642,314,o),
(615,263,o),
(566,263,cs)
);
}
);
width = 786;
}
);
unicode = 230;
}
{
glyphname = ccedilla;
layers = (
{
anchors = (
{
name = bottom;
pos = (223,0);
},
{
name = top;
pos = (307,509);
}
);
layerId = "CDFC0212-EC7A-4000-86F8-EA19B9E6D7F9";
shapes = (
{
closed = 1;
nodes = (
(298,-239,o),
(348,-201,o),
(348,-142,cs),
(348,-103,o),
(326,-55,o),
(269,-3,c),
(361,11,o),
(465,69,o),
(465,187,c),
(455,191,l),
(432,140,o),
(375,110,o),
(321,110,cs),
(258,110,o),
(199,151,o),
(199,258,cs),
(199,365,o),
(258,424,o),
(303,424,cs),
(331,424,o),
(341,402,o),
(341,373,cs),
(341,355,o),
(337,334,o),
(332,314,c),
(427,314,o),
(477,364,o),
(477,412,cs),
(477,460,o),
(429,507,o),
(325,507,cs),
(132,507,o),
(20,347,o),
(20,206,cs),
(20,94,o),
(90,-7,o),
(223,-7,cs),
(228,-7,l),
(250,-32,o),
(259,-56,o),
(259,-77,cs),
(259,-113,o),
(232,-138,o),
(202,-138,cs),
(187,-138,o),
(171,-132,o),
(158,-118,c),
(154,-120,l),
(156,-205,o),
(202,-239,o),
(249,-239,cs)
);
}
);
width = 489;
},
{
.lastUpdate = 755078906.546;
associatedMasterId = "CDFC0212-EC7A-4000-86F8-EA19B9E6D7F9";
layerId = "E8734D98-8C63-4FD5-821E-DD73A9C5A219";
name = "Oct 9, 23, 13:45";
shapes = (
{
ref = c;
},
{
pos = (144,0);
ref = cedillacomb;
}
);
width = 489;
}
);
unicode = 231;
}
{
glyphname = thorn;
layers = (
{
anchors = (
{
name = bottom;
pos = (268,0);
},
{
name = top;
pos = (312,500);
}
);
layerId = "CDFC0212-EC7A-4000-86F8-EA19B9E6D7F9";
shapes = (
{
closed = 1;
nodes = (
(161,-200,o),
(189,-183,o),
(207,-150,c),
(207,-144,l),
(200,-119,o),
(196,-92,o),
(196,-61,cs),
(196,-19,o),
(203,28,o),
(213,85,c),
(240,27,o),
(290,-4,o),
(345,-4,cs),
(443,-4,o),
(555,97,o),
(555,298,cs),
(555,441,o),
(498,507,o),
(426,507,cs),
(375,507,o),
(316,473,o),
(267,402,c),
(271,431,o),
(274,461,o),
(277,487,cs),
(280,511,o),
(282,532,o),
(282,555,cs),
(282,625,o),
(263,700,o),
(187,700,cs),
(119,700,o),
(49,639,o),
(49,570,c),
(56,566,l),
(65,577,o),
(80,586,o),
(93,586,cs),
(108,586,o),
(120,575,o),
(120,535,cs),
(120,425,o),
(30,59,o),
(30,-71,cs),
(30,-165,o),
(77,-200,o),
(127,-200,cs)
);
},
{
closed = 1;
nodes = (
(265,93,o),
(240,118,o),
(228,160,c),
(255,319,o),
(310,396,o),
(349,396,cs),
(379,396,o),
(394,351,o),
(394,295,cs),
(394,208,o),
(358,93,o),
(295,93,cs)
);
}
);
width = 580;
},
{
anchors = (
{
name = bottom;
pos = (268,0);
},
{
name = top;
pos = (312,500);
}
);
associatedMasterId = "CDFC0212-EC7A-4000-86F8-EA19B9E6D7F9";
layerId = "A8785DD8-F7C7-49C1-ACFC-26E848C0700D";
name = "Sep 8, 23, 22:11";
shapes = (
{
closed = 1;
nodes = (
(161,-200,o),
(189,-183,o),
(207,-150,c),
(207,-144,l),
(170,-17,o),
(239,146,o),
(278,492,cs),
(287,573,o),
(289,700,o),
(179,700,cs),
(119,700,o),
(49,639,o),
(49,570,c),
(56,566,l),
(75,589,o),
(120,604,o),
(120,544,cs),
(120,425,o),
(30,59,o),
(30,-99,cs),
(30,-165,o),
(77,-200,o),
(127,-200,cs)
);
},
{
closed = 1;
nodes = (
(443,-4,o),
(555,97,o),
(555,306,cs),
(555,441,o),
(498,507,o),
(427,507,cs),
(336,507,o),
(223,403,o),
(180,178,c),
(227,152,l),
(253,316,o),
(309,396,o),
(347,396,cs),
(379,396,o),
(394,351,o),
(394,296,cs),
(394,208,o),
(358,93,o),
(292,93,cs),
(256,93,o),
(224,137,o),
(222,205,c),
(191,198,l),
(190,67,o),
(262,-4,o),
(343,-4,cs)
);
}
);
width = 580;
}
);
unicode = 254;
}
{
glyphname = Aogonek;
layers = (
{
anchors = (
{
name = bottom;
pos = (319,0);
},
{
name = ogonek;
pos = (658,10);
},
{
name = top;
pos = (361,710);
}
);
layerId = "CDFC0212-EC7A-4000-86F8-EA19B9E6D7F9";
shapes = (
{
closed = 1;
nodes = (
(593,-215,o),
(629,-163,o),
(629,-121,cs),
(629,-94,o),
(614,-72,o),
(587,-70,c),
(585,-71,l),
(587,-77,o),
(588,-82,o),
(588,-87,cs),
(588,-110,o),
(567,-123,o),
(546,-123,cs),
(526,-123,o),
(506,-111,o),
(506,-81,cs),
(506,-43,o),
(537,-16,o),
(573,7,c),
(616,29,o),
(650,77,o),
(650,146,c),
(643,151,l),
(638,139,o),
(619,122,o),
(597,122,cs),
(573,122,o),
(558,144,o),
(549,178,cs),
(534,230,o),
(533,311,o),
(529,473,c),
(529,473,o),
(527,554,o),
(513,605,cs),
(490,689,o),
(424,726,o),
(356,726,cs),
(267,726,o),
(174,664,o),
(174,550,c),
(185,548,l),
(193,593,o),
(215,617,o),
(230,617,cs),
(239,617,o),
(246,608,o),
(246,584,cs),
(246,448,o),
(14,245,o),
(14,61,cs),
(14,14,o),
(52,-4,o),
(93,-4,cs),
(142,-4,o),
(190,21,o),
(190,52,cs),
(190,92,o),
(198,134,o),
(210,176,c),
(228,177,o),
(247,178,o),
(269,178,cs),
(301,178,o),
(341,176,o),
(383,173,c),
(393,80,o),
(433,27,o),
(478,6,c),
(418,-30,o),
(392,-76,o),
(392,-117,cs),
(392,-171,o),
(439,-215,o),
(513,-215,cs)
);
},
{
closed = 1;
nodes = (
(285,374,o),
(336,482,o),
(347,578,c),
(376,488,o),
(375,380,o),
(378,281,c),
(356,281,ls),
(313,281,o),
(276,278,o),
(243,269,c)
);
}
);
width = 670;
},
{
.lastUpdate = 755078906.536;
associatedMasterId = "CDFC0212-EC7A-4000-86F8-EA19B9E6D7F9";
layerId = "2534F9A8-81F5-458C-8E9F-3951396C6F1F";
name = "Oct 9, 23, 13:40";
shapes = (
{
ref = A;
},
{
pos = (382,10);
ref = ogonekcomb.case;
}
);
width = 670;
}
);
unicode = 260;
}
{
glyphname = Iogonek;
layers = (
{
anchors = (
{
name = bottom;
pos = (118,0);
},
{
name = ogonek;
pos = (236,10);
},
{
name = top;
pos = (220,710);
},
{
name = topleft;
pos = (53,710);
}
);
layerId = "CDFC0212-EC7A-4000-86F8-EA19B9E6D7F9";
shapes = (
{
closed = 1;
nodes = (
(171,-215,o),
(207,-163,o),
(207,-121,cs),
(207,-94,o),
(192,-72,o),
(165,-70,c),
(163,-71,l),
(165,-77,o),
(166,-82,o),
(166,-87,cs),
(166,-110,o),
(145,-123,o),
(124,-123,cs),
(104,-123,o),
(84,-111,o),
(84,-81,cs),
(84,-43,o),
(116,-15,o),
(153,9,c),
(167,16,o),
(179,25,o),
(187,33,c),
(188,64,o),
(191,95,o),
(193,118,cs),
(215,373,o),
(273,604,o),
(290,657,c),
(279,705,o),
(247,723,o),
(213,723,cs),
(173,723,o),
(130,698,o),
(115,658,cs),
(95,601,o),
(43,272,o),
(31,138,cs),
(31,133,o),
(30,121,o),
(30,106,cs),
(30,55,o),
(42,25,o),
(61,9,c),
(-2,-28,o),
(-30,-75,o),
(-30,-117,cs),
(-30,-171,o),
(17,-215,o),
(91,-215,cs)
);
}
);
width = 315;
},
{
.lastUpdate = 755078906.539;
associatedMasterId = "CDFC0212-EC7A-4000-86F8-EA19B9E6D7F9";
layerId = "1A3E19DF-EB19-429A-B208-A035D5028CA4";
name = "Oct 9, 23, 13:40";
shapes = (
{
ref = I;
},
{
pos = (-40,10);
ref = ogonekcomb.case;
}
);
width = 315;
}
);
unicode = 302;
}
{
glyphname = IJ;
layers = (
{
.lastUpdate = 755114787.568;
layerId = "CDFC0212-EC7A-4000-86F8-EA19B9E6D7F9";
shapes = (
{
ref = I;
},
{
pos = (315,0);
ref = J;
}
);
width = 847;
},
{
.lastUpdate = 755079734.741;
associatedMasterId = "CDFC0212-EC7A-4000-86F8-EA19B9E6D7F9";
layerId = "73E12B63-2615-49AB-B9AF-E30802F619C4";
name = "Jul 26, 23, 14:08";
shapes = (
{
ref = I;
},
{
pos = (315,0);
ref = J;
}
);
width = 847;
},
{
associatedMasterId = "CDFC0212-EC7A-4000-86F8-EA19B9E6D7F9";
layerId = "1A73DA3A-E4AC-4FF3-9B0D-16DA3A546785";
name = "Jul 26, 23, 14:19";
shapes = (
{
closed = 1;
nodes = (
(140,119,o),
(108,131,o),
(77,154,c),
(65,148,l),
(65,-26,o),
(369,-100,o),
(443,202,cs),
(475,332,o),
(486,509,o),
(544,677,c),
(523,729,o),
(421,734,o),
(369,699,c),
(329,601,o),
(322,470,o),
(317,355,c),
(317,222,o),
(243,119,o),
(170,119,cs)
);
},
{
closed = 1;
nodes = (
(95,475,o),
(36,396,o),
(68,300,cs),
(118,149,o),
(356,237,o),
(355,417,c),
(323,433,l),
(317,356,o),
(229,300,o),
(229,375,cs),
(229,437,o),
(257,495,o),
(271,573,cs),
(289,671,o),
(227,720,o),
(171,720,cs),
(98,720,o),
(12,648,o),
(9,532,c),
(16,530,l),
(55,606,o),
(105,604,o),
(104,548,c)
);
}
);
width = 854;
},
{
associatedMasterId = "CDFC0212-EC7A-4000-86F8-EA19B9E6D7F9";
layerId = "76B299CE-0BB4-499E-BA25-9C3B0AD0C3AA";
name = "Jul 26, 23, 14:21";
shapes = (
{
closed = 1;
nodes = (
(110,-15,o),
(78,-3,o),
(47,20,c),
(35,14,l),
(35,-75,o),
(114,-138,o),
(202,-138,cs),
(529,-138,o),
(434,399,o),
(544,677,c),
(523,729,o),
(421,734,o),
(369,699,c),
(329,601,o),
(322,470,o),
(317,355,c),
(317,222,o),
(292,-15,o),
(140,-15,cs)
);
},
{
closed = 1;
nodes = (
(95,475,o),
(36,396,o),
(68,300,cs),
(118,149,o),
(356,237,o),
(355,417,c),
(323,433,l),
(317,356,o),
(229,300,o),
(229,375,cs),
(229,437,o),
(257,495,o),
(271,573,cs),
(289,671,o),
(227,720,o),
(171,720,cs),
(98,720,o),
(12,648,o),
(9,532,c),
(16,530,l),
(55,606,o),
(105,604,o),
(104,548,c)
);
}
);
width = 854;
}
);
unicode = 306;
}
{
color = 0;
glyphname = ij;
layers = (
{
annotations = (
{
pos = (735,227);
text = "Space apart, needs to feel balanced in dutch text";
type = Text;
}
);
layerId = "CDFC0212-EC7A-4000-86F8-EA19B9E6D7F9";
shapes = (
{
closed = 1;
nodes = (
(429,-200,o),
(453,-48,o),
(485,152,cs),
(500,247,o),
(516,352,o),
(551,457,c),
(539,486,o),
(502,500,o),
(463,500,cs),
(434,500,o),
(404,492,o),
(383,478,c),
(355,405,o),
(344,317,o),
(338,231,c),
(331,184,o),
(282,143,o),
(248,143,cs),
(230,143,o),
(216,155,o),
(216,186,cs),
(216,241,o),
(262,312,o),
(262,395,cs),
(262,473,o),
(222,504,o),
(172,504,cs),
(109,504,o),
(38,454,o),
(31,375,c),
(38,371,l),
(48,385,o),
(60,393,o),
(71,393,cs),
(86,393,o),
(98,380,o),
(98,349,cs),
(98,288,o),
(52,222,o),
(52,155,cs),
(52,99,o),
(85,39,o),
(167,39,cs),
(228,39,o),
(298,73,o),
(332,110,c),
(319,-18,o),
(310,-118,o),
(260,-118,cs),
(239,-118,o),
(223,-100,o),
(223,-67,cs),
(223,-45,o),
(230,-18,o),
(249,15,c),
(152,15,o),
(107,-37,o),
(107,-90,cs),
(107,-145,o),
(155,-200,o),
(258,-200,cs)
);
},
{
closed = 1;
nodes = (
(263,535,o),
(309,579,o),
(309,632,cs),
(309,681,o),
(271,719,o),
(218,719,cs),
(161,719,o),
(115,674,o),
(115,621,cs),
(115,572,o),
(153,535,o),
(206,535,cs)
);
},
{
closed = 1;
nodes = (
(547,535,o),
(593,579,o),
(593,632,cs),
(593,681,o),
(555,719,o),
(502,719,cs),
(445,719,o),
(399,674,o),
(399,621,cs),
(399,572,o),
(437,535,o),
(490,535,cs)
);
}
);
width = 570;
},
{
.lastUpdate = 755078906.548;
associatedMasterId = "CDFC0212-EC7A-4000-86F8-EA19B9E6D7F9";
layerId = "DAECF456-ADC4-49B4-8B9B-43F10659E4E6";
name = "Jul 26, 23, 13:55";
shapes = (
{
ref = i;
},
{
pos = (325,0);
ref = j;
}
);
width = 604;
},
{
anchors = (
{
name = bottom;
pos = (64,0);
},
{
name = ogonek;
pos = (195,10);
},
{
name = top;
pos = (64,500);
}
);
associatedMasterId = "CDFC0212-EC7A-4000-86F8-EA19B9E6D7F9";
layerId = "1CB3253D-8858-465C-ABB6-322E21A23811";
name = "Jul 26, 23, 14:01";
shapes = (
{
closed = 1;
nodes = (
(276,535,o),
(322,579,o),
(322,633,cs),
(322,681,o),
(284,719,o),
(231,719,cs),
(174,719,o),
(128,674,o),
(128,620,cs),
(128,572,o),
(166,535,o),
(219,535,cs)
);
},
{
closed = 1;
nodes = (
(123,-32,o),
(72,111,cs),
(43,193,o),
(111,275,o),
(111,350,cs),
(111,380,o),
(99,393,o),
(85,393,cs),
(73,393,o),
(61,385,o),
(51,371,c),
(44,375,l),
(51,454,o),
(122,504,o),
(183,504,cs),
(235,504,o),
(275,473,o),
(275,395,cs),
(275,312,o),
(229,241,o),
(229,184,cs),
(229,112,o),
(318,166,o),
(320,240,c),
(350,224,l),
(351,52,o)
);
},
{
closed = 1;
nodes = (
(99,-200,o),
(83,15,o),
(279,15,c),
(231,-67,o),
(261,-118,o),
(280,-118,cs),
(356,-118,o),
(275,250,o),
(363,478,c),
(413,512,o),
(511,507,o),
(534,457,c),
(426,131,o),
(493,-200,o),
(276,-200,cs)
);
},
{
closed = 1;
nodes = (
(527,535,o),
(573,579,o),
(573,633,cs),
(573,681,o),
(535,719,o),
(482,719,cs),
(425,719,o),
(379,674,o),
(379,620,cs),
(379,572,o),
(417,535,o),
(470,535,cs)
);
}
);
width = 546;
},
{
associatedMasterId = "CDFC0212-EC7A-4000-86F8-EA19B9E6D7F9";
layerId = "779E47E8-350B-4006-8498-C6C8B51BCC25";
name = "Aug 30, 23, 21:18";
shapes = (
{
closed = 1;
nodes = (
(480,-200,o),
(413,131,o),
(521,457,c),
(501,507,o),
(403,512,o),
(353,478,c),
(265,250,o),
(346,-118,o),
(220,-118,cs),
(201,-118,o),
(171,-67,o),
(219,15,c),
(23,15,o),
(39,-200,o),
(213,-200,cs)
);
},
{
closed = 1;
nodes = (
(113,-32,o),
(341,52,o),
(340,224,c),
(309,240,l),
(304,166,o),
(219,112,o),
(219,184,cs),
(219,241,o),
(265,312,o),
(265,395,cs),
(265,473,o),
(225,504,o),
(173,504,cs),
(112,504,o),
(41,454,o),
(34,375,c),
(41,371,l),
(51,385,o),
(63,393,o),
(75,393,cs),
(89,393,o),
(101,380,o),
(101,350,cs),
(101,275,o),
(33,193,o),
(62,111,cs)
);
},
{
closed = 1;
nodes = (
(266,535,o),
(312,579,o),
(312,633,cs),
(312,681,o),
(274,719,o),
(221,719,cs),
(164,719,o),
(118,674,o),
(118,620,cs),
(118,572,o),
(156,535,o),
(209,535,cs)
);
},
{
closed = 1;
nodes = (
(517,535,o),
(563,579,o),
(563,633,cs),
(563,681,o),
(525,719,o),
(472,719,cs),
(415,719,o),
(369,674,o),
(369,620,cs),
(369,572,o),
(407,535,o),
(460,535,cs)
);
}
);
width = 550;
},
{
annotations = (
{
pos = (735,227);
text = "Space apart, needs to feel balanced in dutch text";
type = Text;
}
);
associatedMasterId = "CDFC0212-EC7A-4000-86F8-EA19B9E6D7F9";
layerId = "7072EBF9-3C8A-4A1D-9579-1C4F2C5FF7EA";
name = "Sep 26, 23, 18:09";
shapes = (
{
closed = 1;
nodes = (
(486,-200,o),
(419,131,o),
(527,457,c),
(515,486,o),
(478,500,o),
(439,500,cs),
(410,500,o),
(380,492,o),
(359,478,c),
(331,405,o),
(320,317,o),
(314,231,c),
(307,186,o),
(238,150,o),
(214,150,cs),
(201,150,o),
(192,160,o),
(192,185,cs),
(192,241,o),
(238,312,o),
(238,395,cs),
(238,473,o),
(198,504,o),
(148,504,cs),
(85,504,o),
(14,454,o),
(7,375,c),
(14,371,l),
(24,385,o),
(36,393,o),
(47,393,cs),
(62,393,o),
(74,380,o),
(74,349,cs),
(74,288,o),
(28,222,o),
(28,154,cs),
(28,140,o),
(30,125,o),
(36,109,cs),
(53,60,o),
(93,38,o),
(137,38,cs),
(186,38,o),
(267,65,o),
(308,110,c),
(295,-18,o),
(286,-118,o),
(238,-118,cs),
(215,-118,o),
(199,-100,o),
(199,-67,cs),
(199,-45,o),
(206,-18,o),
(225,15,c),
(128,15,o),
(83,-37,o),
(83,-90,cs),
(83,-145,o),
(131,-200,o),
(234,-200,cs)
);
},
{
closed = 1;
nodes = (
(239,535,o),
(285,579,o),
(285,632,cs),
(285,681,o),
(247,719,o),
(194,719,cs),
(137,719,o),
(91,674,o),
(91,621,cs),
(91,572,o),
(129,535,o),
(182,535,cs)
);
},
{
closed = 1;
nodes = (
(523,535,o),
(569,579,o),
(569,632,cs),
(569,681,o),
(531,719,o),
(478,719,cs),
(421,719,o),
(375,674,o),
(375,621,cs),
(375,572,o),
(413,535,o),
(466,535,cs)
);
}
);
width = 550;
},
{
annotations = (
{
pos = (735,227);
text = "Space apart, needs to feel balanced in dutch text";
type = Text;
}
);
associatedMasterId = "CDFC0212-EC7A-4000-86F8-EA19B9E6D7F9";
layerId = "6305ACF6-663C-4BA4-8091-FA2217F15FDC";
name = "Sep 26, 23, 18:10";
shapes = (
{
closed = 1;
nodes = (
(486,-200,o),
(419,131,o),
(527,457,c),
(515,486,o),
(478,500,o),
(439,500,cs),
(410,500,o),
(380,492,o),
(359,478,c),
(331,405,o),
(320,317,o),
(314,231,c),
(307,184,o),
(258,143,o),
(224,143,cs),
(206,143,o),
(192,155,o),
(192,185,cs),
(192,241,o),
(238,312,o),
(238,395,cs),
(238,473,o),
(198,504,o),
(148,504,cs),
(85,504,o),
(14,454,o),
(7,375,c),
(14,371,l),
(24,385,o),
(36,393,o),
(47,393,cs),
(62,393,o),
(74,380,o),
(74,349,cs),
(74,288,o),
(28,222,o),
(28,155,cs),
(28,99,o),
(61,39,o),
(142,39,cs),
(204,39,o),
(274,73,o),
(308,110,c),
(295,-18,o),
(286,-118,o),
(238,-118,cs),
(215,-118,o),
(199,-100,o),
(199,-67,cs),
(199,-45,o),
(206,-18,o),
(225,15,c),
(128,15,o),
(83,-37,o),
(83,-90,cs),
(83,-145,o),
(131,-200,o),
(234,-200,cs)
);
},
{
closed = 1;
nodes = (
(239,535,o),
(285,579,o),
(285,632,cs),
(285,681,o),
(247,719,o),
(194,719,cs),
(137,719,o),
(91,674,o),
(91,621,cs),
(91,572,o),
(129,535,o),
(182,535,cs)
);
},
{
closed = 1;
nodes = (
(523,535,o),
(569,579,o),
(569,632,cs),
(569,681,o),
(531,719,o),
(478,719,cs),
(421,719,o),
(375,674,o),
(375,621,cs),
(375,572,o),
(413,535,o),
(466,535,cs)
);
}
);
width = 550;
}
);
unicode = 307;
}
{
glyphname = lslash;
layers = (
{
.lastUpdate = 755114392.721;
layerId = "CDFC0212-EC7A-4000-86F8-EA19B9E6D7F9";
shapes = (
{
closed = 1;
nodes = (
(100,790,o),
(211,757,o),
(289,757,cs),
(390,757,o),
(427,826,o),
(375,899,c),
(348,855,o),
(231,889,o),
(129,889,cs),
(47,889,o),
(-10,822,o),
(43,748,c)
);
},
{
ref = l;
}
);
width = 306;
}
);
unicode = 322;
}
{
color = 11;
glyphname = eng;
layers = (
{
anchors = (
{
name = bottom;
pos = (343,-450);
},
{
name = top;
pos = (476,500);
}
);
associatedMasterId = "CDFC0212-EC7A-4000-86F8-EA19B9E6D7F9";
layerId = "ACABB245-5653-4F73-9F79-FDF031E64D60";
name = "Sep 11, 23, 16:17";
shapes = (
{
closed = 1;
nodes = (
(341,51,o),
(361,-118,o),
(310,-118,cs),
(261,-118,o),
(277,-40,o),
(303,6,c),
(100,6,o),
(130,-200,o),
(299,-200,cs),
(459,-200,o),
(474,-25,o),
(509,199,cs),
(519,259,o),
(538,334,o),
(538,395,cs),
(538,455,o),
(520,500,o),
(457,500,cs),
(376,500,o),
(301,426,o),
(259,364,c),
(261,374,o),
(262,385,o),
(262,395,cs),
(262,453,o),
(229,500,o),
(158,500,cs),
(63,500,o),
(20,414,o),
(22,371,c),
(28,367,l),
(42,381,o),
(54,387,o),
(65,387,cs),
(82,387,o),
(94,371,o),
(94,344,cs),
(94,293,o),
(49,174,o),
(49,105,cs),
(49,34,o),
(96,-7,o),
(145,-7,cs),
(195,-7,o),
(239,31,o),
(239,103,cs),
(239,142,o),
(226,173,o),
(226,209,cs),
(226,293,o),
(296,363,o),
(343,363,cs),
(362,363,o),
(368,351,o),
(368,331,cs),
(368,309,o),
(361,278,o),
(353,245,cs),
(343,200,o),
(331,149,o),
(331,108,cs),
(331,39,o),
(364,5,o),
(405,-4,c),
(355,248,l)
);
}
);
width = 552;
},
{
anchors = (
{
name = bottom;
pos = (335,-450);
},
{
name = top;
pos = (468,500);
}
);
associatedMasterId = "CDFC0212-EC7A-4000-86F8-EA19B9E6D7F9";
layerId = "7E7702FA-B480-4757-9792-7BB873955790";
name = "Sep 14, 23, 21:29";
shapes = (
{
closed = 1;
nodes = (
(333,51,o),
(353,-118,o),
(293,-118,cs),
(253,-118,o),
(269,-40,o),
(295,6,c),
(92,6,o),
(122,-200,o),
(293,-200,cs),
(451,-200,o),
(466,-25,o),
(492,137,cs),
(511,259,o),
(530,334,o),
(530,395,cs),
(530,455,o),
(512,500,o),
(449,500,cs),
(368,500,o),
(293,426,o),
(251,364,c),
(253,374,o),
(254,385,o),
(254,395,cs),
(254,453,o),
(221,500,o),
(150,500,cs),
(55,500,o),
(12,414,o),
(14,371,c),
(20,367,l),
(34,381,o),
(46,387,o),
(57,387,cs),
(74,387,o),
(86,371,o),
(86,344,cs),
(86,293,o),
(41,174,o),
(41,105,cs),
(41,34,o),
(88,-7,o),
(138,-7,cs),
(187,-7,o),
(231,31,o),
(231,103,cs),
(231,142,o),
(218,173,o),
(218,209,cs),
(218,293,o),
(288,363,o),
(335,363,cs),
(354,363,o),
(360,351,o),
(360,331,cs),
(360,309,o),
(353,278,o),
(345,243,cs),
(335,200,o),
(323,149,o),
(323,108,cs),
(323,39,o),
(356,5,o),
(397,-4,c),
(347,248,l)
);
}
);
width = 556;
},
{
anchors = (
{
name = bottom;
pos = (335,-450);
},
{
name = top;
pos = (468,500);
}
);
associatedMasterId = "CDFC0212-EC7A-4000-86F8-EA19B9E6D7F9";
layerId = "D3958817-8D78-4C36-B7A9-D1B3E9BC0DCC";
name = "Sep 14, 23, 21:29";
shapes = (
{
closed = 1;
nodes = (
(282,-16,o),
(343,-118,o),
(283,-118,cs),
(243,-118,o),
(259,-40,o),
(285,6,c),
(82,6,o),
(112,-200,o),
(283,-200,cs),
(441,-200,o),
(466,-25,o),
(492,137,cs),
(511,259,o),
(530,334,o),
(530,395,cs),
(530,455,o),
(512,500,o),
(449,500,cs),
(368,500,o),
(293,426,o),
(251,364,c),
(253,374,o),
(254,385,o),
(254,395,cs),
(254,453,o),
(221,500,o),
(150,500,cs),
(55,500,o),
(12,414,o),
(14,371,c),
(20,367,l),
(34,381,o),
(46,387,o),
(57,387,cs),
(74,387,o),
(86,371,o),
(86,344,cs),
(86,293,o),
(41,174,o),
(41,105,cs),
(41,34,o),
(88,-7,o),
(138,-7,cs),
(187,-7,o),
(231,31,o),
(231,103,cs),
(231,142,o),
(218,173,o),
(218,209,cs),
(218,293,o),
(288,363,o),
(335,363,cs),
(354,363,o),
(360,351,o),
(360,331,cs),
(360,309,o),
(353,278,o),
(345,243,cs),
(335,200,o),
(323,149,o),
(323,108,cs),
(323,39,o),
(356,5,o),
(397,-4,c),
(347,248,l)
);
}
);
width = 556;
},
{
anchors = (
{
name = bottom;
pos = (335,-450);
},
{
name = top;
pos = (468,500);
}
);
associatedMasterId = "CDFC0212-EC7A-4000-86F8-EA19B9E6D7F9";
layerId = "A7245859-C4F6-42F0-BAFE-1638AFEEDA96";
name = "Sep 14, 23, 21:30";
shapes = (
{
closed = 1;
nodes = (
(333,51,o),
(353,-118,o),
(293,-118,cs),
(253,-118,o),
(269,-40,o),
(295,6,c),
(92,6,o),
(122,-200,o),
(293,-200,cs),
(451,-200,o),
(466,-25,o),
(492,137,cs),
(511,259,o),
(530,334,o),
(530,395,cs),
(530,455,o),
(512,500,o),
(449,500,cs),
(368,500,o),
(293,426,o),
(251,364,c),
(253,374,o),
(254,385,o),
(254,395,cs),
(254,453,o),
(221,500,o),
(150,500,cs),
(55,500,o),
(12,414,o),
(14,371,c),
(20,367,l),
(34,381,o),
(46,387,o),
(57,387,cs),
(74,387,o),
(86,371,o),
(86,344,cs),
(86,293,o),
(41,174,o),
(41,105,cs),
(41,34,o),
(88,-7,o),
(138,-7,cs),
(187,-7,o),
(231,31,o),
(231,103,cs),
(231,142,o),
(218,173,o),
(218,209,cs),
(218,293,o),
(288,363,o),
(335,363,cs),
(354,363,o),
(360,351,o),
(360,331,cs),
(360,309,o),
(353,278,o),
(345,243,cs),
(335,200,o),
(323,149,o),
(323,108,cs),
(323,39,o),
(356,5,o),
(397,-4,c),
(347,248,l)
);
}
);
width = 556;
},
{
anchors = (
{
name = bottom;
pos = (344,-450);
},
{
name = top;
pos = (477,500);
}
);
layerId = "CDFC0212-EC7A-4000-86F8-EA19B9E6D7F9";
name = Regular;
shapes = (
{
closed = 1;
nodes = (
(391,-273,o),
(453,-162,o),
(495,38,cs),
(519,150,o),
(546,334,o),
(546,401,cs),
(546,455,o),
(528,500,o),
(463,500,cs),
(384,500,o),
(301,432,o),
(260,364,c),
(262,374,o),
(263,385,o),
(263,395,cs),
(263,453,o),
(230,500,o),
(159,500,cs),
(64,500,o),
(21,414,o),
(23,371,c),
(29,367,l),
(43,381,o),
(55,387,o),
(66,387,cs),
(83,387,o),
(95,371,o),
(95,344,cs),
(95,293,o),
(50,174,o),
(50,105,cs),
(50,34,o),
(97,-7,o),
(147,-7,cs),
(196,-7,o),
(240,31,o),
(240,103,cs),
(240,142,o),
(227,173,o),
(227,204,cs),
(227,280,o),
(304,363,o),
(352,363,cs),
(370,363,o),
(376,351,o),
(376,336,cs),
(376,305,o),
(350,156,o),
(339,95,cs),
(313,-58,o),
(292,-188,o),
(247,-188,cs),
(234,-188,o),
(225,-177,o),
(225,-153,cs),
(225,-131,o),
(233,-97,o),
(252,-50,c),
(145,-50,o),
(96,-102,o),
(96,-155,cs),
(96,-213,o),
(153,-273,o),
(254,-273,cs)
);
}
);
width = 577;
},
{
anchors = (
{
name = bottom;
pos = (335,-450);
},
{
name = top;
pos = (468,500);
}
);
associatedMasterId = "CDFC0212-EC7A-4000-86F8-EA19B9E6D7F9";
layerId = "8E6160DD-D89F-4B96-8686-1D2DFB9B5C12";
name = "Sep 29, 23, 10:27";
shapes = (
{
closed = 1;
nodes = (
(20,367,l),
(34,381,o),
(46,387,o),
(57,387,cs),
(74,387,o),
(86,371,o),
(86,344,cs),
(86,293,o),
(41,174,o),
(41,105,cs),
(41,34,o),
(88,-7,o),
(138,-7,cs),
(187,-7,o),
(231,31,o),
(231,103,cs),
(231,142,o),
(218,173,o),
(218,209,cs),
(218,280,o),
(295,363,o),
(342,363,cs),
(361,363,o),
(367,351,o),
(367,331,cs),
(367,309,o),
(360,278,o),
(352,243,cs),
(344,208,o),
(336,167,o),
(330,120,cs),
(308,-58,o),
(332,-129,o),
(288,-129,cs),
(250,-129,o),
(266,-51,o),
(292,-5,c),
(89,-5,o),
(119,-211,o),
(290,-211,cs),
(448,-211,o),
(470,-33,o),
(495,129,cs),
(515,262,o),
(537,334,o),
(537,395,cs),
(537,455,o),
(519,500,o),
(456,500,cs),
(375,500,o),
(292,432,o),
(251,364,c),
(253,374,o),
(254,385,o),
(254,395,cs),
(254,453,o),
(221,500,o),
(150,500,cs),
(55,500,o),
(12,414,o),
(14,371,c)
);
}
);
width = 562;
},
{
anchors = (
{
name = bottom;
pos = (335,-450);
},
{
name = top;
pos = (468,500);
}
);
associatedMasterId = "CDFC0212-EC7A-4000-86F8-EA19B9E6D7F9";
layerId = "A98DA941-FF51-4507-87B0-E44E6036A055";
name = "Sep 29, 23, 10:29";
shapes = (
{
closed = 1;
nodes = (
(20,367,l),
(34,381,o),
(46,387,o),
(57,387,cs),
(74,387,o),
(86,371,o),
(86,344,cs),
(86,293,o),
(41,174,o),
(41,105,cs),
(41,34,o),
(88,-7,o),
(138,-7,cs),
(187,-7,o),
(231,31,o),
(231,103,cs),
(231,142,o),
(218,173,o),
(218,204,cs),
(218,280,o),
(295,363,o),
(343,363,cs),
(361,363,o),
(367,351,o),
(367,337,cs),
(367,305,o),
(341,156,o),
(320,36,cs),
(304,-58,o),
(283,-188,o),
(238,-188,cs),
(212,-188,o),
(204,-146,o),
(243,-50,c),
(20,-50,o),
(50,-273,o),
(233,-273,cs),
(382,-273,o),
(444,-162,o),
(488,45,cs),
(510,150,o),
(537,334,o),
(537,404,cs),
(537,455,o),
(519,500,o),
(454,500,cs),
(375,500,o),
(292,432,o),
(251,364,c),
(253,374,o),
(254,385,o),
(254,395,cs),
(254,453,o),
(221,500,o),
(150,500,cs),
(55,500,o),
(12,414,o),
(14,371,c)
);
}
);
width = 562;
}
);
metricLeft = n;
unicode = 331;
}
{
glyphname = scedilla;
layers = (
{
anchors = (
{
name = bottom;
pos = (219,0);
},
{
name = top;
pos = (283,500);
}
);
layerId = "CDFC0212-EC7A-4000-86F8-EA19B9E6D7F9";
shapes = (
{
closed = 1;
nodes = (
(294,-239,o),
(344,-201,o),
(344,-143,cs),
(344,-104,o),
(322,-56,o),
(265,-4,c),
(379,16,o),
(467,84,o),
(467,160,cs),
(467,226,o),
(402,258,o),
(335,291,cs),
(285,315,o),
(232,341,o),
(232,389,cs),
(232,417,o),
(250,432,o),
(274,432,cs),
(307,432,o),
(343,402,o),
(342,334,c),
(425,334,o),
(464,372,o),
(464,412,cs),
(464,459,o),
(412,509,o),
(309,509,cs),
(200,509,o),
(63,453,o),
(63,348,cs),
(63,274,o),
(131,235,o),
(178,207,cs),
(239,172,o),
(282,148,o),
(282,111,cs),
(282,84,o),
(258,64,o),
(228,64,cs),
(189,64,o),
(141,99,o),
(142,202,c),
(64,202,o),
(16,155,o),
(16,101,cs),
(16,32,o),
(92,4,o),
(167,-5,cs),
(187,-7,o),
(207,-8,o),
(225,-8,c),
(247,-33,o),
(255,-56,o),
(255,-76,cs),
(255,-114,o),
(228,-139,o),
(199,-139,cs),
(183,-139,o),
(167,-132,o),
(154,-118,c),
(150,-120,l),
(152,-205,o),
(198,-239,o),
(245,-239,cs)
);
}
);
width = 495;
},
{
.lastUpdate = 755078906.551;
associatedMasterId = "CDFC0212-EC7A-4000-86F8-EA19B9E6D7F9";
layerId = "4A3FA6F1-2F61-470F-BB74-508FBFFF0EA0";
name = "Oct 9, 23, 13:45";
shapes = (
{
ref = s;
},
{
pos = (140,0);
ref = cedillacomb;
}
);
width = 495;
},
{
anchors = (
{
name = bottom;
pos = (219,0);
},
{
name = top;
pos = (283,500);
}
);
associatedMasterId = "CDFC0212-EC7A-4000-86F8-EA19B9E6D7F9";
layerId = "9A646558-0CD7-40F6-BCBE-05CFA1744977";
name = "Oct 9, 23, 13:49";
shapes = (
{
closed = 1;
nodes = (
(294,-239,o),
(344,-201,o),
(344,-143,cs),
(344,-104,o),
(322,-56,o),
(265,-4,c),
(379,16,o),
(467,84,o),
(467,160,cs),
(467,226,o),
(402,258,o),
(335,291,cs),
(285,315,o),
(232,341,o),
(232,389,cs),
(232,417,o),
(250,432,o),
(274,432,cs),
(307,432,o),
(343,402,o),
(342,334,c),
(425,334,o),
(464,372,o),
(464,412,cs),
(464,459,o),
(412,509,o),
(309,509,cs),
(200,509,o),
(63,453,o),
(63,348,cs),
(63,274,o),
(131,235,o),
(178,207,cs),
(239,172,o),
(282,148,o),
(282,111,cs),
(282,84,o),
(258,64,o),
(228,64,cs),
(189,64,o),
(141,99,o),
(142,202,c),
(64,202,o),
(16,155,o),
(16,105,cs),
(16,50,o),
(76,-9,o),
(209,-9,cs),
(209,-9,o),
(217,-9,o),
(225,-8,c),
(247,-33,o),
(255,-56,o),
(255,-76,cs),
(255,-114,o),
(228,-139,o),
(199,-139,cs),
(183,-139,o),
(167,-132,o),
(154,-118,c),
(150,-120,l),
(152,-205,o),
(198,-239,o),
(245,-239,cs)
);
}
);
width = 495;
}
);
unicode = 351;
}
{
glyphname = Tcedilla;
layers = (
{
anchors = (
{
name = bottom;
pos = (266,0);
},
{
name = center;
pos = (297,355);
},
{
name = top;
pos = (328,710);
}
);
layerId = "CDFC0212-EC7A-4000-86F8-EA19B9E6D7F9";
shapes = (
{
closed = 1;
nodes = (
(301,-239,o),
(351,-201,o),
(351,-143,cs),
(351,-104,o),
(329,-56,o),
(271,-3,c),
(297,1,o),
(324,13,o),
(343,33,c),
(346,230,o),
(371,430,o),
(394,551,c),
(435,545,o),
(474,540,o),
(499,540,cs),
(580,540,o),
(610,593,o),
(610,643,cs),
(610,680,o),
(593,715,o),
(564,725,c),
(544,701,o),
(504,693,o),
(456,693,cs),
(367,693,o),
(251,720,o),
(171,720,cs),
(61,720,o),
(38,668,o),
(38,542,c),
(69,569,o),
(114,578,o),
(170,578,cs),
(188,578,o),
(212,577,o),
(236,574,c),
(214,439,o),
(181,209,o),
(176,60,cs),
(174,27,o),
(196,7,o),
(226,-1,c),
(252,-28,o),
(262,-54,o),
(262,-77,cs),
(262,-114,o),
(235,-139,o),
(206,-139,cs),
(190,-139,o),
(174,-132,o),
(161,-118,c),
(157,-120,l),
(159,-205,o),
(205,-239,o),
(252,-239,cs)
);
}
);
width = 591;
},
{
.lastUpdate = 755078906.542;
associatedMasterId = "CDFC0212-EC7A-4000-86F8-EA19B9E6D7F9";
layerId = "2F1C098C-51A7-4468-A291-416EF792A802";
name = "Oct 9, 23, 13:45";
shapes = (
{
ref = T;
},
{
pos = (147,0);
ref = cedillacomb.case;
}
);
width = 591;
}
);
unicode = 354;
}
{
glyphname = tcedilla;
layers = (
{
anchors = (
{
name = bottom;
pos = (156,0);
},
{
name = center;
pos = (168,250);
},
{
name = top;
pos = (231,649);
},
{
name = topright;
pos = (347,720);
}
);
layerId = "CDFC0212-EC7A-4000-86F8-EA19B9E6D7F9";
shapes = (
{
closed = 1;
nodes = (
(231,-239,o),
(281,-201,o),
(281,-143,cs),
(281,-103,o),
(258,-55,o),
(200,-1,c),
(263,10,o),
(327,59,o),
(338,131,c),
(328,134,l),
(319,119,o),
(296,107,o),
(269,107,cs),
(239,107,o),
(216,121,o),
(216,177,cs),
(216,217,o),
(228,309,o),
(244,396,c),
(270,394,o),
(298,391,o),
(330,388,c),
(338,407,o),
(345,432,o),
(345,452,cs),
(345,463,o),
(343,472,o),
(341,480,c),
(313,482,o),
(286,484,o),
(261,485,c),
(277,558,o),
(293,615,o),
(301,623,c),
(289,658,o),
(250,671,o),
(212,671,cs),
(168,671,o),
(126,654,o),
(126,632,cs),
(126,620,o),
(112,548,o),
(95,460,c),
(63,445,o),
(34,423,o),
(7,391,c),
(9,384,l),
(33,389,o),
(57,393,o),
(84,395,c),
(65,294,o),
(48,187,o),
(48,135,cs),
(48,45,o),
(99,2,o),
(158,-3,c),
(183,-30,o),
(192,-55,o),
(192,-77,cs),
(192,-114,o),
(165,-139,o),
(136,-139,cs),
(120,-139,o),
(104,-132,o),
(91,-118,c),
(87,-120,l),
(89,-205,o),
(135,-239,o),
(182,-239,cs)
);
}
);
width = 353;
},
{
.lastUpdate = 755078906.551;
associatedMasterId = "CDFC0212-EC7A-4000-86F8-EA19B9E6D7F9";
layerId = "E81FFB91-59F5-4399-B8AE-39722A9CD566";
name = "Oct 9, 23, 13:45";
shapes = (
{
ref = t;
},
{
pos = (77,0);
ref = cedillacomb;
}
);
width = 353;
}
);
unicode = 355;
}
{
color = 8;
glyphname = tbar;
lastChange = "2024-12-05 18:03:10 +0000";
layers = (
{
.lastUpdate = 755114590.546;
anchors = (
{
name = bottom;
pos = (156,0);
},
{
name = center;
pos = (168,250);
},
{
name = top;
pos = (231,674);
},
{
name = topright;
pos = (347,720);
}
);
layerId = "CDFC0212-EC7A-4000-86F8-EA19B9E6D7F9";
shapes = (
{
closed = 1;
nodes = (
(244,-4,o),
(325,49,o),
(338,131,c),
(328,134,l),
(319,119,o),
(296,107,o),
(269,107,cs),
(239,107,o),
(216,121,o),
(216,177,cs),
(216,217,o),
(228,309,o),
(244,396,c),
(270,394,o),
(298,391,o),
(330,388,c),
(338,407,o),
(345,432,o),
(345,452,cs),
(345,463,o),
(343,472,o),
(341,480,c),
(313,482,o),
(286,484,o),
(261,485,c),
(277,558,o),
(293,615,o),
(301,623,c),
(289,658,o),
(250,671,o),
(212,671,cs),
(168,671,o),
(126,654,o),
(126,632,cs),
(126,620,o),
(112,548,o),
(95,460,c),
(63,445,o),
(34,423,o),
(7,391,c),
(9,384,l),
(33,389,o),
(57,393,o),
(84,395,c),
(65,294,o),
(48,187,o),
(48,135,cs),
(48,38,o),
(107,-4,o),
(172,-4,cs)
);
},
{
closed = 1;
nodes = (
(244,244,o),
(261,245,o),
(274,248,cs),
(300,254,o),
(315,268,o),
(315,285,cs),
(315,291,o),
(313,298,o),
(309,304,c),
(287,302,o),
(264,301,o),
(220,300,cs),
(81,298,l),
(49,299,o),
(18,301,o),
(-10,303,c),
(-15,297,o),
(-18,290,o),
(-18,283,cs),
(-18,267,o),
(-5,252,o),
(23,247,cs),
(32,246,o),
(46,245,o),
(62,244,c),
(202,243,l)
);
}
);
width = 353;
}
);
unicode = 359;
}
{
glyphname = uogonek;
layers = (
{
anchors = (
{
name = bottom;
pos = (273,0);
},
{
name = ogonek;
pos = (526,10);
},
{
name = top;
pos = (335,500);
},
{
name = topright;
pos = (507,439);
}
);
layerId = "CDFC0212-EC7A-4000-86F8-EA19B9E6D7F9";
shapes = (
{
closed = 1;
nodes = (
(528,-215,o),
(565,-165,o),
(565,-120,cs),
(565,-90,o),
(548,-63,o),
(515,-57,c),
(513,-58,l),
(517,-67,o),
(519,-76,o),
(519,-84,cs),
(519,-105,o),
(503,-118,o),
(485,-118,cs),
(465,-118,o),
(444,-101,o),
(444,-68,cs),
(444,-42,o),
(457,-15,o),
(493,9,c),
(534,28,o),
(567,66,o),
(567,117,c),
(560,119,l),
(546,100,o),
(530,96,o),
(519,96,cs),
(498,96,o),
(490,111,o),
(490,137,cs),
(490,174,o),
(506,224,o),
(522,274,cs),
(538,324,o),
(554,374,o),
(554,410,cs),
(554,471,o),
(510,504,o),
(463,504,cs),
(428,504,o),
(391,485,o),
(370,449,c),
(370,442,l),
(375,420,o),
(378,400,o),
(378,380,cs),
(378,355,o),
(373,330,o),
(368,309,cs),
(341,201,o),
(291,132,o),
(257,132,cs),
(238,132,o),
(229,152,o),
(229,182,cs),
(229,214,o),
(239,258,o),
(249,300,cs),
(258,340,o),
(267,379,o),
(267,406,cs),
(267,472,o),
(214,504,o),
(162,504,cs),
(98,504,o),
(28,457,o),
(28,375,c),
(36,372,l),
(44,389,o),
(59,398,o),
(72,398,cs),
(85,398,o),
(97,388,o),
(97,364,cs),
(97,345,o),
(90,314,o),
(81,279,cs),
(70,232,o),
(57,177,o),
(57,132,cs),
(57,49,o),
(103,-4,o),
(163,-4,cs),
(214,-4,o),
(275,33,o),
(330,126,c),
(330,124,ls),
(330,57,o),
(358,19,o),
(395,4,c),
(358,-29,o),
(341,-69,o),
(341,-106,cs),
(341,-164,o),
(384,-215,o),
(456,-215,cs)
);
}
);
width = 589;
},
{
.lastUpdate = 755078906.552;
associatedMasterId = "CDFC0212-EC7A-4000-86F8-EA19B9E6D7F9";
layerId = "4E71F09D-E1D9-4AB9-BD62-18E8F870736D";
name = "Oct 9, 23, 13:40";
shapes = (
{
ref = u;
},
{
pos = (331,10);
ref = ogonekcomb;
}
);
width = 589;
}
);
unicode = 371;
}
{
glyphname = bstroke;
layers = (
{
anchors = (
{
name = bottom;
pos = (213,0);
},
{
name = center;
pos = (265,250);
},
{
name = top;
pos = (153,700);
}
);
layerId = "CDFC0212-EC7A-4000-86F8-EA19B9E6D7F9";
shapes = (
{
closed = 1;
nodes = (
(429,-4,o),
(505,157,o),
(504,312,cs),
(504,443,o),
(449,507,o),
(381,507,cs),
(330,507,o),
(274,470,o),
(226,402,c),
(232,438,o),
(238,477,o),
(242,513,c),
(262,514,o),
(279,515,o),
(292,518,cs),
(317,524,o),
(332,538,o),
(332,555,cs),
(332,561,o),
(330,568,o),
(326,574,c),
(301,572,o),
(274,571,o),
(246,570,c),
(247,581,o),
(247,591,o),
(247,600,cs),
(247,666,o),
(210,701,o),
(165,701,cs),
(134,701,o),
(99,684,o),
(69,651,c),
(69,645,l),
(78,630,o),
(83,603,o),
(83,569,c),
(56,570,o),
(30,571,o),
(7,573,c),
(2,567,o),
(-1,560,o),
(-1,553,cs),
(-1,537,o),
(12,522,o),
(39,518,cs),
(49,516,o),
(64,515,o),
(81,514,c),
(76,446,o),
(63,362,o),
(51,282,cs),
(38,194,o),
(25,111,o),
(25,61,cs),
(25,46,o),
(49,14,o),
(99,14,cs),
(151,14,o),
(164,39,o),
(166,65,c),
(194,20,o),
(240,-4,o),
(289,-4,cs)
);
},
{
closed = 1;
nodes = (
(214,97,o),
(190,117,o),
(178,155,c),
(205,315,o),
(260,406,o),
(296,406,cs),
(328,406,o),
(343,345,o),
(343,281,cs),
(343,194,o),
(307,97,o),
(241,97,cs)
);
}
);
width = 529;
},
{
.lastUpdate = 755078906.546;
associatedMasterId = "CDFC0212-EC7A-4000-86F8-EA19B9E6D7F9";
layerId = "28CC795B-DA12-4169-9FD0-188E92F2A153";
name = "Sep 30, 23, 19:14";
shapes = (
{
alignment = -1;
ref = b;
},
{
alignment = -1;
locked = 1;
pos = (-15,260);
ref = lcvertStroke_part.;
}
);
width = 529;
}
);
metricRight = "=b";
unicode = 384;
}
{
glyphname = chook;
layers = (
{
anchors = (
{
name = bottom;
pos = (223,0);
},
{
name = top;
pos = (307,500);
}
);
layerId = "CDFC0212-EC7A-4000-86F8-EA19B9E6D7F9";
shapes = (
{
closed = 1;
nodes = (
(322,-7,o),
(465,49,o),
(465,187,c),
(455,191,l),
(432,140,o),
(375,110,o),
(321,110,cs),
(258,110,o),
(199,151,o),
(199,258,cs),
(199,365,o),
(258,424,o),
(303,424,cs),
(331,424,o),
(341,402,o),
(341,373,cs),
(341,355,o),
(337,334,o),
(332,314,c),
(427,314,o),
(477,364,o),
(477,416,cs),
(477,450,o),
(456,479,o),
(449,516,cs),
(446,531,o),
(444,554,o),
(444,573,cs),
(444,628,o),
(462,656,o),
(485,656,cs),
(504,656,o),
(515,638,o),
(515,605,cs),
(515,581,o),
(509,549,o),
(497,509,c),
(602,509,o),
(656,568,o),
(656,626,cs),
(656,683,o),
(604,739,o),
(504,739,cs),
(412,739,o),
(316,691,o),
(316,601,cs),
(316,573,o),
(325,542,o),
(345,507,c),
(331,507,ls),
(132,507,o),
(20,347,o),
(20,206,cs),
(20,94,o),
(90,-7,o),
(223,-7,cs)
);
}
);
width = 504;
},
{
associatedMasterId = "CDFC0212-EC7A-4000-86F8-EA19B9E6D7F9";
layerId = "A4B7DEE2-144E-4478-9FBF-462ACEB303C4";
name = "Sep 26, 23, 11:37";
shapes = (
{
locked = 1;
ref = c;
},
{
closed = 1;
nodes = (
(476,425,l),
(420,589,o),
(447,656,o),
(479,656,cs),
(518,656,o),
(526,603,o),
(497,509,c),
(705,509,o),
(714,739,o),
(497,739,cs),
(373,739,o),
(269,645,o),
(390,445,c)
);
}
);
width = 489;
},
{
anchors = (
{
name = bottom;
pos = (223,0);
},
{
name = top;
pos = (307,500);
}
);
associatedMasterId = "CDFC0212-EC7A-4000-86F8-EA19B9E6D7F9";
layerId = "EAA5366E-0538-4A01-B051-F9B377263AB9";
name = "Sep 26, 23, 11:38";
shapes = (
{
closed = 1;
nodes = (
(357,506,o),
(344,507,o),
(330.553,507,cs),
(132,507,o),
(20,347,o),
(20,206,cs),
(20,94,o),
(90,-7,o),
(223,-7,cs),
(322,-7,o),
(465,49,o),
(465,187,c),
(455,191,l),
(432,140,o),
(375,110,o),
(321,110,cs),
(258,110,o),
(198.96,151.492,o),
(199,258,cs),
(198.96,364.955,o),
(257.641,424.16,o),
(299.702,424.16,cs),
(331,424,o),
(341,402,o),
(341,374,cs),
(341,355,o),
(337,334,o),
(331.529,313.793,c),
(427,314,o),
(477,364,o),
(477,413,cs),
(477,450,o),
(456,479,o),
(451,506,cs),
(432,605,o),
(454,656,o),
(479,656,cs),
(518,656,o),
(526,603,o),
(497,509,c),
(705,509,o),
(714,739,o),
(497,739,cs),
(373,739,o),
(269,645,o),
(390,445,c),
(466,422,l),
(368,504,l)
);
}
);
width = 489;
},
{
anchors = (
{
name = bottom;
pos = (223,0);
},
{
name = top;
pos = (307,500);
}
);
associatedMasterId = "CDFC0212-EC7A-4000-86F8-EA19B9E6D7F9";
layerId = "9DD30B1A-B5F2-44ED-BD95-5FE40CA5160A";
name = "Oct 1, 23, 20:55";
shapes = (
{
closed = 1;
nodes = (
(322,-7,o),
(465,49,o),
(465,187,c),
(455,191,l),
(432,140,o),
(375,110,o),
(321,110,cs),
(258,110,o),
(198.96,151.492,o),
(199,258,cs),
(198.96,364.955,o),
(257.641,424.16,o),
(299.702,424.16,cs),
(331,424,o),
(341,402,o),
(341,374,cs),
(341,355,o),
(337,334,o),
(331.529,313.793,c),
(427,314,o),
(477,364,o),
(477,413,cs),
(477,450,o),
(456,479,o),
(451,506,cs),
(432,605,o),
(454,656,o),
(486,656,cs),
(518,656,o),
(526,603,o),
(497,509,c),
(705,509,o),
(714,739,o),
(497,739,cs),
(373,739,o),
(223,635,o),
(390,445,c),
(368,504,l),
(357,506,o),
(344,507,o),
(330.553,507,cs),
(132,507,o),
(20,347,o),
(20,206,cs),
(20,94,o),
(90,-7,o),
(223,-7,cs)
);
}
);
width = 504;
}
);
unicode = 392;
}
{
glyphname = Ghook;
layers = (
{
anchors = (
{
name = bottom;
pos = (297,0);
},
{
name = top;
pos = (376,710);
}
);
layerId = "CDFC0212-EC7A-4000-86F8-EA19B9E6D7F9";
shapes = (
{
closed = 1;
nodes = (
(489,-152,o),
(552,-116,o),
(565,-69,c),
(531,12,o),
(517,51,o),
(517,87,cs),
(517,97,o),
(518,108,o),
(521,119,c),
(570,149,o),
(589,189,o),
(589,227,cs),
(589,288,o),
(538,345,o),
(489,345,cs),
(442,345,o),
(396,293,o),
(396,143,cs),
(396,142,l),
(380,136,o),
(365,133,o),
(350,133,cs),
(274,133,o),
(217,210,o),
(217,340,cs),
(217,475,o),
(279,601,o),
(362,601,cs),
(390,601,o),
(415,586,o),
(415,536,cs),
(415,513,o),
(410,483,o),
(397,444,c),
(523,444,o),
(582,510,o),
(582,573,cs),
(582,617,o),
(553,671,o),
(542,725,cs),
(539,742,o),
(538,756,o),
(538,768,cs),
(538,822,o),
(559,855,o),
(584,855,cs),
(603,855,o),
(614,837,o),
(614,804,cs),
(614,780,o),
(608,748,o),
(596,708,c),
(703,708,o),
(757,768,o),
(757,827,cs),
(757,883,o),
(708,938,o),
(608,938,cs),
(514,938,o),
(415,889,o),
(415,798,cs),
(415,776,o),
(421,750,o),
(435,722,c),
(422,724,o),
(408,725,o),
(394,725,cs),
(237,725,o),
(39,600,o),
(39,317,cs),
(39,98,o),
(158,-6,o),
(286,-6,cs),
(319,-6,o),
(352,1,o),
(385,16,c),
(386,-35,o),
(390,-93,o),
(398,-150,c),
(407,-152,o),
(416,-152,o),
(425,-152,cs)
);
}
);
width = 617;
},
{
anchors = (
{
name = bottom;
pos = (297,0);
},
{
name = top;
pos = (376,710);
}
);
associatedMasterId = "CDFC0212-EC7A-4000-86F8-EA19B9E6D7F9";
layerId = "C841A330-8BA7-4BAB-854B-B51BC43C28FB";
name = "Sep 29, 23, 17:41";
shapes = (
{
closed = 1;
nodes = (
(489,-152,o),
(552,-116,o),
(565,-69,c),
(531,12,o),
(517,51,o),
(517,87,cs),
(517,97,o),
(518,108,o),
(521,119,c),
(570,149,o),
(589,189,o),
(589,227,cs),
(589,288,o),
(538,345,o),
(489,345,cs),
(442,345,o),
(396,293,o),
(396,143,cs),
(396,142,l),
(380,136,o),
(365,133,o),
(350,133,cs),
(274,133,o),
(217,210,o),
(217,358,cs),
(217,475,o),
(279,601,o),
(357,601,cs),
(390,601,o),
(415,586,o),
(415,536,cs),
(415,513,o),
(410,483,o),
(397,444,c),
(523,444,o),
(582,510,o),
(582,579,cs),
(582,670,o),
(497,725,o),
(394,725,cs),
(237,725,o),
(39,600,o),
(39,301,cs),
(39,98,o),
(158,-6,o),
(285,-6,cs),
(319,-6,o),
(352,1,o),
(385,16,c),
(386,-35,o),
(390,-93,o),
(398,-150,c),
(407,-152,o),
(416,-152,o),
(425,-152,cs)
);
}
);
width = 621;
},
{
anchors = (
{
name = bottom;
pos = (297,0);
},
{
name = top;
pos = (376,710);
}
);
associatedMasterId = "CDFC0212-EC7A-4000-86F8-EA19B9E6D7F9";
layerId = "29CCA1A8-15BA-4114-8EAA-9E8E79F72741";
name = "Sep 29, 23, 17:41";
shapes = (
{
closed = 1;
nodes = (
(489,-152,o),
(552,-116,o),
(565,-69,c),
(531,12,o),
(517,51,o),
(517,87,cs),
(517,97,o),
(518,108,o),
(521,119,c),
(570,149,o),
(589,189,o),
(589,227,cs),
(589,288,o),
(538,345,o),
(489,345,cs),
(442,345,o),
(396,293,o),
(396,143,cs),
(396,142,l),
(380,136,o),
(365,133,o),
(350,133,cs),
(274,133,o),
(217,210,o),
(217,358,cs),
(217,475,o),
(279,601,o),
(357,601,cs),
(390,601,o),
(415,586,o),
(415,536,cs),
(415,513,o),
(410,483,o),
(397,444,c),
(523,444,o),
(582,510,o),
(582,579,cs),
(582,670,o),
(497,725,o),
(394,725,cs),
(237,725,o),
(39,600,o),
(39,301,cs),
(39,98,o),
(158,-6,o),
(285,-6,cs),
(319,-6,o),
(352,1,o),
(385,16,c),
(386,-35,o),
(390,-93,o),
(398,-150,c),
(407,-152,o),
(416,-152,o),
(425,-152,cs)
);
},
{
closed = 1;
nodes = (
(582,631,o),
(552,678,o),
(547,705,cs),
(528,804,o),
(553,855,o),
(585,855,cs),
(617,855,o),
(625,802,o),
(596,708,c),
(804,708,o),
(813,938,o),
(596,938,cs),
(472,938,o),
(322,834,o),
(489,644,c),
(582,579,l)
);
}
);
width = 621;
},
{
anchors = (
{
name = bottom;
pos = (297,0);
},
{
name = top;
pos = (376,710);
}
);
associatedMasterId = "CDFC0212-EC7A-4000-86F8-EA19B9E6D7F9";
layerId = "7F09563D-ECC3-44F4-875E-88A1F1C22879";
name = "Sep 29, 23, 17:42";
shapes = (
{
closed = 1;
nodes = (
(489,-152,o),
(552,-116,o),
(565,-69,c),
(531,12,o),
(517,51,o),
(517,87,cs),
(517,97,o),
(518,108,o),
(521,119,c),
(570,149,o),
(589,189,o),
(589,227,cs),
(589,288,o),
(538,345,o),
(489,345,cs),
(442,345,o),
(396,293,o),
(396,143,cs),
(396,142,l),
(380,136,o),
(365,133,o),
(350,133,cs),
(274,133,o),
(217,210,o),
(217,358,cs),
(217,475,o),
(279,601,o),
(357,601,cs),
(390,601,o),
(415,586,o),
(415,536,cs),
(415,513,o),
(410,483,o),
(397,444,c),
(523,444,o),
(582,510,o),
(582,573,cs),
(582,617,o),
(553,671,o),
(547,705,cs),
(528,804,o),
(553,855,o),
(585,855,cs),
(617,855,o),
(625,802,o),
(596,708,c),
(804,708,o),
(813,938,o),
(596,938,cs),
(490,938,o),
(365,862,o),
(435,722,c),
(422,724,o),
(408,725,o),
(394,725,cs),
(237,725,o),
(39,600,o),
(39,301,cs),
(39,98,o),
(158,-6,o),
(285,-6,cs),
(319,-6,o),
(352,1,o),
(385,16,c),
(386,-35,o),
(390,-93,o),
(398,-150,c),
(407,-152,o),
(416,-152,o),
(425,-152,cs)
);
}
);
width = 621;
},
{
anchors = (
{
name = bottom;
pos = (298,0);
},
{
name = top;
pos = (377,710);
}
);
associatedMasterId = "CDFC0212-EC7A-4000-86F8-EA19B9E6D7F9";
layerId = "9C9EBC98-9209-4FFB-8F95-FC693B78AD01";
name = "Sep 29, 23, 17:42";
shapes = (
{
closed = 1;
nodes = (
(490,-152,o),
(553,-116,o),
(566,-69,c),
(532,12,o),
(518,51,o),
(518,87,cs),
(518,97,o),
(519,108,o),
(522,119,c),
(571,149,o),
(590,189,o),
(590,227,cs),
(590,288,o),
(539,345,o),
(490,345,cs),
(443,345,o),
(397,293,o),
(397,143,cs),
(397,142,l),
(381,136,o),
(366,133,o),
(351,133,cs),
(275,133,o),
(218,210,o),
(218,340,cs),
(218,475,o),
(280,601,o),
(363,601,cs),
(391,601,o),
(416,586,o),
(416,536,cs),
(416,513,o),
(411,483,o),
(398,444,c),
(524,444,o),
(583,510,o),
(583,573,cs),
(583,617,o),
(554,671,o),
(543,727,cs),
(529,804,o),
(554,855,o),
(586,855,cs),
(618,855,o),
(626,802,o),
(597,708,c),
(805,708,o),
(814,938,o),
(609,938,cs),
(491,938,o),
(366,862,o),
(436,722,c),
(423,724,o),
(409,725,o),
(395,725,cs),
(238,725,o),
(40,600,o),
(40,317,cs),
(40,98,o),
(159,-6,o),
(287,-6,cs),
(320,-6,o),
(353,1,o),
(386,16,c),
(387,-35,o),
(391,-93,o),
(399,-150,c),
(408,-152,o),
(417,-152,o),
(426,-152,cs)
);
}
);
width = 618;
}
);
metricLeft = "=O";
unicode = 403;
}
{
glyphname = Khook;
layers = (
{
anchors = (
{
name = bottom;
pos = (279,0);
},
{
name = top;
pos = (331,710);
}
);
layerId = "CDFC0212-EC7A-4000-86F8-EA19B9E6D7F9";
shapes = (
{
closed = 1;
nodes = (
(568,-5,o),
(622,84,o),
(628,187,c),
(622,190,l),
(613,173,o),
(599,165,o),
(585,165,cs),
(554,165,o),
(506,187,o),
(443,297,cs),
(414,345,o),
(391,385,o),
(358,409,c),
(422,531,o),
(457,580,o),
(483,580,cs),
(495,580,o),
(503,571,o),
(503,549,cs),
(503,526,o),
(493,489,o),
(469,434,c),
(604,434,o),
(663,519,o),
(663,597,cs),
(663,663,o),
(621,723,o),
(547,723,cs),
(440,723,o),
(365,614,o),
(306,430,c),
(298,432,o),
(290,433,o),
(281,434,c),
(295,490,o),
(303,531,o),
(303,583,cs),
(303,685,o),
(253,723,o),
(197,723,cs),
(112,723,o),
(43,637,o),
(40,535,c),
(47,533,l),
(67,571,o),
(90,590,o),
(109,590,cs),
(126,590,o),
(138,574,o),
(138,530,cs),
(138,397,o),
(31,250,o),
(31,119,cs),
(31,32,o),
(79,-4,o),
(130,-4,cs),
(159,-4,o),
(189,8,o),
(211,29,c),
(209,44,o),
(209,59,o),
(209,74,cs),
(209,165,o),
(237,257,o),
(261,349,c),
(271,324,o),
(285,283,o),
(310,218,cs),
(355,100,o),
(402,-5,o),
(480,-5,cs)
);
}
);
width = 654;
},
{
anchors = (
{
name = bottom;
pos = (293,0);
},
{
name = top;
pos = (345,710);
}
);
associatedMasterId = "CDFC0212-EC7A-4000-86F8-EA19B9E6D7F9";
layerId = "8D21247A-D709-4046-8508-7FFDD7498394";
name = "Sep 30, 23, 16:43";
shapes = (
{
closed = 1;
nodes = (
(587,-7,o),
(636,84,o),
(636,193,c),
(630,196,l),
(621,174,o),
(598,154,o),
(572,154,cs),
(488,154,o),
(502,369,o),
(391,421,c),
(544,487,o),
(603,559,o),
(603,616,cs),
(603,680,o),
(528,725,o),
(431,725,c),
(437,715,o),
(440,703,o),
(440,688,cs),
(440,620,o),
(380,507,o),
(291,429,c),
(303,482,o),
(313,534,o),
(313,580,cs),
(313,682,o),
(263,720,o),
(207,720,cs),
(122,720,o),
(53,634,o),
(50,532,c),
(57,530,l),
(77,568,o),
(100,587,o),
(119,587,cs),
(136,587,o),
(148,571,o),
(148,527,cs),
(148,394,o),
(41,250,o),
(41,119,cs),
(41,32,o),
(89,-4,o),
(140,-4,cs),
(169,-4,o),
(199,8,o),
(221,29,c),
(219,44,o),
(219,59,o),
(219,74,cs),
(219,170,o),
(248,269,o),
(275,366,c),
(378,308,o),
(314,-7,o),
(497,-7,cs)
);
}
);
width = 652;
},
{
anchors = (
{
name = bottom;
pos = (293,0);
},
{
name = top;
pos = (345,710);
}
);
associatedMasterId = "CDFC0212-EC7A-4000-86F8-EA19B9E6D7F9";
layerId = "AB510C4A-2743-4782-AFC5-EBF034077A69";
name = "Sep 30, 23, 16:44";
shapes = (
{
closed = 1;
nodes = (
(105.495,-0.142,o),
(156.605,-0.142,cs),
(212.757,-0.142,o),
(271.68,43.446,o),
(271.68,107,cs),
(271.68,146.56,o),
(260.68,187,o),
(260.68,222,cs),
(260.68,341,o),
(322.68,428,o),
(322.68,576,cs),
(322.68,678.533,o),
(269.524,719.906,o),
(208.52,719.906,cs),
(126.054,719.906,o),
(39.245,634.303,o),
(40.008,531.977,c),
(47.352,530.023,l),
(83.039,605.682,o),
(148.68,603.749,o),
(148.68,535,cs),
(148.68,451,o),
(56.68,252,o),
(56.68,129,cs),
(56.68,35.798,o)
);
},
{
closed = 1;
nodes = (
(600.68,0,o),
(650.68,89,o),
(650.68,192,c),
(644.68,195,l),
(636.68,178,o),
(622.68,170,o),
(608.68,170,cs),
(577.68,170,o),
(529.17,192.309,o),
(459.68,302,cs),
(408.169,383.312,o),
(385.68,434,o),
(298.68,434,c),
(240.68,391,l),
(263.68,391,o),
(260.68,385,o),
(331.68,223,cs),
(382.68,105,o),
(434.68,0,o),
(512.68,0,cs)
);
},
{
closed = 1;
nodes = (
(412.293,506.859,o),
(536.005,545.046,o),
(602.68,500,c),
(732.978,732.27,o),
(415.609,912.283,o),
(319.68,363,c),
(342.68,345,l)
);
}
);
width = 652;
},
{
anchors = (
{
name = bottom;
pos = (293,0);
},
{
name = top;
pos = (345,710);
}
);
associatedMasterId = "CDFC0212-EC7A-4000-86F8-EA19B9E6D7F9";
layerId = "8A3DF237-74D6-487E-9D75-7535E6969815";
name = "Sep 30, 23, 16:49";
shapes = (
{
closed = 1;
nodes = (
(105.495,-0.142,o),
(156.605,-0.142,cs),
(212.757,-0.142,o),
(271.68,43.446,o),
(271.68,107,cs),
(271.68,146.56,o),
(260.68,187,o),
(260.68,222,cs),
(260.68,341,o),
(322.68,428,o),
(322.68,576,cs),
(322.68,678.533,o),
(269.524,719.906,o),
(208.52,719.906,cs),
(126.054,719.906,o),
(39.245,634.303,o),
(40.008,531.977,c),
(47.352,530.023,l),
(83.039,605.682,o),
(148.68,603.749,o),
(148.68,535,cs),
(148.68,451,o),
(56.68,252,o),
(56.68,129,cs),
(56.68,35.798,o)
);
},
{
closed = 1;
nodes = (
(600.68,0,o),
(650.68,89,o),
(650.68,192,c),
(644.68,195,l),
(636.68,178,o),
(622.68,170,o),
(608.68,170,cs),
(577.68,170,o),
(529.17,192.309,o),
(459.68,302,cs),
(408.169,383.312,o),
(385.68,434,o),
(298.68,434,c),
(240.68,391,l),
(263.68,391,o),
(260.68,385,o),
(331.68,223,cs),
(382.68,105,o),
(434.68,0,o),
(512.68,0,cs)
);
},
{
closed = 1;
nodes = (
(366,472,o),
(441,580,o),
(485,580,cs),
(512,580,o),
(521,539,o),
(479,434,c),
(727,434,o),
(705,723,o),
(542,723,cs),
(425,723,o),
(330,577,o),
(281,363,c),
(304,355,l)
);
}
);
width = 652;
},
{
anchors = (
{
name = bottom;
pos = (293,0);
},
{
name = top;
pos = (345,710);
}
);
associatedMasterId = "CDFC0212-EC7A-4000-86F8-EA19B9E6D7F9";
layerId = "FAC4CED9-6FFE-4475-B6B6-18685F71DA8A";
name = "Sep 30, 23, 16:53";
shapes = (
{
closed = 1;
nodes = (
(88,-4,o),
(142,-4,cs),
(195,-4,o),
(258,33,o),
(258,111,cs),
(258,143,o),
(247,183,o),
(250,234,cs),
(255,337,o),
(322,428,o),
(330,576,cs),
(342,819,o),
(57,730,o),
(49,532,c),
(56,530,l),
(96,606,o),
(161,604,o),
(158,535,cs),
(153,451,o),
(51,248,o),
(45,125,cs),
(40,33,o)
);
},
{
closed = 1;
nodes = (
(582,-5,o),
(636,84,o),
(642,187,c),
(636,190,l),
(627,173,o),
(613,165,o),
(599,165,cs),
(568,165,o),
(520,187,o),
(457,297,cs),
(409,378,o),
(389,434,o),
(302,434,c),
(242,391,l),
(265,391,o),
(262,380,o),
(324,218,cs),
(369,100,o),
(416,-5,o),
(494,-5,cs)
);
},
{
closed = 1;
nodes = (
(426,517,o),
(467,580,o),
(497,580,cs),
(522,580,o),
(530,539,o),
(483,434,c),
(731,434,o),
(724,723,o),
(561,723,cs),
(444,723,o),
(366,594,o),
(305,380,c),
(344,355,l)
);
}
);
width = 652;
},
{
anchors = (
{
name = bottom;
pos = (279,0);
},
{
name = top;
pos = (331,710);
}
);
associatedMasterId = "CDFC0212-EC7A-4000-86F8-EA19B9E6D7F9";
layerId = "AE967024-C5CD-4D10-B4C2-74BBBF7D84DF";
name = "Oct 9, 23, 13:29";
shapes = (
{
closed = 1;
nodes = (
(159,-4,o),
(189,8,o),
(211,29,c),
(209,44,o),
(209,59,o),
(209,74,cs),
(209,170,o),
(240,268,o),
(265,366,cs),
(288,462,o),
(303,512,o),
(303,583,cs),
(303,685,o),
(253,723,o),
(197,723,cs),
(112,723,o),
(43,637,o),
(40,535,c),
(47,533,l),
(67,571,o),
(90,590,o),
(109,590,cs),
(126,590,o),
(138,574,o),
(138,530,cs),
(138,397,o),
(31,250,o),
(31,119,cs),
(31,32,o),
(79,-4,o),
(130,-4,cs)
);
},
{
closed = 1;
nodes = (
(568,-5,o),
(622,84,o),
(628,187,c),
(622,190,l),
(613,173,o),
(599,165,o),
(585,165,cs),
(554,165,o),
(506,187,o),
(443,297,cs),
(395,378,o),
(363,434,o),
(268,434,c),
(228,391,l),
(251,391,o),
(248,380,o),
(310,218,cs),
(355,100,o),
(402,-5,o),
(480,-5,cs)
);
},
{
closed = 1;
nodes = (
(412,517,o),
(453,580,o),
(483,580,cs),
(508,580,o),
(516,539,o),
(469,434,c),
(717,434,o),
(710,723,o),
(547,723,cs),
(430,723,o),
(352,594,o),
(291,380,c),
(330,355,l)
);
}
);
width = 654;
}
);
unicode = 408;
}
